Interface-Thin.ufo
<glyph name="quotedbl" format="1">
  <advance width="768"/>
  <unicode hex="0022"/>
  <outline>
    <contour>
      <point x="288" y="2112" type="line"/>
      <point x="212" y="2112" type="line"/>
      <point x="212" y="1912" type="line"/>
      <point x="204" y="1544" type="line"/>
      <point x="276" y="1544" type="line"/>
      <point x="288" y="1916" type="line"/>
    </contour>
    <contour>
      <point x="564" y="2112" type="line"/>
      <point x="492" y="2112" type="line"/>
      <point x="492" y="1912" type="line"/>
      <point x="484" y="1544" type="line"/>
      <point x="552" y="1544" type="line"/>
      <point x="564" y="1916" type="line"/>
    </contour>
  </outline>
</glyph>
<glyph name="numbersign" format="1">
  <advance width="1792"/>
  <unicode hex="0023"/>
  <outline>
    <contour>
      <point x="400" y="0" type="line"/>
      <point x="476" y="0" type="line"/>
      <point x="840" y="2004" type="line"/>
      <point x="764" y="2004" type="line"/>
    </contour>
    <contour>
      <point x="976" y="0" type="line"/>
      <point x="1052" y="0" type="line"/>
      <point x="1420" y="2004" type="line"/>
      <point x="1344" y="2004" type="line"/>
    </contour>
    <contour>
      <point x="1664" y="1356" type="line"/>
      <point x="1664" y="1432" type="line"/>
      <point x="236" y="1432" type="line"/>
      <point x="236" y="1356" type="line"/>
    </contour>
    <contour>
      <point x="1560" y="564" type="line"/>
      <point x="1560" y="636" type="line"/>
      <point x="128" y="636" type="line"/>
      <point x="128" y="564" type="line"/>
    </contour>
  </outline>
</glyph>
<glyph name="dollar" format="1">
  <advance width="1536"/>
  <unicode hex="0024"/>
  <outline>
    <contour>
      <point x="836" y="2288" type="line"/>
      <point x="760" y="2288" type="line"/>
      <point x="760" y="1976" type="line"/>
      <point x="836" y="1976" type="line"/>
    </contour>
    <contour>
      <point x="852" y="28" type="line"/>
      <point x="776" y="28" type="line"/>
      <point x="776" y="-288" type="line"/>
      <point x="852" y="-288" type="line"/>
    </contour>
    <contour>
      <point x="1300" y="472" type="curve"/>
      <point x="1300" y="252"/>
      <point x="1116" y="44"/>
      <point x="804" y="44" type="curve" smooth="yes"/>
      <point x="544" y="44"/>
      <point x="240" y="164"/>
      <point x="240" y="564" type="curve"/>
      <point x="164" y="564" type="line"/>
      <point x="164" y="120"/>
      <point x="488" y="-28"/>
      <point x="804" y="-28" type="curve" smooth="yes"/>
      <point x="1144" y="-28"/>
      <point x="1372" y="164"/>
      <point x="1372" y="476" type="curve"/>
      <point x="1372" y="808"/>
      <point x="1148" y="920"/>
      <point x="812" y="1036" type="curve" smooth="yes"/>
      <point x="384" y="1180"/>
      <point x="304" y="1304"/>
      <point x="304" y="1528" type="curve"/>
      <point x="304" y="1748"/>
      <point x="456" y="1960"/>
      <point x="792" y="1960" type="curve" smooth="yes"/>
      <point x="1116" y="1960"/>
      <point x="1288" y="1736"/>
      <point x="1288" y="1440" type="curve"/>
      <point x="1364" y="1440" type="line"/>
      <point x="1364" y="1820"/>
      <point x="1148" y="2032"/>
      <point x="792" y="2032" type="curve" smooth="yes"/>
      <point x="448" y="2032"/>
      <point x="228" y="1832"/>
      <point x="228" y="1528" type="curve"/>
      <point x="228" y="1196"/>
      <point x="440" y="1084"/>
      <point x="788" y="964" type="curve" smooth="yes"/>
      <point x="1180" y="824"/>
      <point x="1300" y="712"/>
    </contour>
  </outline>
</glyph>
<glyph name="percent" format="1">
  <advance width="2048"/>
  <unicode hex="0025"/>
  <outline>
    <contour>
      <point x="1072" y="384" type="line"/>
      <point x="1072" y="160"/>
      <point x="1212" y="-28"/>
      <point x="1472" y="-28" type="curve" smooth="yes"/>
      <point x="1728" y="-28"/>
      <point x="1868" y="160"/>
      <point x="1868" y="384" type="curve" smooth="yes"/>
      <point x="1868" y="492" type="line" smooth="yes"/>
      <point x="1868" y="716"/>
      <point x="1732" y="904"/>
      <point x="1472" y="904" type="curve" smooth="yes"/>
      <point x="1216" y="904"/>
      <point x="1072" y="716"/>
      <point x="1072" y="492" type="curve" smooth="yes"/>
    </contour>
    <contour>
      <point x="1172" y="516" type="line"/>
      <point x="1172" y="680"/>
      <point x="1260" y="828"/>
      <point x="1472" y="828" type="curve" smooth="yes"/>
      <point x="1692" y="828"/>
      <point x="1768" y="680"/>
      <point x="1768" y="516" type="curve" smooth="yes"/>
      <point x="1768" y="380" type="line" smooth="yes"/>
      <point x="1768" y="212"/>
      <point x="1688" y="64"/>
      <point x="1472" y="64" type="curve" smooth="yes"/>
      <point x="1252" y="64"/>
      <point x="1172" y="212"/>
      <point x="1172" y="380" type="curve" smooth="yes"/>
    </contour>
    <contour>
      <point x="1768" y="2048" type="line"/>
      <point x="1664" y="2048" type="line"/>
      <point x="256" y="0" type="line"/>
      <point x="360" y="0" type="line"/>
    </contour>
    <contour>
      <point x="180" y="1556" type="line"/>
      <point x="180" y="1332"/>
      <point x="320" y="1144"/>
      <point x="580" y="1144" type="curve" smooth="yes"/>
      <point x="836" y="1144"/>
      <point x="976" y="1332"/>
      <point x="976" y="1556" type="curve" smooth="yes"/>
      <point x="976" y="1664" type="line" smooth="yes"/>
      <point x="976" y="1888"/>
      <point x="840" y="2076"/>
      <point x="580" y="2076" type="curve" smooth="yes"/>
      <point x="324" y="2076"/>
      <point x="180" y="1888"/>
      <point x="180" y="1664" type="curve" smooth="yes"/>
    </contour>
    <contour>
      <point x="280" y="1684" type="line"/>
      <point x="280" y="1848"/>
      <point x="364" y="2000"/>
      <point x="576" y="2000" type="curve" smooth="yes"/>
      <point x="800" y="2000"/>
      <point x="872" y="1848"/>
      <point x="872" y="1684" type="curve" smooth="yes"/>
      <point x="872" y="1544" type="line" smooth="yes"/>
      <point x="872" y="1380"/>
      <point x="796" y="1228"/>
      <point x="576" y="1228" type="curve" smooth="yes"/>
      <point x="356" y="1228"/>
      <point x="280" y="1380"/>
      <point x="280" y="1544" type="curve" smooth="yes"/>
    </contour>
  </outline>
</glyph>
<glyph name="ampersand" format="1">
  <advance width="1792"/>
  <unicode hex="0026"/>
  <outline>
    <contour>
      <point x="504" y="1048" type="line"/>
      <point x="316" y="888"/>
      <point x="152" y="712"/>
      <point x="152" y="484" type="curve"/>
      <point x="152" y="172"/>
      <point x="380" y="-28"/>
      <point x="752" y="-28" type="curve"/>
      <point x="992" y="-28"/>
      <point x="1184" y="88"/>
      <point x="1340" y="248" type="curve" smooth="yes"/>
      <point x="1356" y="264"/>
      <point x="1348" y="256"/>
      <point x="1360" y="276" type="curve" smooth="yes"/>
      <point x="1484" y="428"/>
      <point x="1560" y="620"/>
      <point x="1560" y="868" type="curve"/>
      <point x="1488" y="868" type="line"/>
      <point x="1488" y="376"/>
      <point x="1132" y="48"/>
      <point x="752" y="48" type="curve" smooth="yes"/>
      <point x="396" y="48"/>
      <point x="228" y="256"/>
      <point x="228" y="484" type="curve"/>
      <point x="228" y="604"/>
      <point x="276" y="760"/>
      <point x="548" y="996" type="curve" smooth="yes"/>
      <point x="884" y="1264" type="line" smooth="yes"/>
      <point x="988" y="1348"/>
      <point x="1148" y="1500"/>
      <point x="1148" y="1668" type="curve" smooth="yes"/>
      <point x="1148" y="1868"/>
      <point x="1012" y="2032"/>
      <point x="768" y="2032" type="curve" smooth="yes"/>
      <point x="508" y="2032"/>
      <point x="348" y="1856"/>
      <point x="348" y="1604" type="curve" smooth="yes"/>
      <point x="348" y="1400"/>
      <point x="464" y="1228"/>
      <point x="668" y="996" type="curve" smooth="yes"/>
      <point x="1548" y="0" type="line"/>
      <point x="1640" y="0" type="line"/>
      <point x="640" y="1136" type="line" smooth="yes"/>
      <point x="492" y="1308"/>
      <point x="424" y="1468"/>
      <point x="424" y="1608" type="curve" smooth="yes"/>
      <point x="424" y="1796"/>
      <point x="544" y="1956"/>
      <point x="768" y="1956" type="curve" smooth="yes"/>
      <point x="968" y="1956"/>
      <point x="1072" y="1820"/>
      <point x="1072" y="1668" type="curve" smooth="yes"/>
      <point x="1072" y="1532"/>
      <point x="968" y="1412"/>
      <point x="848" y="1320" type="curve" smooth="yes"/>
    </contour>
  </outline>
</glyph>
<glyph name="quotesingle" format="1">
  <advance width="512"/>
  <unicode hex="0027"/>
  <outline>
    <contour>
      <point x="300" y="2112" type="line"/>
      <point x="224" y="2112" type="line"/>
      <point x="224" y="1876" type="line"/>
      <point x="212" y="1544" type="line"/>
      <point x="280" y="1544" type="line"/>
      <point x="300" y="1880" type="line"/>
    </contour>
  </outline>
</glyph>
<glyph name="parenleft" format="1">
  <advance width="1024"/>
  <unicode hex="0028"/>
  <outline>
    <contour>
      <point x="216" y="780" type="line"/>
      <point x="216" y="112"/>
      <point x="476" y="-452"/>
      <point x="784" y="-648" type="curve"/>
      <point x="812" y="-588" type="line"/>
      <point x="540" y="-408"/>
      <point x="288" y="184"/>
      <point x="288" y="776" type="curve"/>
      <point x="288" y="812" type="line" smooth="yes"/>
      <point x="288" y="1404"/>
      <point x="540" y="1996"/>
      <point x="812" y="2172" type="curve"/>
      <point x="784" y="2232" type="line"/>
      <point x="476" y="2040"/>
      <point x="216" y="1440"/>
      <point x="216" y="808" type="curve"/>
    </contour>
  </outline>
</glyph>
<glyph name="parenright" format="1">
  <advance width="768"/>
  <unicode hex="0029"/>
  <outline>
    <contour>
      <point x="684" y="808" type="line"/>
      <point x="684" y="1440"/>
      <point x="420" y="2040"/>
      <point x="112" y="2232" type="curve"/>
      <point x="88" y="2172" type="line"/>
      <point x="360" y="1996"/>
      <point x="608" y="1404"/>
      <point x="608" y="812" type="curve" smooth="yes"/>
      <point x="608" y="776" type="line" smooth="yes"/>
      <point x="608" y="184"/>
      <point x="360" y="-408"/>
      <point x="88" y="-588" type="curve"/>
      <point x="112" y="-648" type="line"/>
      <point x="420" y="-452"/>
      <point x="684" y="112"/>
      <point x="684" y="780" type="curve" smooth="yes"/>
    </contour>
  </outline>
</glyph>
<glyph name="asterisk" format="1">
  <advance width="1280"/>
  <unicode hex="002A"/>
  <outline>
    <contour>
      <point x="268" y="952" type="line"/>
      <point x="328" y="908" type="line"/>
      <point x="644" y="1356" type="line"/>
      <point x="976" y="912" type="line"/>
      <point x="1040" y="960" type="line"/>
      <point x="696" y="1396" type="line"/>
      <point x="1192" y="1584" type="line"/>
      <point x="1164" y="1656" type="line"/>
      <point x="680" y="1460" type="line"/>
      <point x="692" y="2004" type="line"/>
      <point x="612" y="2004" type="line"/>
      <point x="612" y="1460" type="line"/>
      <point x="116" y="1644" type="line"/>
      <point x="88" y="1568" type="line"/>
      <point x="588" y="1400" type="line"/>
    </contour>
  </outline>
</glyph>
<glyph name="plus" format="1">
  <advance width="1792"/>
  <unicode hex="002B"/>
  <outline>
    <contour>
      <point x="1584" y="964" type="line"/>
      <point x="212" y="964" type="line"/>
      <point x="212" y="892" type="line"/>
      <point x="1584" y="892" type="line"/>
    </contour>
    <contour>
      <point x="920" y="1660" type="line"/>
      <point x="848" y="1660" type="line"/>
      <point x="848" y="200" type="line"/>
      <point x="920" y="200" type="line"/>
    </contour>
  </outline>
</glyph>
<glyph name="comma" format="1">
  <advance width="512"/>
  <unicode hex="002C"/>
  <outline>
    <contour>
      <point x="320" y="296" type="move" name="_bottom"/>
    </contour>
    <contour>
      <point x="280" y="36" type="move" name="_right"/>
    </contour>
    <contour>
      <point x="356" y="220" type="line"/>
      <point x="280" y="220" type="line"/>
      <point x="280" y="36" type="line"/>
      <point x="280" y="-108"/>
      <point x="240" y="-200"/>
      <point x="160" y="-308" type="curve"/>
      <point x="208" y="-352" type="line"/>
      <point x="296" y="-260"/>
      <point x="356" y="-132"/>
      <point x="356" y="36" type="curve"/>
    </contour>
  </outline>
</glyph>
<glyph name="hyphen" format="1">
  <advance width="1024"/>
  <unicode hex="002D"/>
  <outline>
    <contour>
      <point x="836" y="952" type="line"/>
      <point x="188" y="952" type="line"/>
      <point x="188" y="880" type="line"/>
      <point x="836" y="880" type="line"/>
    </contour>
  </outline>
</glyph>
<glyph name="period" format="1">
  <advance width="512"/>
  <unicode hex="002E"/>
  <outline>
    <contour>
      <point x="180" y="68" type="curve" smooth="yes"/>
      <point x="180" y="24"/>
      <point x="212" y="-8"/>
      <point x="256" y="-8" type="curve" smooth="yes"/>
      <point x="300" y="-8"/>
      <point x="332" y="24"/>
      <point x="332" y="68" type="curve" smooth="yes"/>
      <point x="332" y="112"/>
      <point x="300" y="144"/>
      <point x="256" y="144" type="curve" smooth="yes"/>
      <point x="212" y="144"/>
      <point x="180" y="112"/>
    </contour>
  </outline>
</glyph>
<glyph name="zero" format="1">
  <advance width="1536"/>
  <unicode hex="0030"/>
  <outline>
    <contour>
      <point x="1368" y="1184" type="line"/>
      <point x="1368" y="1708"/>
      <point x="1152" y="2032"/>
      <point x="768" y="2032" type="curve" smooth="yes"/>
      <point x="384" y="2032"/>
      <point x="168" y="1708"/>
      <point x="168" y="1184" type="curve"/>
      <point x="168" y="816" type="line"/>
      <point x="168" y="296"/>
      <point x="388" y="-28"/>
      <point x="772" y="-28" type="curve" smooth="yes"/>
      <point x="1160" y="-28"/>
      <point x="1368" y="296"/>
      <point x="1368" y="816" type="curve"/>
    </contour>
    <contour>
      <point x="1292" y="820" type="line"/>
      <point x="1292" y="368"/>
      <point x="1124" y="48"/>
      <point x="772" y="48" type="curve" smooth="yes"/>
      <point x="416" y="48"/>
      <point x="244" y="368"/>
      <point x="244" y="820" type="curve" smooth="yes"/>
      <point x="244" y="1184" type="line" smooth="yes"/>
      <point x="244" y="1644"/>
      <point x="416" y="1956"/>
      <point x="768" y="1956" type="curve" smooth="yes"/>
      <point x="1124" y="1956"/>
      <point x="1292" y="1644"/>
      <point x="1292" y="1184" type="curve"/>
    </contour>
  </outline>
</glyph>
<glyph name="one" format="1">
  <advance width="1536"/>
  <unicode hex="0031"/>
  <outline>
    <contour>
      <point x="1092" y="2008" type="line"/>
      <point x="1080" y="2008" type="line"/>
      <point x="444" y="1776" type="line"/>
      <point x="444" y="1692" type="line"/>
      <point x="1020" y="1908" type="line"/>
      <point x="1020" y="0" type="line"/>
      <point x="1092" y="0" type="line"/>
    </contour>
  </outline>
</glyph>
<glyph name="two" format="1">
  <advance width="1536"/>
  <unicode hex="0032"/>
  <outline>
    <contour>
      <point x="1392" y="76" type="line"/>
      <point x="292" y="76" type="line"/>
      <point x="872" y="752" type="line" smooth="yes"/>
      <point x="1076" y="988"/>
      <point x="1284" y="1244"/>
      <point x="1284" y="1492" type="curve" smooth="yes"/>
      <point x="1284" y="1844"/>
      <point x="1064" y="2032"/>
      <point x="720" y="2032" type="curve" smooth="yes"/>
      <point x="380" y="2032"/>
      <point x="144" y="1760"/>
      <point x="144" y="1436" type="curve"/>
      <point x="220" y="1436" type="line"/>
      <point x="220" y="1736"/>
      <point x="436" y="1956"/>
      <point x="720" y="1956" type="curve" smooth="yes"/>
      <point x="1040" y="1956"/>
      <point x="1208" y="1776"/>
      <point x="1208" y="1492" type="curve" smooth="yes"/>
      <point x="1208" y="1316"/>
      <point x="1100" y="1120"/>
      <point x="852" y="832" type="curve" smooth="yes"/>
      <point x="196" y="76" type="line"/>
      <point x="196" y="0" type="line"/>
      <point x="1392" y="0" type="line"/>
    </contour>
  </outline>
</glyph>
<glyph name="three" format="1">
  <advance width="1536"/>
  <unicode hex="0033"/>
  <outline>
    <contour>
      <point x="580" y="1060" type="line"/>
      <point x="580" y="992" type="line"/>
      <point x="736" y="992" type="line"/>
      <point x="1104" y="992"/>
      <point x="1348" y="1212"/>
      <point x="1348" y="1488" type="curve"/>
      <point x="1348" y="1824"/>
      <point x="1124" y="2032"/>
      <point x="780" y="2032" type="curve" smooth="yes"/>
      <point x="460" y="2032"/>
      <point x="188" y="1820"/>
      <point x="188" y="1476" type="curve"/>
      <point x="264" y="1476" type="line"/>
      <point x="264" y="1776"/>
      <point x="492" y="1956"/>
      <point x="780" y="1956" type="curve" smooth="yes"/>
      <point x="1124" y="1956"/>
      <point x="1272" y="1744"/>
      <point x="1272" y="1492" type="curve"/>
      <point x="1272" y="1260"/>
      <point x="1084" y="1060"/>
      <point x="732" y="1060" type="curve" smooth="yes"/>
    </contour>
    <contour>
      <point x="580" y="984" type="line"/>
      <point x="732" y="984" type="line" smooth="yes"/>
      <point x="1072" y="984"/>
      <point x="1316" y="852"/>
      <point x="1316" y="524" type="curve" smooth="yes"/>
      <point x="1316" y="228"/>
      <point x="1128" y="48"/>
      <point x="792" y="48" type="curve" smooth="yes"/>
      <point x="468" y="48"/>
      <point x="220" y="260"/>
      <point x="220" y="556" type="curve"/>
      <point x="148" y="556" type="line"/>
      <point x="148" y="152"/>
      <point x="492" y="-28"/>
      <point x="792" y="-28" type="curve" smooth="yes"/>
      <point x="1140" y="-28"/>
      <point x="1392" y="176"/>
      <point x="1392" y="532" type="curve" smooth="yes"/>
      <point x="1392" y="864"/>
      <point x="1140" y="1048"/>
      <point x="736" y="1048" type="curve" smooth="yes"/>
      <point x="580" y="1048" type="line"/>
    </contour>
  </outline>
</glyph>
<glyph name="four" format="1">
  <advance width="1792"/>
  <unicode hex="0034"/>
  <outline>
    <contour>
      <point x="1592" y="620" type="line"/>
      <point x="316" y="620" type="line"/>
      <point x="1056" y="1724" type="line"/>
      <point x="1224" y="2004" type="line"/>
      <point x="1156" y="2004" type="line"/>
      <point x="200" y="588" type="line"/>
      <point x="200" y="548" type="line"/>
      <point x="1592" y="548" type="line"/>
    </contour>
    <contour>
      <point x="1248" y="2004" type="line"/>
      <point x="1172" y="2004" type="line"/>
      <point x="1172" y="0" type="line"/>
      <point x="1248" y="0" type="line"/>
    </contour>
  </outline>
</glyph>
<glyph name="five" format="1">
  <advance width="1536"/>
  <unicode hex="0035"/>
  <outline>
    <contour>
      <point x="312" y="1028" type="line"/>
      <point x="420" y="1124"/>
      <point x="544" y="1184"/>
      <point x="756" y="1184" type="curve"/>
      <point x="1088" y="1184"/>
      <point x="1272" y="948"/>
      <point x="1272" y="636" type="curve" smooth="yes"/>
      <point x="1272" y="252"/>
      <point x="1112" y="48"/>
      <point x="784" y="48" type="curve" smooth="yes"/>
      <point x="476" y="48"/>
      <point x="296" y="216"/>
      <point x="264" y="528" type="curve"/>
      <point x="188" y="528" type="line"/>
      <point x="220" y="152"/>
      <point x="472" y="-28"/>
      <point x="784" y="-28" type="curve" smooth="yes"/>
      <point x="1188" y="-28"/>
      <point x="1348" y="256"/>
      <point x="1348" y="640" type="curve" smooth="yes"/>
      <point x="1348" y="1028"/>
      <point x="1100" y="1260"/>
      <point x="756" y="1260" type="curve" smooth="yes"/>
      <point x="568" y="1260"/>
      <point x="404" y="1184"/>
      <point x="336" y="1128" type="curve"/>
      <point x="420" y="1928" type="line"/>
      <point x="1328" y="1928" type="line"/>
      <point x="1328" y="2004" type="line"/>
      <point x="352" y="2004" type="line"/>
      <point x="256" y="1048" type="line"/>
    </contour>
  </outline>
</glyph>
<glyph name="six" format="1">
  <advance width="1536"/>
  <unicode hex="0036"/>
  <outline>
    <contour>
      <point x="872" y="2032" type="curve"/>
      <point x="480" y="2032"/>
      <point x="152" y="1708"/>
      <point x="152" y="908" type="curve"/>
      <point x="152" y="676" type="line"/>
      <point x="152" y="244"/>
      <point x="432" y="-28"/>
      <point x="804" y="-28" type="curve" smooth="yes"/>
      <point x="1136" y="-28"/>
      <point x="1368" y="272"/>
      <point x="1368" y="660" type="curve"/>
      <point x="1368" y="1036"/>
      <point x="1160" y="1316"/>
      <point x="792" y="1316" type="curve"/>
      <point x="424" y="1316"/>
      <point x="164" y="1048"/>
      <point x="164" y="768" type="curve"/>
      <point x="216" y="764" type="line"/>
      <point x="216" y="1028"/>
      <point x="492" y="1244"/>
      <point x="780" y="1244" type="curve"/>
      <point x="1128" y="1244"/>
      <point x="1296" y="984"/>
      <point x="1296" y="660" type="curve" smooth="yes"/>
      <point x="1296" y="336"/>
      <point x="1104" y="44"/>
      <point x="804" y="44" type="curve" smooth="yes"/>
      <point x="468" y="44"/>
      <point x="228" y="296"/>
      <point x="228" y="680" type="curve" smooth="yes"/>
      <point x="228" y="936" type="line" smooth="yes"/>
      <point x="228" y="1656"/>
      <point x="524" y="1956"/>
      <point x="872" y="1956" type="curve"/>
      <point x="1172" y="1956"/>
      <point x="1300" y="1764"/>
      <point x="1300" y="1664" type="curve"/>
      <point x="1384" y="1664" type="line"/>
      <point x="1384" y="1784"/>
      <point x="1244" y="2032"/>
    </contour>
  </outline>
</glyph>
<glyph name="seven" format="1">
  <advance width="1536"/>
  <unicode hex="0037"/>
  <outline>
    <contour>
      <point x="1408" y="2004" type="line"/>
      <point x="128" y="2004" type="line"/>
      <point x="128" y="1928" type="line"/>
      <point x="1324" y="1928" type="line"/>
      <point x="452" y="0" type="line"/>
      <point x="528" y="0" type="line"/>
      <point x="1408" y="1956" type="line"/>
    </contour>
  </outline>
</glyph>
<glyph name="eight" format="1">
  <advance width="1792"/>
  <unicode hex="0038"/>
  <outline>
    <contour>
      <point x="1536" y="520" type="curve" smooth="yes"/>
      <point x="1536" y="836"/>
      <point x="1248" y="1052"/>
      <point x="896" y="1052" type="curve" smooth="yes"/>
      <point x="536" y="1052"/>
      <point x="260" y="836"/>
      <point x="260" y="520" type="curve" smooth="yes"/>
      <point x="260" y="156"/>
      <point x="536" y="-28"/>
      <point x="896" y="-28" type="curve" smooth="yes"/>
      <point x="1252" y="-28"/>
      <point x="1536" y="156"/>
    </contour>
    <contour>
      <point x="1460" y="516" type="curve" smooth="yes"/>
      <point x="1460" y="212"/>
      <point x="1208" y="48"/>
      <point x="896" y="48" type="curve" smooth="yes"/>
      <point x="576" y="48"/>
      <point x="332" y="212"/>
      <point x="332" y="516" type="curve" smooth="yes"/>
      <point x="332" y="804"/>
      <point x="576" y="988"/>
      <point x="896" y="988" type="curve" smooth="yes"/>
      <point x="1208" y="988"/>
      <point x="1460" y="804"/>
    </contour>
    <contour>
      <point x="1476" y="1492" type="curve" smooth="yes"/>
      <point x="1476" y="1840"/>
      <point x="1216" y="2032"/>
      <point x="892" y="2032" type="curve" smooth="yes"/>
      <point x="564" y="2032"/>
      <point x="316" y="1840"/>
      <point x="316" y="1492" type="curve" smooth="yes"/>
      <point x="316" y="1200"/>
      <point x="564" y="996"/>
      <point x="896" y="996" type="curve" smooth="yes"/>
      <point x="1216" y="996"/>
      <point x="1476" y="1200"/>
    </contour>
    <contour>
      <point x="1404" y="1500" type="curve" smooth="yes"/>
      <point x="1404" y="1228"/>
      <point x="1176" y="1064"/>
      <point x="896" y="1064" type="curve" smooth="yes"/>
      <point x="604" y="1064"/>
      <point x="388" y="1228"/>
      <point x="388" y="1500" type="curve" smooth="yes"/>
      <point x="388" y="1784"/>
      <point x="604" y="1956"/>
      <point x="892" y="1956" type="curve" smooth="yes"/>
      <point x="1172" y="1956"/>
      <point x="1404" y="1768"/>
    </contour>
  </outline>
</glyph>
<glyph name="nine" format="1">
  <advance width="1536"/>
  <unicode hex="0039"/>
  <outline>
    <contour>
      <point x="428" y="48" type="line"/>
      <point x="424" y="-28" type="line"/>
      <point x="472" y="-28" type="line"/>
      <point x="1088" y="-28"/>
      <point x="1380" y="352"/>
      <point x="1380" y="1020" type="curve"/>
      <point x="1380" y="1244" type="line"/>
      <point x="1380" y="1768"/>
      <point x="1144" y="2032"/>
      <point x="744" y="2032" type="curve" smooth="yes"/>
      <point x="392" y="2032"/>
      <point x="156" y="1704"/>
      <point x="156" y="1316" type="curve"/>
      <point x="156" y="956"/>
      <point x="384" y="644"/>
      <point x="736" y="644" type="curve"/>
      <point x="1088" y="644"/>
      <point x="1368" y="908"/>
      <point x="1368" y="1276" type="curve"/>
      <point x="1324" y="1272" type="line"/>
      <point x="1324" y="1064"/>
      <point x="1136" y="720"/>
      <point x="736" y="720" type="curve"/>
      <point x="416" y="720"/>
      <point x="232" y="1008"/>
      <point x="232" y="1316" type="curve"/>
      <point x="232" y="1644"/>
      <point x="432" y="1956"/>
      <point x="752" y="1956" type="curve" smooth="yes"/>
      <point x="1100" y="1956"/>
      <point x="1308" y="1716"/>
      <point x="1308" y="1240" type="curve" smooth="yes"/>
      <point x="1308" y="1176"/>
      <point x="1328" y="980"/>
      <point x="1308" y="956" type="curve"/>
      <point x="1308" y="444"/>
      <point x="1048" y="48"/>
      <point x="472" y="48" type="curve"/>
    </contour>
  </outline>
</glyph>
<glyph name="less" format="1">
  <advance width="1536"/>
  <unicode hex="003C"/>
  <outline>
    <contour>
      <point x="240" y="940" type="line"/>
      <point x="192" y="940" type="line"/>
      <point x="192" y="880" type="line"/>
      <point x="1344" y="360" type="line"/>
      <point x="1344" y="440" type="line"/>
    </contour>
    <contour>
      <point x="1344" y="1392" type="line"/>
      <point x="1344" y="1472" type="line"/>
      <point x="192" y="952" type="line"/>
      <point x="192" y="892" type="line"/>
      <point x="244" y="892" type="line"/>
    </contour>
  </outline>
</glyph>
<glyph name="equal" format="1">
  <advance width="1536"/>
  <unicode hex="003D"/>
  <outline>
    <contour>
      <point x="1344" y="1232" type="line"/>
      <point x="196" y="1232" type="line"/>
      <point x="196" y="1160" type="line"/>
      <point x="1344" y="1160" type="line"/>
    </contour>
    <contour>
      <point x="1344" y="676" type="line"/>
      <point x="196" y="676" type="line"/>
      <point x="196" y="600" type="line"/>
      <point x="1344" y="600" type="line"/>
    </contour>
  </outline>
</glyph>
<glyph name="greater" format="1">
  <advance width="1536"/>
  <unicode hex="003E"/>
  <outline>
    <contour>
      <point x="1292" y="896" type="line"/>
      <point x="1344" y="896" type="line"/>
      <point x="1344" y="956" type="line"/>
      <point x="196" y="1476" type="line"/>
      <point x="196" y="1392" type="line"/>
    </contour>
    <contour>
      <point x="196" y="448" type="line"/>
      <point x="196" y="364" type="line"/>
      <point x="1344" y="888" type="line"/>
      <point x="1344" y="948" type="line"/>
      <point x="1296" y="948" type="line"/>
    </contour>
  </outline>
</glyph>
<glyph name="question" format="1">
  <advance width="1280"/>
  <unicode hex="003F"/>
  <outline>
    <contour>
      <point x="644" y="552" type="line"/>
      <point x="644" y="708"/>
      <point x="688" y="856"/>
      <point x="824" y="960" type="curve" smooth="yes"/>
      <point x="1032" y="1144"/>
      <point x="1128" y="1284"/>
      <point x="1128" y="1528" type="curve" smooth="yes"/>
      <point x="1128" y="1812"/>
      <point x="964" y="2032"/>
      <point x="656" y="2032" type="curve" smooth="yes"/>
      <point x="388" y="2032"/>
      <point x="160" y="1852"/>
      <point x="156" y="1536" type="curve"/>
      <point x="228" y="1536" type="line"/>
      <point x="236" y="1784"/>
      <point x="392" y="1956"/>
      <point x="656" y="1956" type="curve" smooth="yes"/>
      <point x="920" y="1956"/>
      <point x="1052" y="1776"/>
      <point x="1052" y="1528" type="curve" smooth="yes"/>
      <point x="1052" y="1276"/>
      <point x="956" y="1180"/>
      <point x="788" y="1020" type="curve" smooth="yes"/>
      <point x="624" y="868"/>
      <point x="572" y="756"/>
      <point x="568" y="552" type="curve"/>
    </contour>
    <contour>
      <point x="536" y="68" type="curve" smooth="yes"/>
      <point x="536" y="24"/>
      <point x="568" y="-8"/>
      <point x="612" y="-8" type="curve" smooth="yes"/>
      <point x="656" y="-8"/>
      <point x="688" y="24"/>
      <point x="688" y="68" type="curve" smooth="yes"/>
      <point x="688" y="112"/>
      <point x="656" y="144"/>
      <point x="612" y="144" type="curve" smooth="yes"/>
      <point x="568" y="144"/>
      <point x="536" y="112"/>
    </contour>
  </outline>
</glyph>
<glyph name="at" format="1">
  <advance width="2560"/>
  <unicode hex="0040"/>
  <outline>
    <contour>
      <point x="1280" y="1052" type="curve" smooth="yes"/>
      <point x="1496" y="1052"/>
      <point x="1632" y="864"/>
      <point x="1632" y="596" type="curve" smooth="yes"/>
      <point x="1632" y="332"/>
      <point x="1496" y="128"/>
      <point x="1276" y="128" type="curve" smooth="yes"/>
      <point x="1076" y="128"/>
      <point x="948" y="328"/>
      <point x="948" y="596" type="curve" smooth="yes"/>
      <point x="948" y="872"/>
      <point x="1072" y="1052"/>
    </contour>
    <contour>
      <point x="1296" y="1676" type="curve" smooth="yes"/>
      <point x="616" y="1676"/>
      <point x="216" y="1268"/>
      <point x="216" y="584" type="curve" smooth="yes"/>
      <point x="216" y="-128"/>
      <point x="604" y="-512"/>
      <point x="1320" y="-512" type="curve" smooth="yes"/>
      <point x="1496" y="-512"/>
      <point x="1664" y="-488"/>
      <point x="1788" y="-444" type="curve"/>
      <point x="1788" y="-268" type="line"/>
      <point x="1700" y="-308"/>
      <point x="1536" y="-384"/>
      <point x="1324" y="-384" type="curve" smooth="yes"/>
      <point x="720" y="-384"/>
      <point x="352" y="-56"/>
      <point x="352" y="572" type="curve" smooth="yes"/>
      <point x="352" y="1212"/>
      <point x="736" y="1544"/>
      <point x="1280" y="1544" type="curve" smooth="yes"/>
      <point x="1832" y="1544"/>
      <point x="2200" y="1284"/>
      <point x="2204" y="720" type="curve" smooth="yes"/>
      <point x="2208" y="380"/>
      <point x="2100" y="112"/>
      <point x="1924" y="112" type="curve" smooth="yes"/>
      <point x="1800" y="112"/>
      <point x="1768" y="216"/>
      <point x="1768" y="312" type="curve" smooth="yes"/>
      <point x="1768" y="1172" type="line"/>
      <point x="1640" y="1172" type="line"/>
      <point x="1640" y="988" type="line"/>
      <point x="1616" y="988" type="line"/>
      <point x="1564" y="1112"/>
      <point x="1440" y="1184"/>
      <point x="1292" y="1184" type="curve" smooth="yes"/>
      <point x="1008" y="1184"/>
      <point x="812" y="932"/>
      <point x="812" y="596" type="curve" smooth="yes"/>
      <point x="812" y="244"/>
      <point x="1004" y="-8"/>
      <point x="1292" y="-8" type="curve" smooth="yes"/>
      <point x="1456" y="-8"/>
      <point x="1580" y="72"/>
      <point x="1640" y="212" type="curve"/>
      <point x="1660" y="212" type="line"/>
      <point x="1680" y="76"/>
      <point x="1724" y="-20"/>
      <point x="1888" y="-20" type="curve" smooth="yes"/>
      <point x="2204" y="-20"/>
      <point x="2344" y="268"/>
      <point x="2344" y="720" type="curve" smooth="yes"/>
      <point x="2344" y="1320"/>
      <point x="1952" y="1676"/>
    </contour>
  </outline>
</glyph>
<glyph name="B" format="1">
  <advance width="1792"/>
  <unicode hex="0042"/>
  <outline>
    <contour>
      <point x="756" y="2216" type="move" name="top"/>
    </contour>
    <contour>
      <point x="756" y="16" type="move" name="bottom"/>
    </contour>
    <contour>
      <point x="1684" y="2200" type="move" name="top_dd"/>
    </contour>
    <contour>
      <point x="1684" y="-560" type="move" name="bottom_dd"/>
    </contour>
    <contour>
      <point x="1684" y="2216" type="move" name="top0315"/>
    </contour>
    <contour>
      <point x="928" y="988" type="line"/>
      <point x="1044" y="1032" type="line"/>
      <point x="1300" y="1056"/>
      <point x="1440" y="1244"/>
      <point x="1440" y="1488" type="curve"/>
      <point x="1440" y="1844"/>
      <point x="1192" y="2004"/>
      <point x="788" y="2004" type="curve"/>
      <point x="260" y="2004" type="line"/>
      <point x="260" y="0" type="line"/>
      <point x="336" y="0" type="line"/>
      <point x="336" y="1928" type="line"/>
      <point x="788" y="1928" type="line"/>
      <point x="1168" y="1928"/>
      <point x="1368" y="1784"/>
      <point x="1368" y="1496" type="curve"/>
      <point x="1368" y="1204"/>
      <point x="1176" y="1064"/>
      <point x="816" y="1064" type="curve"/>
      <point x="304" y="1064" type="line"/>
      <point x="304" y="988" type="line"/>
    </contour>
    <contour>
      <point x="912" y="0" type="line"/>
      <point x="1280" y="0"/>
      <point x="1532" y="196"/>
      <point x="1532" y="552" type="curve" smooth="yes"/>
      <point x="1532" y="796"/>
      <point x="1340" y="1008"/>
      <point x="1084" y="1036" type="curve"/>
      <point x="1080" y="1064" type="line"/>
      <point x="604" y="1064" type="line"/>
      <point x="604" y="988" type="line"/>
      <point x="928" y="988" type="line" smooth="yes"/>
      <point x="1284" y="988"/>
      <point x="1460" y="780"/>
      <point x="1460" y="548" type="curve" smooth="yes"/>
      <point x="1460" y="252"/>
      <point x="1252" y="76"/>
      <point x="912" y="76" type="curve" smooth="yes"/>
      <point x="328" y="76" type="line"/>
      <point x="304" y="0" type="line"/>
    </contour>
  </outline>
</glyph>
<glyph name="C" format="1">
  <advance width="1792"/>
  <unicode hex="0043"/>
  <outline>
    <contour>
      <point x="912" y="2244" type="move" name="top"/>
    </contour>
    <contour>
      <point x="912" y="-16" type="move" name="bottom"/>
    </contour>
    <contour>
      <point x="1804" y="2200" type="move" name="top_dd"/>
    </contour>
    <contour>
      <point x="1804" y="-560" type="move" name="bottom_dd"/>
    </contour>
    <contour>
      <point x="1804" y="2244" type="move" name="top0315"/>
    </contour>
    <contour>
      <point x="1540" y="612" type="line"/>
      <point x="1500" y="220"/>
      <point x="1272" y="48"/>
      <point x="904" y="48" type="curve" smooth="yes"/>
      <point x="512" y="48"/>
      <point x="252" y="368"/>
      <point x="252" y="852" type="curve" smooth="yes"/>
      <point x="252" y="1156" type="line" smooth="yes"/>
      <point x="252" y="1636"/>
      <point x="512" y="1956"/>
      <point x="904" y="1956" type="curve" smooth="yes"/>
      <point x="1280" y="1956"/>
      <point x="1500" y="1760"/>
      <point x="1540" y="1392" type="curve"/>
      <point x="1616" y="1392" type="line"/>
      <point x="1576" y="1820"/>
      <point x="1304" y="2032"/>
      <point x="904" y="2032" type="curve" smooth="yes"/>
      <point x="464" y="2032"/>
      <point x="176" y="1672"/>
      <point x="176" y="1152" type="curve"/>
      <point x="176" y="852" type="line"/>
      <point x="176" y="328"/>
      <point x="464" y="-28"/>
      <point x="904" y="-28" type="curve" smooth="yes"/>
      <point x="1304" y="-28"/>
      <point x="1576" y="180"/>
      <point x="1616" y="612" type="curve"/>
    </contour>
  </outline>
</glyph>
<glyph name="D" format="1">
  <advance width="1792"/>
  <unicode hex="0044"/>
  <outline>
    <contour>
      <point x="744" y="2216" type="move" name="top"/>
    </contour>
    <contour>
      <point x="424" y="1016" type="move" name="cross"/>
    </contour>
    <contour>
      <point x="744" y="16" type="move" name="bottom"/>
    </contour>
    <contour>
      <point x="1776" y="2200" type="move" name="top_dd"/>
    </contour>
    <contour>
      <point x="1776" y="-560" type="move" name="bottom_dd"/>
    </contour>
    <contour>
      <point x="1776" y="2216" type="move" name="top0315"/>
    </contour>
    <contour>
      <point x="760" y="0" type="line"/>
      <point x="1232" y="0"/>
      <point x="1588" y="360"/>
      <point x="1588" y="880" type="curve"/>
      <point x="1588" y="1124" type="line"/>
      <point x="1588" y="1644"/>
      <point x="1232" y="2004"/>
      <point x="760" y="2004" type="curve"/>
      <point x="264" y="2004" type="line"/>
      <point x="264" y="1928" type="line"/>
      <point x="760" y="1928" type="line"/>
      <point x="1192" y="1928"/>
      <point x="1512" y="1596"/>
      <point x="1512" y="1128" type="curve"/>
      <point x="1512" y="880" type="line" smooth="yes"/>
      <point x="1512" y="408"/>
      <point x="1192" y="76"/>
      <point x="760" y="76" type="curve"/>
      <point x="276" y="76" type="line"/>
      <point x="272" y="0" type="line"/>
    </contour>
    <contour>
      <point x="280" y="2004" type="line"/>
      <point x="208" y="2004" type="line"/>
      <point x="208" y="0" type="line"/>
      <point x="280" y="0" type="line"/>
    </contour>
  </outline>
</glyph>
<glyph name="E" format="1">
  <advance width="1792"/>
  <unicode hex="0045"/>
  <outline>
    <contour>
      <point x="864" y="2216" type="move" name="top"/>
    </contour>
    <contour>
      <point x="864" y="16" type="move" name="bottom"/>
    </contour>
    <contour>
      <point x="-84" y="2004" type="move" name="tonos"/>
    </contour>
    <contour>
      <point x="1424" y="0" type="move" name="ogonek"/>
    </contour>
    <contour>
      <point x="1616" y="2200" type="move" name="top_dd"/>
    </contour>
    <contour>
      <point x="1616" y="-560" type="move" name="bottom_dd"/>
    </contour>
    <contour>
      <point x="1616" y="2216" type="move" name="top0315"/>
    </contour>
    <contour>
      <point x="1504" y="76" type="line"/>
      <point x="312" y="76" type="line"/>
      <point x="312" y="0" type="line"/>
      <point x="1504" y="0" type="line"/>
    </contour>
    <contour>
      <point x="360" y="2004" type="line"/>
      <point x="288" y="2004" type="line"/>
      <point x="288" y="0" type="line"/>
      <point x="360" y="0" type="line"/>
    </contour>
    <contour>
      <point x="1364" y="1068" type="line"/>
      <point x="312" y="1068" type="line"/>
      <point x="312" y="992" type="line"/>
      <point x="1364" y="992" type="line"/>
    </contour>
    <contour>
      <point x="1504" y="2004" type="line"/>
      <point x="312" y="2004" type="line"/>
      <point x="312" y="1928" type="line"/>
      <point x="1504" y="1928" type="line"/>
    </contour>
  </outline>
</glyph>
<glyph name="F" format="1">
  <advance width="1792"/>
  <unicode hex="0046"/>
  <outline>
    <contour>
      <point x="456" y="464" type="move" name="cross"/>
    </contour>
    <contour>
      <point x="852" y="2216" type="move" name="top"/>
    </contour>
    <contour>
      <point x="732" y="16" type="move" name="bottom"/>
    </contour>
    <contour>
      <point x="1612" y="2200" type="move" name="top_dd"/>
    </contour>
    <contour>
      <point x="1612" y="-560" type="move" name="bottom_dd"/>
    </contour>
    <contour>
      <point x="1612" y="2216" type="move" name="top0315"/>
    </contour>
    <contour>
      <point x="352" y="2004" type="line"/>
      <point x="276" y="2004" type="line"/>
      <point x="276" y="0" type="line"/>
      <point x="352" y="0" type="line"/>
    </contour>
    <contour>
      <point x="1376" y="1064" type="line"/>
      <point x="296" y="1064" type="line"/>
      <point x="296" y="984" type="line"/>
      <point x="1376" y="984" type="line"/>
    </contour>
    <contour>
      <point x="1516" y="2004" type="line"/>
      <point x="296" y="2004" type="line"/>
      <point x="296" y="1928" type="line"/>
      <point x="1516" y="1928" type="line"/>
    </contour>
  </outline>
</glyph>
<glyph name="G" format="1">
  <advance width="2048"/>
  <unicode hex="0047"/>
  <outline>
    <contour>
      <point x="1032" y="2244" type="move" name="top"/>
    </contour>
    <contour>
      <point x="1068" y="0" type="move" name="bottom"/>
    </contour>
    <contour>
      <point x="2000" y="2200" type="move" name="top_dd"/>
    </contour>
    <contour>
      <point x="2000" y="-560" type="move" name="bottom_dd"/>
    </contour>
    <contour>
      <point x="2000" y="2244" type="move" name="top0315"/>
    </contour>
    <contour>
      <point x="1752" y="908" type="line"/>
      <point x="1068" y="908" type="line"/>
      <point x="1068" y="832" type="line"/>
      <point x="1680" y="832" type="line"/>
      <point x="1680" y="248" type="line"/>
      <point x="1616" y="168"/>
      <point x="1396" y="48"/>
      <point x="1068" y="48" type="curve" smooth="yes"/>
      <point x="644" y="48"/>
      <point x="372" y="380"/>
      <point x="372" y="852" type="curve" smooth="yes"/>
      <point x="372" y="1184" type="line" smooth="yes"/>
      <point x="372" y="1636"/>
      <point x="636" y="1956"/>
      <point x="1044" y="1956" type="curve" smooth="yes"/>
      <point x="1464" y="1956"/>
      <point x="1636" y="1724"/>
      <point x="1676" y="1460" type="curve"/>
      <point x="1748" y="1460" type="line"/>
      <point x="1712" y="1780"/>
      <point x="1480" y="2032"/>
      <point x="1044" y="2032" type="curve" smooth="yes"/>
      <point x="604" y="2032"/>
      <point x="296" y="1684"/>
      <point x="296" y="1180" type="curve" smooth="yes"/>
      <point x="296" y="852" type="line" smooth="yes"/>
      <point x="296" y="332"/>
      <point x="612" y="-28"/>
      <point x="1068" y="-28" type="curve" smooth="yes"/>
      <point x="1460" y="-28"/>
      <point x="1688" y="124"/>
      <point x="1752" y="216" type="curve"/>
    </contour>
  </outline>
</glyph>
<glyph name="H" format="1">
  <advance width="2048"/>
  <unicode hex="0048"/>
  <outline>
    <contour>
      <point x="1020" y="2216" type="move" name="top"/>
    </contour>
    <contour>
      <point x="1740" y="0" type="move" name="right"/>
    </contour>
    <contour>
      <point x="-44" y="2004" type="move" name="tonos"/>
    </contour>
    <contour>
      <point x="1020" y="16" type="move" name="bottom"/>
    </contour>
    <contour>
      <point x="2012" y="2200" type="move" name="top_dd"/>
    </contour>
    <contour>
      <point x="2012" y="-560" type="move" name="bottom_dd"/>
    </contour>
    <contour>
      <point x="2012" y="2216" type="move" name="top0315"/>
    </contour>
    <contour>
      <point x="1696" y="1068" type="line"/>
      <point x="348" y="1068" type="line"/>
      <point x="348" y="992" type="line"/>
      <point x="1696" y="992" type="line"/>
    </contour>
    <contour>
      <point x="384" y="2004" type="line"/>
      <point x="312" y="2004" type="line"/>
      <point x="312" y="0" type="line"/>
      <point x="384" y="0" type="line"/>
    </contour>
    <contour>
      <point x="1740" y="2004" type="line"/>
      <point x="1664" y="2004" type="line"/>
      <point x="1664" y="0" type="line"/>
      <point x="1740" y="0" type="line"/>
    </contour>
  </outline>
</glyph>
<glyph name="I" format="1">
  <advance width="768"/>
  <unicode hex="0049"/>
  <outline>
    <contour>
      <point x="388" y="2216" type="move" name="top"/>
    </contour>
    <contour>
      <point x="388" y="0" type="move" name="bottom"/>
    </contour>
    <contour>
      <point x="-28" y="1996" type="move" name="tonos"/>
    </contour>
    <contour>
      <point x="420" y="0" type="move" name="right"/>
    </contour>
    <contour>
      <point x="412" y="0" type="move" name="ogonek"/>
    </contour>
    <contour>
      <point x="752" y="2200" type="move" name="top_dd"/>
    </contour>
    <contour>
      <point x="752" y="-560" type="move" name="bottom_dd"/>
    </contour>
    <contour>
      <point x="752" y="2216" type="move" name="top0315"/>
    </contour>
    <contour>
      <point x="420" y="2004" type="line"/>
      <point x="348" y="2004" type="line"/>
      <point x="348" y="0" type="line"/>
      <point x="420" y="0" type="line"/>
    </contour>
  </outline>
</glyph>
<glyph name="J" format="1">
  <advance width="1536"/>
  <unicode hex="004A"/>
  <outline>
    <contour>
      <point x="1308" y="2176" type="move" name="top"/>
    </contour>
    <contour>
      <point x="772" y="-16" type="move" name="bottom"/>
    </contour>
    <contour>
      <point x="1616" y="2200" type="move" name="top_dd"/>
    </contour>
    <contour>
      <point x="1616" y="-560" type="move" name="bottom_dd"/>
    </contour>
    <contour>
      <point x="1616" y="2176" type="move" name="top0315"/>
    </contour>
    <contour>
      <point x="1272" y="608" type="line"/>
      <point x="1272" y="240"/>
      <point x="1044" y="48"/>
      <point x="768" y="48" type="curve" smooth="yes"/>
      <point x="436" y="48"/>
      <point x="264" y="228"/>
      <point x="264" y="552" type="curve"/>
      <point x="192" y="552" type="line"/>
      <point x="192" y="160"/>
      <point x="416" y="-28"/>
      <point x="768" y="-28" type="curve" smooth="yes"/>
      <point x="1096" y="-28"/>
      <point x="1348" y="196"/>
      <point x="1348" y="608" type="curve"/>
      <point x="1348" y="2004" type="line"/>
      <point x="1272" y="2004" type="line"/>
    </contour>
  </outline>
</glyph>
<glyph name="K" format="1">
  <advance width="1792"/>
  <unicode hex="004B"/>
  <outline>
    <contour>
      <point x="772" y="152" type="move" name="bottom"/>
    </contour>
    <contour>
      <point x="1540" y="-40" type="move" name="right"/>
    </contour>
    <contour>
      <point x="292" y="1692" type="move" name="cross"/>
    </contour>
    <contour>
      <point x="744" y="2096" type="move" name="top"/>
    </contour>
    <contour>
      <point x="1704" y="2200" type="move" name="top_dd"/>
    </contour>
    <contour>
      <point x="1704" y="-560" type="move" name="bottom_dd"/>
    </contour>
    <contour>
      <point x="1704" y="2096" type="move" name="top0315"/>
    </contour>
    <contour>
      <point x="264" y="2004" type="line"/>
      <point x="192" y="2004" type="line"/>
      <point x="192" y="0" type="line"/>
      <point x="264" y="0" type="line"/>
    </contour>
    <contour>
      <point x="1532" y="2004" type="line"/>
      <point x="1428" y="2004" type="line"/>
      <point x="592" y="1164" type="line"/>
      <point x="248" y="828" type="line"/>
      <point x="236" y="732" type="line"/>
      <point x="640" y="1100" type="line"/>
    </contour>
    <contour>
      <point x="1508" y="0" type="line"/>
      <point x="1604" y="0" type="line"/>
      <point x="608" y="1144" type="line"/>
      <point x="564" y="1080" type="line"/>
    </contour>
  </outline>
</glyph>
<glyph name="L" format="1">
  <advance width="1536"/>
  <unicode hex="004C"/>
  <outline>
    <contour>
      <point x="260" y="2132" type="move" name="top"/>
    </contour>
    <contour>
      <point x="800" y="16" type="move" name="bottom"/>
    </contour>
    <contour>
      <point x="724" y="2000" type="move" name="caron"/>
    </contour>
    <contour>
      <point x="768" y="1040" type="move" name="dot"/>
    </contour>
    <contour>
      <point x="1396" y="2200" type="move" name="top_dd"/>
    </contour>
    <contour>
      <point x="1396" y="-560" type="move" name="bottom_dd"/>
    </contour>
    <contour>
      <point x="1396" y="2132" type="move" name="top0315"/>
    </contour>
    <contour>
      <point x="1320" y="76" type="line"/>
      <point x="244" y="76" type="line"/>
      <point x="244" y="0" type="line"/>
      <point x="1320" y="0" type="line"/>
    </contour>
    <contour>
      <point x="292" y="2004" type="line"/>
      <point x="216" y="2004" type="line"/>
      <point x="216" y="0" type="line"/>
      <point x="292" y="0" type="line"/>
    </contour>
  </outline>
</glyph>
<glyph name="M" format="1">
  <advance width="2304"/>
  <unicode hex="004D"/>
  <outline>
    <contour>
      <point x="1168" y="2216" type="move" name="top"/>
    </contour>
    <contour>
      <point x="2084" y="0" type="move" name="right"/>
    </contour>
    <contour>
      <point x="1156" y="16" type="move" name="bottom"/>
    </contour>
    <contour>
      <point x="2360" y="2200" type="move" name="top_dd"/>
    </contour>
    <contour>
      <point x="2360" y="-560" type="move" name="bottom_dd"/>
    </contour>
    <contour>
      <point x="2360" y="2216" type="move" name="top0315"/>
    </contour>
    <contour>
      <point x="244" y="2004" type="line"/>
      <point x="1120" y="0" type="line"/>
      <point x="1180" y="0" type="line"/>
      <point x="2060" y="2004" type="line"/>
      <point x="1976" y="2004" type="line"/>
      <point x="1152" y="108" type="line"/>
      <point x="328" y="2004" type="line"/>
    </contour>
    <contour>
      <point x="220" y="2004" type="line"/>
      <point x="220" y="0" type="line"/>
      <point x="296" y="0" type="line"/>
      <point x="296" y="968" type="line"/>
      <point x="296" y="2004" type="line"/>
    </contour>
    <contour>
      <point x="2012" y="2004" type="line"/>
      <point x="2012" y="968" type="line"/>
      <point x="2012" y="0" type="line"/>
      <point x="2084" y="0" type="line"/>
      <point x="2084" y="2004" type="line"/>
    </contour>
  </outline>
</glyph>
<glyph name="N" format="1">
  <advance width="2048"/>
  <unicode hex="004E"/>
  <outline>
    <contour>
      <point x="1028" y="2216" type="move" name="top"/>
    </contour>
    <contour>
      <point x="1028" y="16" type="move" name="bottom"/>
    </contour>
    <contour>
      <point x="1744" y="0" type="move" name="right"/>
    </contour>
    <contour>
      <point x="2020" y="2200" type="move" name="top_dd"/>
    </contour>
    <contour>
      <point x="2020" y="-560" type="move" name="bottom_dd"/>
    </contour>
    <contour>
      <point x="2020" y="2216" type="move" name="top0315"/>
    </contour>
    <contour>
      <point x="1744" y="2004" type="line"/>
      <point x="1672" y="2004" type="line"/>
      <point x="1672" y="132" type="line"/>
      <point x="380" y="2004" type="line"/>
      <point x="304" y="2004" type="line"/>
      <point x="304" y="0" type="line"/>
      <point x="380" y="0" type="line"/>
      <point x="380" y="1876" type="line"/>
      <point x="1672" y="0" type="line"/>
      <point x="1744" y="0" type="line"/>
    </contour>
  </outline>
</glyph>
<glyph name="O" format="1">
  <advance width="1792"/>
  <unicode hex="004F"/>
  <outline>
    <contour>
      <point x="888" y="2244" type="move" name="top"/>
    </contour>
    <contour>
      <point x="896" y="-4" type="move" name="bottom"/>
    </contour>
    <contour>
      <point x="136" y="2000" type="move" name="tonos"/>
    </contour>
    <contour>
      <point x="1836" y="2200" type="move" name="top_dd"/>
    </contour>
    <contour>
      <point x="1836" y="-560" type="move" name="bottom_dd"/>
    </contour>
    <contour>
      <point x="1836" y="2244" type="move" name="top0315"/>
    </contour>
    <contour>
      <point x="1652" y="1152" type="line"/>
      <point x="1652" y="1672"/>
      <point x="1356" y="2032"/>
      <point x="896" y="2032" type="curve" smooth="yes"/>
      <point x="436" y="2032"/>
      <point x="140" y="1672"/>
      <point x="140" y="1152" type="curve"/>
      <point x="140" y="852" type="line"/>
      <point x="140" y="328"/>
      <point x="440" y="-28"/>
      <point x="896" y="-28" type="curve" smooth="yes"/>
      <point x="1360" y="-28"/>
      <point x="1652" y="328"/>
      <point x="1652" y="852" type="curve"/>
    </contour>
    <contour>
      <point x="1576" y="852" type="line"/>
      <point x="1576" y="380"/>
      <point x="1328" y="48"/>
      <point x="896" y="48" type="curve" smooth="yes"/>
      <point x="468" y="48"/>
      <point x="216" y="380"/>
      <point x="216" y="852" type="curve" smooth="yes"/>
      <point x="216" y="1156" type="line" smooth="yes"/>
      <point x="216" y="1624"/>
      <point x="464" y="1956"/>
      <point x="896" y="1956" type="curve" smooth="yes"/>
      <point x="1328" y="1956"/>
      <point x="1576" y="1624"/>
      <point x="1576" y="1156" type="curve"/>
    </contour>
  </outline>
</glyph>
<glyph name="P" format="1">
  <advance width="1792"/>
  <unicode hex="0050"/>
  <outline>
    <contour>
      <point x="-28" y="2000" type="move" name="tonos"/>
    </contour>
    <contour>
      <point x="756" y="2216" type="move" name="top"/>
    </contour>
    <contour>
      <point x="716" y="16" type="move" name="bottom"/>
    </contour>
    <contour>
      <point x="1676" y="2200" type="move" name="top_dd"/>
    </contour>
    <contour>
      <point x="1676" y="-560" type="move" name="bottom_dd"/>
    </contour>
    <contour>
      <point x="1676" y="2216" type="move" name="top0315"/>
    </contour>
    <contour>
      <point x="888" y="848" type="line"/>
      <point x="1312" y="848"/>
      <point x="1532" y="1064"/>
      <point x="1532" y="1420" type="curve"/>
      <point x="1532" y="1772"/>
      <point x="1312" y="2004"/>
      <point x="888" y="2004" type="curve"/>
      <point x="260" y="2004" type="line"/>
      <point x="260" y="0" type="line"/>
      <point x="336" y="0" type="line"/>
      <point x="336" y="1928" type="line"/>
      <point x="888" y="1928" type="line"/>
      <point x="1292" y="1928"/>
      <point x="1460" y="1700"/>
      <point x="1460" y="1416" type="curve"/>
      <point x="1460" y="1144"/>
      <point x="1292" y="920"/>
      <point x="888" y="920" type="curve"/>
      <point x="280" y="920" type="line"/>
      <point x="280" y="848" type="line"/>
    </contour>
  </outline>
</glyph>
<glyph name="R" format="1">
  <advance width="1792"/>
  <unicode hex="0052"/>
  <outline>
    <contour>
      <point x="772" y="2216" type="move" name="top"/>
    </contour>
    <contour>
      <point x="772" y="16" type="move" name="bottom"/>
    </contour>
    <contour>
      <point x="1784" y="2200" type="move" name="top_dd"/>
    </contour>
    <contour>
      <point x="1784" y="-560" type="move" name="bottom_dd"/>
    </contour>
    <contour>
      <point x="1784" y="2216" type="move" name="top0315"/>
    </contour>
    <contour>
      <point x="208" y="2004" type="line"/>
      <point x="208" y="0" type="line"/>
      <point x="280" y="0" type="line"/>
      <point x="280" y="1928" type="line"/>
      <point x="844" y="1928" type="line" smooth="yes"/>
      <point x="1200" y="1928"/>
      <point x="1428" y="1740"/>
      <point x="1428" y="1424" type="curve" smooth="yes"/>
      <point x="1428" y="1176"/>
      <point x="1256" y="932"/>
      <point x="912" y="932" type="curve" smooth="yes"/>
      <point x="224" y="932" type="line"/>
      <point x="224" y="856" type="line"/>
      <point x="992" y="856" type="line"/>
      <point x="1036" y="872" type="line"/>
      <point x="1292" y="912"/>
      <point x="1504" y="1132"/>
      <point x="1504" y="1424" type="curve" smooth="yes"/>
      <point x="1504" y="1796"/>
      <point x="1228" y="2004"/>
      <point x="844" y="2004" type="curve" smooth="yes"/>
    </contour>
    <contour>
      <point x="1508" y="0" type="line"/>
      <point x="1588" y="0" type="line"/>
      <point x="1588" y="20" type="line"/>
      <point x="1048" y="888" type="line"/>
      <point x="960" y="884" type="line"/>
    </contour>
  </outline>
</glyph>
<glyph name="S" format="1">
  <advance width="1792"/>
  <unicode hex="0053"/>
  <outline>
    <contour>
      <point x="924" y="2244" type="move" name="top"/>
    </contour>
    <contour>
      <point x="924" y="-16" type="move" name="bottom"/>
    </contour>
    <contour>
      <point x="1720" y="2200" type="move" name="top_dd"/>
    </contour>
    <contour>
      <point x="1720" y="-560" type="move" name="bottom_dd"/>
    </contour>
    <contour>
      <point x="1720" y="2244" type="move" name="top0315"/>
    </contour>
    <contour>
      <point x="1528" y="480" type="curve"/>
      <point x="1528" y="224"/>
      <point x="1276" y="48"/>
      <point x="924" y="48" type="curve" smooth="yes"/>
      <point x="636" y="48"/>
      <point x="260" y="164"/>
      <point x="260" y="564" type="curve"/>
      <point x="188" y="564" type="line"/>
      <point x="188" y="116"/>
      <point x="584" y="-28"/>
      <point x="924" y="-28" type="curve" smooth="yes"/>
      <point x="1300" y="-28"/>
      <point x="1604" y="156"/>
      <point x="1604" y="484" type="curve"/>
      <point x="1604" y="820"/>
      <point x="1328" y="956"/>
      <point x="932" y="1060" type="curve"/>
      <point x="456" y="1184"/>
      <point x="328" y="1332"/>
      <point x="328" y="1544" type="curve"/>
      <point x="328" y="1760"/>
      <point x="540" y="1956"/>
      <point x="916" y="1956" type="curve" smooth="yes"/>
      <point x="1272" y="1956"/>
      <point x="1508" y="1736"/>
      <point x="1508" y="1440" type="curve"/>
      <point x="1584" y="1440" type="line"/>
      <point x="1584" y="1792"/>
      <point x="1304" y="2032"/>
      <point x="916" y="2032" type="curve" smooth="yes"/>
      <point x="540" y="2032"/>
      <point x="252" y="1844"/>
      <point x="252" y="1540" type="curve"/>
      <point x="252" y="1220"/>
      <point x="504" y="1100"/>
      <point x="912" y="988" type="curve" smooth="yes"/>
      <point x="1364" y="864"/>
      <point x="1528" y="732"/>
    </contour>
  </outline>
</glyph>
<glyph name="T" format="1">
  <advance width="1792"/>
  <unicode hex="0054"/>
  <outline>
    <contour>
      <point x="892" y="2208" type="move" name="top"/>
    </contour>
    <contour>
      <point x="896" y="0" type="move" name="bottom"/>
    </contour>
    <contour>
      <point x="936" y="0" type="move" name="right"/>
    </contour>
    <contour>
      <point x="880" y="1200" type="move" name="cross"/>
    </contour>
    <contour>
      <point x="1740" y="2200" type="move" name="top_dd"/>
    </contour>
    <contour>
      <point x="1740" y="-560" type="move" name="bottom_dd"/>
    </contour>
    <contour>
      <point x="1740" y="2208" type="move" name="top0315"/>
    </contour>
    <contour>
      <point x="936" y="2004" type="line"/>
      <point x="860" y="2004" type="line"/>
      <point x="860" y="0" type="line"/>
      <point x="936" y="0" type="line"/>
    </contour>
    <contour>
      <point x="1664" y="2004" type="line"/>
      <point x="132" y="2004" type="line"/>
      <point x="132" y="1928" type="line"/>
      <point x="1664" y="1928" type="line"/>
    </contour>
  </outline>
</glyph>
<glyph name="U" format="1">
  <advance width="1792"/>
  <unicode hex="0055"/>
  <outline>
    <contour>
      <point x="916" y="2216" type="move" name="top"/>
    </contour>
    <contour>
      <point x="896" y="0" type="move" name="bottom"/>
    </contour>
    <contour>
      <point x="1056" y="0" type="move" name="right"/>
    </contour>
    <contour>
      <point x="1244" y="44" type="move" name="ogonek"/>
    </contour>
    <contour>
      <point x="1836" y="2200" type="move" name="top_dd"/>
    </contour>
    <contour>
      <point x="1836" y="-560" type="move" name="bottom_dd"/>
    </contour>
    <contour>
      <point x="1836" y="2216" type="move" name="top0315"/>
    </contour>
    <contour>
      <point x="1508" y="2004" type="line"/>
      <point x="1508" y="644" type="line" smooth="yes"/>
      <point x="1508" y="260"/>
      <point x="1244" y="48"/>
      <point x="896" y="48" type="curve" smooth="yes"/>
      <point x="552" y="48"/>
      <point x="288" y="260"/>
      <point x="288" y="644" type="curve" smooth="yes"/>
      <point x="288" y="2004" type="line"/>
      <point x="212" y="2004" type="line"/>
      <point x="212" y="644" type="line"/>
      <point x="212" y="196"/>
      <point x="508" y="-28"/>
      <point x="896" y="-28" type="curve" smooth="yes"/>
      <point x="1288" y="-28"/>
      <point x="1580" y="196"/>
      <point x="1580" y="644" type="curve"/>
      <point x="1580" y="2004" type="line"/>
    </contour>
  </outline>
</glyph>
<glyph name="V" format="1">
  <advance width="1792"/>
  <unicode hex="0056"/>
  <outline>
    <contour>
      <point x="896" y="2216" type="move" name="top"/>
    </contour>
    <contour>
      <point x="900" y="16" type="move" name="bottom"/>
    </contour>
    <contour>
      <point x="1736" y="2200" type="move" name="top_dd"/>
    </contour>
    <contour>
      <point x="1736" y="-560" type="move" name="bottom_dd"/>
    </contour>
    <contour>
      <point x="1736" y="2216" type="move" name="top0315"/>
    </contour>
    <contour>
      <point x="936" y="196" type="line"/>
      <point x="872" y="0" type="line"/>
      <point x="944" y="0" type="line"/>
      <point x="1692" y="2004" type="line"/>
      <point x="1608" y="2004" type="line"/>
    </contour>
    <contour>
      <point x="184" y="2004" type="line"/>
      <point x="104" y="2004" type="line"/>
      <point x="852" y="0" type="line"/>
      <point x="920" y="0" type="line"/>
      <point x="856" y="196" type="line"/>
    </contour>
  </outline>
</glyph>
<glyph name="W" format="1">
  <advance width="2560"/>
  <unicode hex="0057"/>
  <outline>
    <contour>
      <point x="1280" y="2216" type="move" name="top"/>
    </contour>
    <contour>
      <point x="1280" y="16" type="move" name="bottom"/>
    </contour>
    <contour>
      <point x="2556" y="2200" type="move" name="top_dd"/>
    </contour>
    <contour>
      <point x="2556" y="-560" type="move" name="bottom_dd"/>
    </contour>
    <contour>
      <point x="2556" y="2216" type="move" name="top0315"/>
    </contour>
    <contour>
      <point x="768" y="456" type="line"/>
      <point x="644" y="0" type="line"/>
      <point x="716" y="0" type="line"/>
      <point x="1216" y="1668" type="line"/>
      <point x="1324" y="2004" type="line"/>
      <point x="1244" y="2004" type="line"/>
    </contour>
    <contour>
      <point x="240" y="2004" type="curve"/>
      <point x="156" y="2004" type="line"/>
      <point x="156" y="1792"/>
      <point x="512" y="500"/>
      <point x="632" y="0" type="curve"/>
      <point x="712" y="0" type="line"/>
      <point x="588" y="456" type="line"/>
      <point x="500" y="840"/>
      <point x="240" y="1792"/>
    </contour>
    <contour>
      <point x="1980" y="456" type="curve"/>
      <point x="1852" y="0" type="line"/>
      <point x="1932" y="0" type="line"/>
      <point x="2068" y="500"/>
      <point x="2408" y="1792"/>
      <point x="2408" y="2000" type="curve"/>
      <point x="2328" y="2000" type="line"/>
      <point x="2328" y="1792"/>
      <point x="2080" y="840"/>
    </contour>
    <contour>
      <point x="1324" y="2004" type="line"/>
      <point x="1244" y="2004" type="line"/>
      <point x="1352" y="1668" type="line"/>
      <point x="1848" y="0" type="line"/>
      <point x="1920" y="0" type="line"/>
      <point x="1796" y="456" type="line"/>
    </contour>
  </outline>
</glyph>
<glyph name="X" format="1">
  <advance width="1792"/>
  <unicode hex="0058"/>
  <outline>
    <contour>
      <point x="956" y="16" type="move" name="bottom"/>
    </contour>
    <contour>
      <point x="1596" y="0" type="move" name="right"/>
    </contour>
    <contour>
      <point x="900" y="1028" type="move" name="cross"/>
    </contour>
    <contour>
      <point x="968" y="2216" type="move" name="top"/>
    </contour>
    <contour>
      <point x="1740" y="2200" type="move" name="top_dd"/>
    </contour>
    <contour>
      <point x="1740" y="-560" type="move" name="bottom_dd"/>
    </contour>
    <contour>
      <point x="1740" y="2216" type="move" name="top0315"/>
    </contour>
    <contour>
      <point x="252" y="2004" type="line"/>
      <point x="156" y="2004" type="line"/>
      <point x="848" y="1024" type="line"/>
      <point x="132" y="0" type="line"/>
      <point x="220" y="0" type="line"/>
      <point x="896" y="964" type="line"/>
      <point x="1572" y="0" type="line"/>
      <point x="1664" y="0" type="line"/>
      <point x="944" y="1024" type="line"/>
      <point x="1636" y="2004" type="line"/>
      <point x="1544" y="2004" type="line"/>
      <point x="896" y="1080" type="line"/>
    </contour>
  </outline>
</glyph>
<glyph name="Y" format="1">
  <advance width="1792"/>
  <unicode hex="0059"/>
  <outline>
    <contour>
      <point x="896" y="2200" type="move" name="top"/>
    </contour>
    <contour>
      <point x="900" y="16" type="move" name="bottom"/>
    </contour>
    <contour>
      <point x="896" y="804" type="move" name="cross"/>
    </contour>
    <contour>
      <point x="-40" y="2000" type="move" name="tonos"/>
    </contour>
    <contour>
      <point x="1740" y="2200" type="move" name="top_dd"/>
    </contour>
    <contour>
      <point x="1740" y="-560" type="move" name="bottom_dd"/>
    </contour>
    <contour>
      <point x="1740" y="2200" type="move" name="top0315"/>
    </contour>
    <contour>
      <point x="204" y="2004" type="line"/>
      <point x="104" y="2004" type="line"/>
      <point x="860" y="760" type="line"/>
      <point x="860" y="0" type="line"/>
      <point x="936" y="0" type="line"/>
      <point x="936" y="760" type="line"/>
      <point x="1688" y="2004" type="line"/>
      <point x="1600" y="2004" type="line"/>
      <point x="896" y="828" type="line"/>
    </contour>
  </outline>
</glyph>
<glyph name="Z" format="1">
  <advance width="1792"/>
  <unicode hex="005A"/>
  <outline>
    <contour>
      <point x="892" y="2216" type="move" name="top"/>
    </contour>
    <contour>
      <point x="940" y="16" type="move" name="bottom"/>
    </contour>
    <contour>
      <point x="1740" y="2200" type="move" name="top_dd"/>
    </contour>
    <contour>
      <point x="1740" y="-560" type="move" name="bottom_dd"/>
    </contour>
    <contour>
      <point x="1740" y="2216" type="move" name="top0315"/>
    </contour>
    <contour>
      <point x="1608" y="76" type="line"/>
      <point x="208" y="76" type="line"/>
      <point x="208" y="0" type="line"/>
      <point x="1608" y="0" type="line"/>
    </contour>
    <contour>
      <point x="1564" y="1952" type="line"/>
      <point x="1564" y="2004" type="line"/>
      <point x="1512" y="2004" type="line"/>
      <point x="184" y="60" type="line"/>
      <point x="184" y="0" type="line"/>
      <point x="236" y="0" type="line"/>
    </contour>
    <contour>
      <point x="1528" y="2004" type="line"/>
      <point x="240" y="2004" type="line"/>
      <point x="240" y="1928" type="line"/>
      <point x="1528" y="1928" type="line"/>
    </contour>
  </outline>
</glyph>
<glyph name="bracketleft" format="1">
  <advance width="768"/>
  <unicode hex="005B"/>
  <outline>
    <contour>
      <point x="580" y="2288" type="line"/>
      <point x="192" y="2288" type="line"/>
      <point x="192" y="-428" type="line"/>
      <point x="580" y="-428" type="line"/>
      <point x="580" y="-356" type="line"/>
      <point x="264" y="-356" type="line"/>
      <point x="264" y="2216" type="line"/>
      <point x="580" y="2216" type="line"/>
    </contour>
  </outline>
</glyph>
<glyph name="backslash" format="1">
  <advance width="1280"/>
  <unicode hex="005C"/>
  <outline>
    <contour>
      <point x="1020" y="-172" type="line"/>
      <point x="1100" y="-172" type="line"/>
      <point x="264" y="2004" type="line"/>
      <point x="184" y="2004" type="line"/>
    </contour>
  </outline>
</glyph>
<glyph name="bracketright" format="1">
  <advance width="512"/>
  <unicode hex="005D"/>
  <outline>
    <contour>
      <point x="64" y="2216" type="line"/>
      <point x="376" y="2216" type="line"/>
      <point x="376" y="-356" type="line"/>
      <point x="64" y="-356" type="line"/>
      <point x="64" y="-428" type="line"/>
      <point x="452" y="-428" type="line"/>
      <point x="452" y="2288" type="line"/>
      <point x="64" y="2288" type="line"/>
    </contour>
  </outline>
</glyph>
<glyph name="asciicircum" format="1">
  <advance width="1280"/>
  <unicode hex="005E"/>
  <outline>
    <contour>
      <point x="660" y="1948" type="line"/>
      <point x="672" y="2004" type="line"/>
      <point x="604" y="2004" type="line"/>
      <point x="192" y="1004" type="line"/>
      <point x="276" y="1004" type="line"/>
    </contour>
    <contour>
      <point x="1004" y="1004" type="line"/>
      <point x="1088" y="1004" type="line"/>
      <point x="676" y="2004" type="line"/>
      <point x="608" y="2004" type="line"/>
      <point x="620" y="1948" type="line"/>
    </contour>
  </outline>
</glyph>
<glyph name="underscore" format="1">
  <advance width="1280"/>
  <unicode hex="005F"/>
  <outline>
    <contour>
      <point x="636" y="216" type="move" name="_bottom"/>
    </contour>
    <contour>
      <point x="1224" y="0" type="line"/>
      <point x="60" y="0" type="line"/>
      <point x="60" y="-76" type="line"/>
      <point x="1224" y="-76" type="line"/>
    </contour>
  </outline>
</glyph>
<glyph name="grave" format="1">
  <advance width="768"/>
  <unicode hex="0060"/>
  <outline>
    <contour>
      <point x="500" y="1780" type="move" name="_top"/>
    </contour>
    <contour>
      <point x="500" y="2124" type="move" name="mkmktop_acc"/>
    </contour>
    <contour>
      <point x="300" y="2112" type="line"/>
      <point x="212" y="2112" type="line"/>
      <point x="480" y="1748" type="line"/>
      <point x="560" y="1748" type="line"/>
    </contour>
  </outline>
</glyph>
<glyph name="a" format="1">
  <advance width="1536"/>
  <unicode hex="0061"/>
  <outline>
    <contour>
      <point x="856" y="1776" type="move" name="top"/>
    </contour>
    <contour>
      <point x="760" y="0" type="move" name="bottom"/>
    </contour>
    <contour>
      <point x="1348" y="0" type="move" name="ogonek"/>
    </contour>
    <contour>
      <point x="1028" y="1736" type="move" name="rhalfring"/>
    </contour>
    <contour>
      <point x="1548" y="2200" type="move" name="top_dd"/>
    </contour>
    <contour>
      <point x="1548" y="-560" type="move" name="bottom_dd"/>
    </contour>
    <contour>
      <point x="1272" y="900" type="move" name="rhotichook"/>
    </contour>
    <contour>
      <point x="1548" y="1776" type="move" name="top0315"/>
    </contour>
    <contour>
      <point x="1232" y="280" type="line"/>
      <point x="1232" y="184"/>
      <point x="1240" y="72"/>
      <point x="1260" y="0" type="curve"/>
      <point x="1348" y="0" type="line"/>
      <point x="1348" y="12" type="line"/>
      <point x="1320" y="72"/>
      <point x="1308" y="192"/>
      <point x="1308" y="300" type="curve" smooth="yes"/>
      <point x="1308" y="1044" type="line"/>
      <point x="1308" y="1360"/>
      <point x="1088" y="1516"/>
      <point x="780" y="1516" type="curve" smooth="yes"/>
      <point x="460" y="1516"/>
      <point x="228" y="1312"/>
      <point x="228" y="1080" type="curve"/>
      <point x="304" y="1080" type="line"/>
      <point x="304" y="1284"/>
      <point x="512" y="1440"/>
      <point x="780" y="1440" type="curve" smooth="yes"/>
      <point x="1072" y="1440"/>
      <point x="1232" y="1296"/>
      <point x="1232" y="1048" type="curve"/>
    </contour>
    <contour>
      <point x="1268" y="832" type="line"/>
      <point x="876" y="832" type="line"/>
      <point x="448" y="832"/>
      <point x="192" y="644"/>
      <point x="192" y="376" type="curve" smooth="yes"/>
      <point x="192" y="140"/>
      <point x="372" y="-28"/>
      <point x="648" y="-28" type="curve" smooth="yes"/>
      <point x="1016" y="-28"/>
      <point x="1224" y="192"/>
      <point x="1292" y="396" type="curve"/>
      <point x="1260" y="464" type="line"/>
      <point x="1172" y="208"/>
      <point x="960" y="44"/>
      <point x="648" y="44" type="curve" smooth="yes"/>
      <point x="424" y="44"/>
      <point x="264" y="192"/>
      <point x="264" y="372" type="curve" smooth="yes"/>
      <point x="264" y="596"/>
      <point x="500" y="756"/>
      <point x="880" y="756" type="curve"/>
      <point x="1268" y="756" type="line"/>
    </contour>
  </outline>
</glyph>
<glyph name="b" format="1">
  <advance width="1536"/>
  <unicode hex="0062"/>
  <outline>
    <contour>
      <point x="756" y="2216" type="move" name="top"/>
    </contour>
    <contour>
      <point x="768" y="-16" type="move" name="bottom"/>
    </contour>
    <contour>
      <point x="1504" y="2200" type="move" name="top_dd"/>
    </contour>
    <contour>
      <point x="1504" y="-560" type="move" name="bottom_dd"/>
    </contour>
    <contour>
      <point x="1504" y="2216" type="move" name="top0315"/>
    </contour>
    <contour>
      <point x="200" y="2112" type="line"/>
      <point x="200" y="0" type="line"/>
      <point x="272" y="0" type="line"/>
      <point x="272" y="288" type="line"/>
      <point x="272" y="2112" type="line"/>
    </contour>
    <contour>
      <point x="1340" y="760" type="line"/>
      <point x="1340" y="1228"/>
      <point x="1132" y="1516"/>
      <point x="776" y="1516" type="curve" smooth="yes"/>
      <point x="456" y="1516"/>
      <point x="264" y="1304"/>
      <point x="200" y="1024" type="curve"/>
      <point x="200" y="420" type="line"/>
      <point x="248" y="184"/>
      <point x="444" y="-28"/>
      <point x="780" y="-28" type="curve" smooth="yes"/>
      <point x="1132" y="-28"/>
      <point x="1340" y="276"/>
      <point x="1340" y="732" type="curve" smooth="yes"/>
    </contour>
    <contour>
      <point x="1260" y="732" type="line"/>
      <point x="1260" y="336"/>
      <point x="1104" y="48"/>
      <point x="780" y="48" type="curve" smooth="yes"/>
      <point x="468" y="48"/>
      <point x="300" y="228"/>
      <point x="252" y="452" type="curve"/>
      <point x="252" y="976" type="line"/>
      <point x="292" y="1160"/>
      <point x="404" y="1440"/>
      <point x="780" y="1440" type="curve" smooth="yes"/>
      <point x="1104" y="1440"/>
      <point x="1260" y="1156"/>
      <point x="1260" y="760" type="curve" smooth="yes"/>
    </contour>
  </outline>
</glyph>
<glyph name="c" format="1">
  <advance width="1536"/>
  <unicode hex="0063"/>
  <outline>
    <contour>
      <point x="808" y="1776" type="move" name="top"/>
    </contour>
    <contour>
      <point x="808" y="-16" type="move" name="bottom"/>
    </contour>
    <contour>
      <point x="808" y="1776" type="move" name="marktop"/>
    </contour>
    <contour>
      <point x="1484" y="2200" type="move" name="top_dd"/>
    </contour>
    <contour>
      <point x="1484" y="-560" type="move" name="bottom_dd"/>
    </contour>
    <contour>
      <point x="1484" y="1776" type="move" name="top0315"/>
    </contour>
    <contour>
      <point x="796" y="48" type="curve" smooth="yes"/>
      <point x="428" y="48"/>
      <point x="264" y="344"/>
      <point x="264" y="716" type="curve" smooth="yes"/>
      <point x="264" y="772" type="line" smooth="yes"/>
      <point x="264" y="1144"/>
      <point x="428" y="1440"/>
      <point x="792" y="1440" type="curve"/>
      <point x="1040" y="1440"/>
      <point x="1260" y="1292"/>
      <point x="1272" y="996" type="curve"/>
      <point x="1348" y="996" type="line"/>
      <point x="1336" y="1340"/>
      <point x="1080" y="1516"/>
      <point x="792" y="1516" type="curve" smooth="yes"/>
      <point x="412" y="1516"/>
      <point x="188" y="1208"/>
      <point x="188" y="772" type="curve" smooth="yes"/>
      <point x="188" y="716" type="line" smooth="yes"/>
      <point x="188" y="280"/>
      <point x="412" y="-28"/>
      <point x="796" y="-28" type="curve"/>
      <point x="1088" y="-28"/>
      <point x="1332" y="148"/>
      <point x="1348" y="452" type="curve"/>
      <point x="1272" y="452" type="line"/>
      <point x="1256" y="168"/>
      <point x="1028" y="48"/>
    </contour>
  </outline>
</glyph>
<glyph name="d" format="1">
  <advance width="1536"/>
  <unicode hex="0064"/>
  <outline>
    <contour>
      <point x="1544" y="2112" type="move" name="caron"/>
    </contour>
    <contour>
      <point x="1164" y="1796" type="move" name="cross"/>
    </contour>
    <contour>
      <point x="852" y="0" type="move" name="bottom"/>
    </contour>
    <contour>
      <point x="768" y="2228" type="move" name="top"/>
    </contour>
    <contour>
      <point x="1572" y="2200" type="move" name="top_dd"/>
    </contour>
    <contour>
      <point x="1572" y="-560" type="move" name="bottom_dd"/>
    </contour>
    <contour>
      <point x="1572" y="2228" type="move" name="top0315"/>
    </contour>
    <contour>
      <point x="1264" y="288" type="line"/>
      <point x="1264" y="0" type="line"/>
      <point x="1340" y="0" type="line"/>
      <point x="1340" y="2112" type="line"/>
      <point x="1264" y="2112" type="line"/>
    </contour>
    <contour>
      <point x="200" y="732" type="line"/>
      <point x="200" y="276"/>
      <point x="404" y="-28"/>
      <point x="756" y="-28" type="curve" smooth="yes"/>
      <point x="1092" y="-28"/>
      <point x="1284" y="184"/>
      <point x="1332" y="420" type="curve"/>
      <point x="1332" y="1024" type="line"/>
      <point x="1268" y="1304"/>
      <point x="1084" y="1516"/>
      <point x="760" y="1516" type="curve" smooth="yes"/>
      <point x="404" y="1516"/>
      <point x="200" y="1228"/>
      <point x="200" y="760" type="curve" smooth="yes"/>
    </contour>
    <contour>
      <point x="276" y="760" type="line"/>
      <point x="276" y="1156"/>
      <point x="432" y="1440"/>
      <point x="756" y="1440" type="curve" smooth="yes"/>
      <point x="1132" y="1440"/>
      <point x="1248" y="1160"/>
      <point x="1288" y="976" type="curve"/>
      <point x="1288" y="452" type="line"/>
      <point x="1240" y="228"/>
      <point x="1068" y="48"/>
      <point x="756" y="48" type="curve" smooth="yes"/>
      <point x="432" y="48"/>
      <point x="276" y="336"/>
      <point x="276" y="732" type="curve" smooth="yes"/>
    </contour>
  </outline>
</glyph>
<glyph name="e" format="1">
  <advance width="1536"/>
  <unicode hex="0065"/>
  <outline>
    <contour>
      <point x="836" y="1776" type="move" name="top"/>
    </contour>
    <contour>
      <point x="832" y="8" type="move" name="bottom"/>
    </contour>
    <contour>
      <point x="1200" y="80" type="move" name="ogonek"/>
    </contour>
    <contour>
      <point x="1472" y="2200" type="move" name="top_dd"/>
    </contour>
    <contour>
      <point x="1472" y="-560" type="move" name="bottom_dd"/>
    </contour>
    <contour>
      <point x="1328" y="900" type="move" name="rhotichook"/>
    </contour>
    <contour>
      <point x="1472" y="1776" type="move" name="top0315"/>
    </contour>
    <contour>
      <point x="824" y="-28" type="curve"/>
      <point x="1064" y="-28"/>
      <point x="1220" y="72"/>
      <point x="1320" y="212" type="curve"/>
      <point x="1268" y="252" type="line"/>
      <point x="1144" y="92"/>
      <point x="996" y="44"/>
      <point x="824" y="44" type="curve" smooth="yes"/>
      <point x="500" y="44"/>
      <point x="248" y="340"/>
      <point x="248" y="712" type="curve" smooth="yes"/>
      <point x="248" y="772" type="line" smooth="yes"/>
      <point x="248" y="1140"/>
      <point x="468" y="1440"/>
      <point x="800" y="1440" type="curve"/>
      <point x="1096" y="1440"/>
      <point x="1288" y="1184"/>
      <point x="1288" y="888" type="curve"/>
      <point x="1288" y="868" type="line"/>
      <point x="224" y="868" type="line"/>
      <point x="224" y="792" type="line"/>
      <point x="1364" y="792" type="line"/>
      <point x="1364" y="880" type="line" smooth="yes"/>
      <point x="1364" y="1260"/>
      <point x="1128" y="1516"/>
      <point x="800" y="1516" type="curve" smooth="yes"/>
      <point x="456" y="1516"/>
      <point x="176" y="1208"/>
      <point x="176" y="772" type="curve" smooth="yes"/>
      <point x="176" y="712" type="line" smooth="yes"/>
      <point x="176" y="280"/>
      <point x="464" y="-28"/>
    </contour>
  </outline>
</glyph>
<glyph name="f" format="1">
  <advance width="1024"/>
  <unicode hex="0066"/>
  <outline>
    <contour>
      <point x="724" y="2312" type="move" name="top"/>
    </contour>
    <contour>
      <point x="464" y="16" type="move" name="bottom"/>
    </contour>
    <contour>
      <point x="896" y="2200" type="move" name="top_dd"/>
    </contour>
    <contour>
      <point x="896" y="-560" type="move" name="bottom_dd"/>
    </contour>
    <contour>
      <point x="896" y="2312" type="move" name="top0315"/>
    </contour>
    <contour>
      <point x="436" y="0" type="line"/>
      <point x="436" y="1700" type="line"/>
      <point x="436" y="1932"/>
      <point x="556" y="2068"/>
      <point x="752" y="2068" type="curve" smooth="yes"/>
      <point x="824" y="2068"/>
      <point x="860" y="2060"/>
      <point x="912" y="2048" type="curve"/>
      <point x="924" y="2120" type="line"/>
      <point x="868" y="2136"/>
      <point x="804" y="2140"/>
      <point x="748" y="2140" type="curve" smooth="yes"/>
      <point x="508" y="2140"/>
      <point x="360" y="1984"/>
      <point x="360" y="1700" type="curve"/>
      <point x="360" y="0" type="line"/>
    </contour>
    <contour>
      <point x="828" y="1488" type="line"/>
      <point x="100" y="1488" type="line"/>
      <point x="100" y="1412" type="line"/>
      <point x="828" y="1412" type="line"/>
    </contour>
  </outline>
</glyph>
<glyph name="g" format="1">
  <advance width="1536"/>
  <unicode hex="0067"/>
  <outline>
    <contour>
      <point x="812" y="1776" type="move" name="top"/>
    </contour>
    <contour>
      <point x="796" y="-616" type="move" name="bottom"/>
    </contour>
    <contour>
      <point x="1576" y="2200" type="move" name="top_dd"/>
    </contour>
    <contour>
      <point x="1576" y="-560" type="move" name="bottom_dd"/>
    </contour>
    <contour>
      <point x="1576" y="1776" type="move" name="top0315"/>
    </contour>
    <contour>
      <point x="1264" y="1488" type="line"/>
      <point x="1264" y="1160" type="line"/>
      <point x="1264" y="876"/>
      <point x="1264" y="124"/>
      <point x="1264" y="20" type="curve"/>
      <point x="1264" y="-316"/>
      <point x="1096" y="-528"/>
      <point x="772" y="-528" type="curve" smooth="yes"/>
      <point x="588" y="-528"/>
      <point x="456" y="-448"/>
      <point x="340" y="-300" type="curve"/>
      <point x="288" y="-348" type="line"/>
      <point x="396" y="-496"/>
      <point x="560" y="-600"/>
      <point x="776" y="-600" type="curve" smooth="yes"/>
      <point x="1128" y="-600"/>
      <point x="1340" y="-360"/>
      <point x="1340" y="20" type="curve" smooth="yes"/>
      <point x="1340" y="1488" type="line"/>
    </contour>
    <contour>
      <point x="200" y="732" type="line"/>
      <point x="200" y="276"/>
      <point x="404" y="-28"/>
      <point x="756" y="-28" type="curve" smooth="yes"/>
      <point x="1092" y="-28"/>
      <point x="1288" y="184"/>
      <point x="1332" y="420" type="curve"/>
      <point x="1332" y="1024" type="line"/>
      <point x="1268" y="1304"/>
      <point x="1084" y="1516"/>
      <point x="760" y="1516" type="curve" smooth="yes"/>
      <point x="408" y="1516"/>
      <point x="200" y="1228"/>
      <point x="200" y="760" type="curve" smooth="yes"/>
    </contour>
    <contour>
      <point x="276" y="760" type="line"/>
      <point x="276" y="1156"/>
      <point x="432" y="1440"/>
      <point x="760" y="1440" type="curve" smooth="yes"/>
      <point x="1132" y="1440"/>
      <point x="1244" y="1160"/>
      <point x="1284" y="976" type="curve"/>
      <point x="1284" y="452" type="line"/>
      <point x="1236" y="228"/>
      <point x="1068" y="48"/>
      <point x="756" y="48" type="curve" smooth="yes"/>
      <point x="432" y="48"/>
      <point x="276" y="336"/>
      <point x="276" y="732" type="curve" smooth="yes"/>
    </contour>
  </outline>
</glyph>
<glyph name="h" format="1">
  <advance width="1536"/>
  <unicode hex="0068"/>
  <outline>
    <contour>
      <point x="644" y="2216" type="move" name="top"/>
    </contour>
    <contour>
      <point x="448" y="1796" type="move" name="cross"/>
    </contour>
    <contour>
      <point x="780" y="16" type="move" name="bottom"/>
    </contour>
    <contour>
      <point x="1308" y="0" type="move" name="right"/>
    </contour>
    <contour>
      <point x="1536" y="2200" type="move" name="top_dd"/>
    </contour>
    <contour>
      <point x="1536" y="-560" type="move" name="bottom_dd"/>
    </contour>
    <contour>
      <point x="1536" y="2216" type="move" name="top0315"/>
    </contour>
    <contour>
      <point x="304" y="2112" type="line"/>
      <point x="232" y="2112" type="line"/>
      <point x="232" y="0" type="line"/>
      <point x="304" y="0" type="line"/>
    </contour>
    <contour>
      <point x="292" y="872" type="line"/>
      <point x="304" y="1048"/>
      <point x="456" y="1444"/>
      <point x="828" y="1444" type="curve"/>
      <point x="1064" y="1444"/>
      <point x="1232" y="1340"/>
      <point x="1232" y="964" type="curve" smooth="yes"/>
      <point x="1232" y="0" type="line"/>
      <point x="1308" y="0" type="line"/>
      <point x="1308" y="964" type="line" smooth="yes"/>
      <point x="1308" y="1356"/>
      <point x="1136" y="1516"/>
      <point x="832" y="1516" type="curve" smooth="yes"/>
      <point x="512" y="1516"/>
      <point x="292" y="1244"/>
      <point x="252" y="952" type="curve"/>
    </contour>
  </outline>
</glyph>
<glyph name="i" format="1">
  <advance width="512"/>
  <unicode hex="0069"/>
  <outline>
    <contour>
      <point x="252" y="16" type="move" name="bottom"/>
    </contour>
    <contour>
      <point x="292" y="0" type="move" name="ogonek"/>
    </contour>
    <contour>
      <point x="264" y="2200" type="move" name="top"/>
    </contour>
    <contour>
      <point x="544" y="2200" type="move" name="top_dd"/>
    </contour>
    <contour>
      <point x="544" y="-560" type="move" name="bottom_dd"/>
    </contour>
    <contour>
      <point x="256" y="900" type="move" name="rhotichook"/>
    </contour>
    <contour>
      <point x="544" y="2200" type="move" name="top0315"/>
    </contour>
    <contour>
      <point x="292" y="1488" type="line"/>
      <point x="220" y="1488" type="line"/>
      <point x="220" y="0" type="line"/>
      <point x="292" y="0" type="line"/>
    </contour>
    <contour>
      <point x="180" y="1952" type="curve" smooth="yes"/>
      <point x="180" y="1912"/>
      <point x="212" y="1876"/>
      <point x="256" y="1876" type="curve" smooth="yes"/>
      <point x="300" y="1876"/>
      <point x="332" y="1912"/>
      <point x="332" y="1952" type="curve" smooth="yes"/>
      <point x="332" y="1996"/>
      <point x="300" y="2032"/>
      <point x="256" y="2032" type="curve" smooth="yes"/>
      <point x="212" y="2032"/>
      <point x="180" y="1996"/>
    </contour>
  </outline>
</glyph>
<glyph name="j" format="1">
  <advance width="512"/>
  <unicode hex="006A"/>
  <outline>
    <contour>
      <point x="472" y="2200" type="move" name="top"/>
    </contour>
    <contour>
      <point x="428" y="-632" type="move" name="bottom"/>
    </contour>
    <contour>
      <point x="780" y="2200" type="move" name="top_dd"/>
    </contour>
    <contour>
      <point x="780" y="-560" type="move" name="bottom_dd"/>
    </contour>
    <contour>
      <point x="780" y="2200" type="move" name="top0315"/>
    </contour>
    <contour>
      <point x="424" y="1488" type="line"/>
      <point x="424" y="-176" type="line"/>
      <point x="424" y="-400"/>
      <point x="308" y="-528"/>
      <point x="104" y="-528" type="curve" smooth="yes"/>
      <point x="52" y="-528"/>
      <point x="4" y="-512"/>
      <point x="-28" y="-504" type="curve"/>
      <point x="-32" y="-572" type="line"/>
      <point x="12" y="-592"/>
      <point x="56" y="-600"/>
      <point x="104" y="-600" type="curve" smooth="yes"/>
      <point x="352" y="-600"/>
      <point x="496" y="-452"/>
      <point x="496" y="-176" type="curve"/>
      <point x="496" y="1488" type="line"/>
    </contour>
    <contour>
      <point x="392" y="1952" type="curve" smooth="yes"/>
      <point x="392" y="1912"/>
      <point x="424" y="1876"/>
      <point x="468" y="1876" type="curve" smooth="yes"/>
      <point x="508" y="1876"/>
      <point x="544" y="1912"/>
      <point x="544" y="1952" type="curve" smooth="yes"/>
      <point x="544" y="1996"/>
      <point x="508" y="2032"/>
      <point x="468" y="2032" type="curve" smooth="yes"/>
      <point x="424" y="2032"/>
      <point x="392" y="1996"/>
    </contour>
  </outline>
</glyph>
<glyph name="k" format="1">
  <advance width="1536"/>
  <unicode hex="006B"/>
  <outline>
    <contour>
      <point x="708" y="156" type="move" name="bottom"/>
    </contour>
    <contour>
      <point x="464" y="1772" type="move" name="cross"/>
    </contour>
    <contour>
      <point x="744" y="2216" type="move" name="top"/>
    </contour>
    <contour>
      <point x="744" y="2216" type="move" name="marktop"/>
    </contour>
    <contour>
      <point x="1328" y="2200" type="move" name="top_dd"/>
    </contour>
    <contour>
      <point x="1328" y="-560" type="move" name="bottom_dd"/>
    </contour>
    <contour>
      <point x="1148" y="2216" type="move" name="top0315"/>
    </contour>
    <contour>
      <point x="308" y="2112" type="line"/>
      <point x="232" y="2112" type="line"/>
      <point x="232" y="0" type="line"/>
      <point x="308" y="0" type="line"/>
    </contour>
    <contour>
      <point x="1264" y="1488" type="line"/>
      <point x="1156" y="1488" type="line"/>
      <point x="480" y="864" type="line"/>
      <point x="264" y="660" type="line"/>
      <point x="292" y="604" type="line"/>
      <point x="524" y="804" type="line"/>
    </contour>
    <contour>
      <point x="1208" y="0" type="line"/>
      <point x="1304" y="0" type="line"/>
      <point x="548" y="896" type="line"/>
      <point x="500" y="836" type="line"/>
    </contour>
  </outline>
</glyph>
<glyph name="l" format="1">
  <advance width="512"/>
  <unicode hex="006C"/>
  <outline>
    <contour>
      <point x="260" y="2300" type="move" name="top"/>
    </contour>
    <contour>
      <point x="260" y="16" type="move" name="bottom"/>
    </contour>
    <contour>
      <point x="540" y="2112" type="move" name="caron"/>
    </contour>
    <contour>
      <point x="512" y="1092" type="move" name="dot"/>
    </contour>
    <contour>
      <point x="616" y="2068" type="move" name="marktop"/>
    </contour>
    <contour>
      <point x="544" y="2200" type="move" name="top_dd"/>
    </contour>
    <contour>
      <point x="544" y="-560" type="move" name="bottom_dd"/>
    </contour>
    <contour>
      <point x="544" y="2300" type="move" name="top0315"/>
    </contour>
    <contour>
      <point x="296" y="2112" type="line"/>
      <point x="220" y="2112" type="line"/>
      <point x="220" y="0" type="line"/>
      <point x="296" y="0" type="line"/>
    </contour>
  </outline>
</glyph>
<glyph name="m" format="1">
  <advance width="2560"/>
  <unicode hex="006D"/>
  <outline>
    <contour>
      <point x="1276" y="1776" type="move" name="top"/>
    </contour>
    <contour>
      <point x="1276" y="16" type="move" name="bottom"/>
    </contour>
    <contour>
      <point x="1276" y="1776" type="move" name="marktop"/>
    </contour>
    <contour>
      <point x="2540" y="2200" type="move" name="top_dd"/>
    </contour>
    <contour>
      <point x="2540" y="-560" type="move" name="bottom_dd"/>
    </contour>
    <contour>
      <point x="2540" y="1776" type="move" name="top0315"/>
    </contour>
    <contour>
      <point x="312" y="1168" type="line"/>
      <point x="312" y="1488" type="line"/>
      <point x="236" y="1488" type="line"/>
      <point x="236" y="0" type="line"/>
      <point x="312" y="0" type="line"/>
    </contour>
    <contour>
      <point x="304" y="872" type="line"/>
      <point x="316" y="1048"/>
      <point x="460" y="1444"/>
      <point x="836" y="1444" type="curve" smooth="yes"/>
      <point x="1072" y="1444"/>
      <point x="1244" y="1348"/>
      <point x="1244" y="992" type="curve" smooth="yes"/>
      <point x="1244" y="0" type="line"/>
      <point x="1316" y="0" type="line"/>
      <point x="1316" y="992" type="line" smooth="yes"/>
      <point x="1316" y="1364"/>
      <point x="1140" y="1516"/>
      <point x="840" y="1516" type="curve" smooth="yes"/>
      <point x="516" y="1516"/>
      <point x="300" y="1244"/>
      <point x="264" y="952" type="curve"/>
    </contour>
    <contour>
      <point x="1316" y="992" type="line"/>
      <point x="1332" y="1152"/>
      <point x="1492" y="1440"/>
      <point x="1844" y="1444" type="curve" smooth="yes"/>
      <point x="2080" y="1444"/>
      <point x="2252" y="1340"/>
      <point x="2252" y="964" type="curve" smooth="yes"/>
      <point x="2252" y="0" type="line"/>
      <point x="2324" y="0" type="line"/>
      <point x="2324" y="964" type="line" smooth="yes"/>
      <point x="2324" y="1356"/>
      <point x="2148" y="1516"/>
      <point x="1848" y="1516" type="curve" smooth="yes"/>
      <point x="1524" y="1516"/>
      <point x="1304" y="1288"/>
      <point x="1264" y="1036" type="curve"/>
    </contour>
  </outline>
</glyph>
<glyph name="n" format="1">
  <advance width="1536"/>
  <unicode hex="006E"/>
  <outline>
    <contour>
      <point x="788" y="1776" type="move" name="top"/>
    </contour>
    <contour>
      <point x="788" y="16" type="move" name="bottom"/>
    </contour>
    <contour>
      <point x="-8" y="2112" type="move" name="caron"/>
    </contour>
    <contour>
      <point x="1304" y="0" type="move" name="right"/>
    </contour>
    <contour>
      <point x="788" y="1776" type="move" name="marktop"/>
    </contour>
    <contour>
      <point x="1536" y="2200" type="move" name="top_dd"/>
    </contour>
    <contour>
      <point x="1536" y="-560" type="move" name="bottom_dd"/>
    </contour>
    <contour>
      <point x="1536" y="1776" type="move" name="top0315"/>
    </contour>
    <contour>
      <point x="304" y="1172" type="line"/>
      <point x="304" y="1488" type="line"/>
      <point x="232" y="1488" type="line"/>
      <point x="232" y="0" type="line"/>
      <point x="304" y="0" type="line"/>
    </contour>
    <contour>
      <point x="292" y="872" type="line"/>
      <point x="304" y="1048"/>
      <point x="456" y="1444"/>
      <point x="828" y="1444" type="curve" smooth="yes"/>
      <point x="1064" y="1444"/>
      <point x="1232" y="1340"/>
      <point x="1232" y="964" type="curve" smooth="yes"/>
      <point x="1232" y="0" type="line"/>
      <point x="1308" y="0" type="line"/>
      <point x="1308" y="964" type="line" smooth="yes"/>
      <point x="1308" y="1356"/>
      <point x="1136" y="1516"/>
      <point x="832" y="1516" type="curve" smooth="yes"/>
      <point x="512" y="1516"/>
      <point x="292" y="1244"/>
      <point x="252" y="952" type="curve"/>
    </contour>
  </outline>
</glyph>
<glyph name="o" format="1">
  <advance width="1792"/>
  <unicode hex="006F"/>
  <outline>
    <contour>
      <point x="900" y="1776" type="move" name="top"/>
    </contour>
    <contour>
      <point x="900" y="-16" type="move" name="bottom"/>
    </contour>
    <contour>
      <point x="1672" y="2200" type="move" name="top_dd"/>
    </contour>
    <contour>
      <point x="1672" y="-560" type="move" name="bottom_dd"/>
    </contour>
    <contour>
      <point x="1504" y="900" type="move" name="rhotichook"/>
    </contour>
    <contour>
      <point x="1672" y="1776" type="move" name="top0315"/>
    </contour>
    <contour>
      <point x="244" y="716" type="line"/>
      <point x="244" y="280"/>
      <point x="512" y="-28"/>
      <point x="900" y="-28" type="curve" smooth="yes"/>
      <point x="1284" y="-28"/>
      <point x="1548" y="280"/>
      <point x="1548" y="716" type="curve"/>
      <point x="1548" y="772" type="line"/>
      <point x="1548" y="1208"/>
      <point x="1284" y="1516"/>
      <point x="896" y="1516" type="curve" smooth="yes"/>
      <point x="512" y="1516"/>
      <point x="244" y="1208"/>
      <point x="244" y="772" type="curve"/>
    </contour>
    <contour>
      <point x="320" y="772" type="line"/>
      <point x="320" y="1120"/>
      <point x="532" y="1440"/>
      <point x="896" y="1440" type="curve" smooth="yes"/>
      <point x="1260" y="1440"/>
      <point x="1472" y="1120"/>
      <point x="1472" y="772" type="curve"/>
      <point x="1472" y="716" type="line"/>
      <point x="1472" y="360"/>
      <point x="1260" y="48"/>
      <point x="900" y="48" type="curve" smooth="yes"/>
      <point x="532" y="48"/>
      <point x="320" y="360"/>
      <point x="320" y="716" type="curve"/>
    </contour>
  </outline>
</glyph>
<glyph name="p" format="1">
  <advance width="1536"/>
  <unicode hex="0070"/>
  <outline>
    <contour>
      <point x="768" y="1760" type="move" name="top"/>
    </contour>
    <contour>
      <point x="232" y="-560" type="move" name="bottom"/>
    </contour>
    <contour>
      <point x="768" y="1760" type="move" name="marktop"/>
    </contour>
    <contour>
      <point x="1504" y="2200" type="move" name="top_dd"/>
    </contour>
    <contour>
      <point x="1504" y="-560" type="move" name="bottom_dd"/>
    </contour>
    <contour>
      <point x="1504" y="1760" type="move" name="top0315"/>
    </contour>
    <contour>
      <point x="272" y="1204" type="line"/>
      <point x="272" y="1488" type="line"/>
      <point x="200" y="1488" type="line"/>
      <point x="200" y="-572" type="line"/>
      <point x="272" y="-572" type="line"/>
      <point x="272" y="324" type="line"/>
      <point x="272" y="712" type="line"/>
      <point x="272" y="1124" type="line"/>
    </contour>
    <contour>
      <point x="1340" y="760" type="line"/>
      <point x="1340" y="1228"/>
      <point x="1132" y="1516"/>
      <point x="776" y="1516" type="curve" smooth="yes"/>
      <point x="456" y="1516"/>
      <point x="264" y="1304"/>
      <point x="200" y="1024" type="curve"/>
      <point x="200" y="420" type="line"/>
      <point x="244" y="184"/>
      <point x="444" y="-28"/>
      <point x="780" y="-28" type="curve" smooth="yes"/>
      <point x="1132" y="-28"/>
      <point x="1340" y="276"/>
      <point x="1340" y="732" type="curve" smooth="yes"/>
    </contour>
    <contour>
      <point x="1264" y="732" type="line"/>
      <point x="1264" y="336"/>
      <point x="1104" y="48"/>
      <point x="780" y="48" type="curve" smooth="yes"/>
      <point x="468" y="48"/>
      <point x="296" y="228"/>
      <point x="248" y="456" type="curve"/>
      <point x="248" y="976" type="line"/>
      <point x="288" y="1160"/>
      <point x="404" y="1440"/>
      <point x="780" y="1440" type="curve" smooth="yes"/>
      <point x="1104" y="1440"/>
      <point x="1264" y="1156"/>
      <point x="1264" y="760" type="curve" smooth="yes"/>
    </contour>
  </outline>
</glyph>
<glyph name="r" format="1">
  <advance width="1024"/>
  <unicode hex="0072"/>
  <outline>
    <contour>
      <point x="508" y="1776" type="move" name="top"/>
    </contour>
    <contour>
      <point x="216" y="28" type="move" name="bottom"/>
    </contour>
    <contour>
      <point x="884" y="2200" type="move" name="top_dd"/>
    </contour>
    <contour>
      <point x="884" y="-560" type="move" name="bottom_dd"/>
    </contour>
    <contour>
      <point x="884" y="1776" type="move" name="top0315"/>
    </contour>
    <contour>
      <point x="252" y="1232" type="line"/>
      <point x="252" y="1488" type="line"/>
      <point x="180" y="1488" type="line"/>
      <point x="180" y="0" type="line"/>
      <point x="252" y="0" type="line"/>
    </contour>
    <contour>
      <point x="844" y="1504" type="line"/>
      <point x="820" y="1512"/>
      <point x="780" y="1512"/>
      <point x="740" y="1512" type="curve"/>
      <point x="508" y="1512"/>
      <point x="356" y="1400"/>
      <point x="268" y="1216" type="curve" smooth="yes"/>
      <point x="260" y="1200"/>
      <point x="260" y="1176"/>
      <point x="252" y="1176" type="curve" smooth="yes"/>
      <point x="204" y="1176"/>
      <point x="188" y="936"/>
      <point x="188" y="792" type="curve"/>
      <point x="236" y="800" type="line"/>
      <point x="236" y="1152"/>
      <point x="404" y="1440"/>
      <point x="740" y="1440" type="curve"/>
      <point x="772" y="1440"/>
      <point x="804" y="1440"/>
      <point x="836" y="1432" type="curve"/>
    </contour>
  </outline>
</glyph>
<glyph name="s" format="1">
  <advance width="1280"/>
  <unicode hex="0073"/>
  <outline>
    <contour>
      <point x="656" y="1776" type="move" name="top"/>
    </contour>
    <contour>
      <point x="656" y="-8" type="move" name="bottom"/>
    </contour>
    <contour>
      <point x="1352" y="2200" type="move" name="top_dd"/>
    </contour>
    <contour>
      <point x="1352" y="-560" type="move" name="bottom_dd"/>
    </contour>
    <contour>
      <point x="1352" y="1776" type="move" name="top0315"/>
    </contour>
    <contour>
      <point x="1108" y="364" type="curve" smooth="yes"/>
      <point x="1108" y="208"/>
      <point x="952" y="48"/>
      <point x="656" y="48" type="curve" smooth="yes"/>
      <point x="444" y="48"/>
      <point x="192" y="124"/>
      <point x="176" y="380" type="curve"/>
      <point x="100" y="380" type="line"/>
      <point x="100" y="160"/>
      <point x="296" y="-28"/>
      <point x="656" y="-28" type="curve" smooth="yes"/>
      <point x="980" y="-28"/>
      <point x="1180" y="132"/>
      <point x="1180" y="364" type="curve"/>
      <point x="1180" y="596"/>
      <point x="1028" y="716"/>
      <point x="676" y="796" type="curve" smooth="yes"/>
      <point x="288" y="884"/>
      <point x="224" y="992"/>
      <point x="224" y="1144" type="curve"/>
      <point x="224" y="1284"/>
      <point x="344" y="1440"/>
      <point x="648" y="1440" type="curve" smooth="yes"/>
      <point x="940" y="1440"/>
      <point x="1104" y="1276"/>
      <point x="1104" y="1092" type="curve"/>
      <point x="1180" y="1092" type="line"/>
      <point x="1180" y="1344"/>
      <point x="980" y="1516"/>
      <point x="648" y="1516" type="curve" smooth="yes"/>
      <point x="336" y="1516"/>
      <point x="148" y="1348"/>
      <point x="148" y="1140" type="curve"/>
      <point x="148" y="896"/>
      <point x="320" y="804"/>
      <point x="652" y="732" type="curve" smooth="yes"/>
      <point x="1020" y="652"/>
      <point x="1108" y="500"/>
    </contour>
  </outline>
</glyph>
<glyph name="t" format="1">
  <advance width="1024"/>
  <unicode hex="0074"/>
  <outline>
    <contour>
      <point x="660" y="0" type="move" name="bottom"/>
    </contour>
    <contour>
      <point x="752" y="2144" type="move" name="caron"/>
    </contour>
    <contour>
      <point x="560" y="908" type="move" name="cross"/>
    </contour>
    <contour>
      <point x="460" y="2120" type="move" name="top"/>
    </contour>
    <contour>
      <point x="788" y="1776" type="move" name="marktop"/>
    </contour>
    <contour>
      <point x="984" y="2200" type="move" name="top_dd"/>
    </contour>
    <contour>
      <point x="984" y="-560" type="move" name="bottom_dd"/>
    </contour>
    <contour>
      <point x="984" y="2120" type="move" name="top0315"/>
    </contour>
    <contour>
      <point x="836" y="1488" type="line"/>
      <point x="144" y="1488" type="line"/>
      <point x="144" y="1412" type="line"/>
      <point x="836" y="1412" type="line"/>
    </contour>
    <contour>
      <point x="420" y="1888" type="line"/>
      <point x="420" y="356" type="line"/>
      <point x="420" y="60"/>
      <point x="536" y="-28"/>
      <point x="724" y="-28" type="curve" smooth="yes"/>
      <point x="764" y="-28"/>
      <point x="840" y="-24"/>
      <point x="880" y="-12" type="curve"/>
      <point x="868" y="60" type="line"/>
      <point x="816" y="52"/>
      <point x="776" y="48"/>
      <point x="720" y="48" type="curve" smooth="yes"/>
      <point x="600" y="48"/>
      <point x="496" y="96"/>
      <point x="496" y="356" type="curve"/>
      <point x="496" y="1888" type="line"/>
    </contour>
  </outline>
</glyph>
<glyph name="u" format="1">
  <advance width="1536"/>
  <unicode hex="0075"/>
  <outline>
    <contour>
      <point x="796" y="1780" type="move" name="top"/>
    </contour>
    <contour>
      <point x="1308" y="0" type="move" name="ogonek"/>
    </contour>
    <contour>
      <point x="704" y="0" type="move" name="bottomu"/>
    </contour>
    <contour>
      <point x="1540" y="2200" type="move" name="top_dd"/>
    </contour>
    <contour>
      <point x="1540" y="-560" type="move" name="bottom_dd"/>
    </contour>
    <contour>
      <point x="1268" y="900" type="move" name="rhotichook"/>
    </contour>
    <contour>
      <point x="1540" y="1780" type="move" name="top0315"/>
    </contour>
    <contour>
      <point x="768" y="0" type="move" name="bottom"/>
    </contour>
    <contour>
      <point x="1232" y="344" type="line"/>
      <point x="1232" y="0" type="line"/>
      <point x="1308" y="0" type="line"/>
      <point x="1308" y="1488" type="line"/>
      <point x="1232" y="1488" type="line"/>
    </contour>
    <contour>
      <point x="1244" y="584" type="line"/>
      <point x="1244" y="312"/>
      <point x="1116" y="48"/>
      <point x="716" y="48" type="curve" smooth="yes"/>
      <point x="480" y="48"/>
      <point x="304" y="176"/>
      <point x="304" y="540" type="curve"/>
      <point x="304" y="1488" type="line"/>
      <point x="228" y="1488" type="line"/>
      <point x="228" y="544" type="line"/>
      <point x="228" y="128"/>
      <point x="428" y="-28"/>
      <point x="720" y="-28" type="curve" smooth="yes"/>
      <point x="1128" y="-28"/>
      <point x="1308" y="232"/>
      <point x="1308" y="584" type="curve"/>
    </contour>
  </outline>
</glyph>
<glyph name="v" format="1">
  <advance width="1536"/>
  <unicode hex="0076"/>
  <outline>
    <contour>
      <point x="776" y="1760" type="move" name="top"/>
    </contour>
    <contour>
      <point x="768" y="16" type="move" name="bottom"/>
    </contour>
    <contour>
      <point x="1440" y="2200" type="move" name="top_dd"/>
    </contour>
    <contour>
      <point x="1440" y="-560" type="move" name="bottom_dd"/>
    </contour>
    <contour>
      <point x="1440" y="1760" type="move" name="top0315"/>
    </contour>
    <contour>
      <point x="1384" y="1488" type="line"/>
      <point x="1304" y="1488" type="line"/>
      <point x="776" y="136" type="line"/>
      <point x="776" y="120" type="line"/>
      <point x="760" y="120" type="line"/>
      <point x="760" y="136" type="line"/>
      <point x="232" y="1488" type="line"/>
      <point x="152" y="1488" type="line"/>
      <point x="736" y="0" type="line"/>
      <point x="808" y="0" type="line"/>
    </contour>
  </outline>
</glyph>
<glyph name="w" format="1">
  <advance width="2048"/>
  <unicode hex="0077"/>
  <outline>
    <contour>
      <point x="1020" y="1780" type="move" name="top"/>
    </contour>
    <contour>
      <point x="1024" y="16" type="move" name="bottom"/>
    </contour>
    <contour>
      <point x="1020" y="1780" type="move" name="marktop"/>
    </contour>
    <contour>
      <point x="2096" y="2200" type="move" name="top_dd"/>
    </contour>
    <contour>
      <point x="2096" y="-560" type="move" name="bottom_dd"/>
    </contour>
    <contour>
      <point x="2096" y="1780" type="move" name="top0315"/>
    </contour>
    <contour>
      <point x="652" y="432" type="line"/>
      <point x="516" y="0" type="line"/>
      <point x="588" y="0" type="line"/>
      <point x="948" y="1120" type="line"/>
      <point x="1052" y="1488" type="line"/>
      <point x="988" y="1488" type="line"/>
    </contour>
    <contour>
      <point x="164" y="1488" type="line"/>
      <point x="80" y="1488" type="line"/>
      <point x="512" y="0" type="line"/>
      <point x="580" y="0" type="line"/>
      <point x="468" y="432" type="line"/>
    </contour>
    <contour>
      <point x="1580" y="432" type="line"/>
      <point x="1468" y="0" type="line"/>
      <point x="1536" y="0" type="line"/>
      <point x="1968" y="1488" type="line"/>
      <point x="1880" y="1488" type="line"/>
    </contour>
    <contour>
      <point x="1064" y="1488" type="line"/>
      <point x="996" y="1488" type="line"/>
      <point x="1096" y="1120" type="line"/>
      <point x="1460" y="0" type="line"/>
      <point x="1532" y="0" type="line"/>
      <point x="1396" y="432" type="line"/>
    </contour>
  </outline>
</glyph>
<glyph name="x" format="1">
  <advance width="1536"/>
  <unicode hex="0078"/>
  <outline>
    <contour>
      <point x="804" y="16" type="move" name="bottom"/>
    </contour>
    <contour>
      <point x="1320" y="0" type="move" name="right"/>
    </contour>
    <contour>
      <point x="784" y="760" type="move" name="cross"/>
    </contour>
    <contour>
      <point x="792" y="1760" type="move" name="top"/>
    </contour>
    <contour>
      <point x="1440" y="2200" type="move" name="top_dd"/>
    </contour>
    <contour>
      <point x="1440" y="-560" type="move" name="bottom_dd"/>
    </contour>
    <contour>
      <point x="1440" y="1760" type="move" name="top0315"/>
    </contour>
    <contour>
      <point x="292" y="1488" type="line"/>
      <point x="200" y="1488" type="line"/>
      <point x="724" y="764" type="line"/>
      <point x="172" y="0" type="line"/>
      <point x="264" y="0" type="line"/>
      <point x="768" y="700" type="line"/>
      <point x="1272" y="0" type="line"/>
      <point x="1364" y="0" type="line"/>
      <point x="816" y="764" type="line"/>
      <point x="1336" y="1488" type="line"/>
      <point x="1244" y="1488" type="line"/>
      <point x="768" y="828" type="line"/>
    </contour>
  </outline>
</glyph>
<glyph name="y" format="1">
  <advance width="1536"/>
  <unicode hex="0079"/>
  <outline>
    <contour>
      <point x="804" y="1780" type="move" name="top"/>
    </contour>
    <contour>
      <point x="1076" y="-216" type="move" name="bottom"/>
    </contour>
    <contour>
      <point x="804" y="1780" type="move" name="marktop"/>
    </contour>
    <contour>
      <point x="1436" y="2200" type="move" name="top_dd"/>
    </contour>
    <contour>
      <point x="1436" y="-560" type="move" name="bottom_dd"/>
    </contour>
    <contour>
      <point x="1120" y="900" type="move" name="rhotichook"/>
    </contour>
    <contour>
      <point x="1436" y="1780" type="move" name="top0315"/>
    </contour>
    <contour>
      <point x="792" y="144" type="line"/>
      <point x="652" y="-236" type="line" smooth="yes"/>
      <point x="588" y="-408"/>
      <point x="508" y="-528"/>
      <point x="324" y="-528" type="curve" smooth="yes"/>
      <point x="308" y="-528"/>
      <point x="252" y="-524"/>
      <point x="224" y="-516" type="curve"/>
      <point x="224" y="-588" type="line"/>
      <point x="248" y="-596"/>
      <point x="304" y="-600"/>
      <point x="336" y="-600" type="curve" smooth="yes"/>
      <point x="608" y="-600"/>
      <point x="680" y="-372"/>
      <point x="728" y="-248" type="curve" smooth="yes"/>
      <point x="1388" y="1488" type="line"/>
      <point x="1308" y="1488" type="line"/>
    </contour>
    <contour>
      <point x="232" y="1488" type="line"/>
      <point x="148" y="1488" type="line"/>
      <point x="756" y="-28" type="line"/>
      <point x="816" y="16" type="line"/>
      <point x="792" y="88" type="line"/>
    </contour>
  </outline>
</glyph>
<glyph name="z" format="1">
  <advance width="1536"/>
  <unicode hex="007A"/>
  <outline>
    <contour>
      <point x="772" y="1780" type="move" name="top"/>
    </contour>
    <contour>
      <point x="812" y="16" type="move" name="bottom"/>
    </contour>
    <contour>
      <point x="1416" y="2200" type="move" name="top_dd"/>
    </contour>
    <contour>
      <point x="1416" y="-560" type="move" name="bottom_dd"/>
    </contour>
    <contour>
      <point x="1416" y="1780" type="move" name="top0315"/>
    </contour>
    <contour>
      <point x="1348" y="76" type="line"/>
      <point x="208" y="76" type="line"/>
      <point x="208" y="0" type="line"/>
      <point x="1348" y="0" type="line"/>
    </contour>
    <contour>
      <point x="1268" y="1424" type="line"/>
      <point x="1268" y="1488" type="line"/>
      <point x="1220" y="1488" type="line"/>
      <point x="188" y="60" type="line"/>
      <point x="188" y="0" type="line"/>
      <point x="236" y="0" type="line"/>
    </contour>
    <contour>
      <point x="1232" y="1488" type="line"/>
      <point x="232" y="1488" type="line"/>
      <point x="232" y="1412" type="line"/>
      <point x="1232" y="1412" type="line"/>
    </contour>
  </outline>
</glyph>
<glyph name="braceleft" format="1">
  <advance width="1024"/>
  <unicode hex="007B"/>
  <outline>
    <contour>
      <point x="892" y="2196" type="line"/>
      <point x="556" y="2092"/>
      <point x="452" y="1844"/>
      <point x="452" y="1556" type="curve"/>
      <point x="452" y="1216" type="line"/>
      <point x="452" y="988"/>
      <point x="352" y="836"/>
      <point x="108" y="836" type="curve"/>
      <point x="108" y="780" type="line"/>
      <point x="408" y="780"/>
      <point x="524" y="972"/>
      <point x="524" y="1216" type="curve"/>
      <point x="524" y="1556" type="line"/>
      <point x="524" y="1832"/>
      <point x="640" y="2048"/>
      <point x="912" y="2136" type="curve"/>
    </contour>
    <contour>
      <point x="916" y="-544" type="line"/>
      <point x="648" y="-452"/>
      <point x="524" y="-248"/>
      <point x="524" y="28" type="curve" smooth="yes"/>
      <point x="524" y="364" type="line" smooth="yes"/>
      <point x="524" y="612"/>
      <point x="408" y="808"/>
      <point x="108" y="808" type="curve"/>
      <point x="108" y="748" type="line"/>
      <point x="352" y="748"/>
      <point x="452" y="596"/>
      <point x="452" y="364" type="curve" smooth="yes"/>
      <point x="452" y="28" type="line" smooth="yes"/>
      <point x="452" y="-260"/>
      <point x="556" y="-500"/>
      <point x="892" y="-608" type="curve"/>
    </contour>
  </outline>
</glyph>
<glyph name="bar" format="1">
  <advance width="512"/>
  <unicode hex="007C"/>
  <outline>
    <contour>
      <point x="292" y="2004" type="line"/>
      <point x="220" y="2004" type="line"/>
      <point x="220" y="-372" type="line"/>
      <point x="292" y="-372" type="line"/>
    </contour>
  </outline>
</glyph>
<glyph name="braceright" format="1">
  <advance width="1024"/>
  <unicode hex="007D"/>
  <outline>
    <contour>
      <point x="116" y="2136" type="line"/>
      <point x="388" y="2048"/>
      <point x="500" y="1832"/>
      <point x="500" y="1556" type="curve" smooth="yes"/>
      <point x="500" y="1216" type="line" smooth="yes"/>
      <point x="500" y="972"/>
      <point x="620" y="780"/>
      <point x="916" y="780" type="curve"/>
      <point x="916" y="836" type="line"/>
      <point x="676" y="836"/>
      <point x="572" y="988"/>
      <point x="572" y="1216" type="curve" smooth="yes"/>
      <point x="572" y="1556" type="line" smooth="yes"/>
      <point x="572" y="1844"/>
      <point x="472" y="2092"/>
      <point x="136" y="2196" type="curve"/>
    </contour>
    <contour>
      <point x="136" y="-608" type="line"/>
      <point x="472" y="-500"/>
      <point x="572" y="-260"/>
      <point x="572" y="28" type="curve" smooth="yes"/>
      <point x="572" y="364" type="line" smooth="yes"/>
      <point x="572" y="596"/>
      <point x="676" y="748"/>
      <point x="916" y="748" type="curve"/>
      <point x="916" y="808" type="line"/>
      <point x="620" y="808"/>
      <point x="500" y="612"/>
      <point x="500" y="364" type="curve" smooth="yes"/>
      <point x="500" y="28" type="line" smooth="yes"/>
      <point x="500" y="-248"/>
      <point x="376" y="-452"/>
      <point x="108" y="-544" type="curve"/>
    </contour>
  </outline>
</glyph>
<glyph name="asciitilde" format="1">
  <advance width="2048"/>
  <unicode hex="007E"/>
  <outline>
    <contour>
      <point x="1696" y="1036" type="line"/>
      <point x="1696" y="820"/>
      <point x="1592" y="684"/>
      <point x="1400" y="684" type="curve" smooth="yes"/>
      <point x="1284" y="684"/>
      <point x="1200" y="732"/>
      <point x="1060" y="860" type="curve" smooth="yes"/>
      <point x="916" y="988"/>
      <point x="812" y="1064"/>
      <point x="648" y="1064" type="curve" smooth="yes"/>
      <point x="392" y="1064"/>
      <point x="280" y="868"/>
      <point x="280" y="636" type="curve"/>
      <point x="356" y="636" type="line"/>
      <point x="356" y="868"/>
      <point x="464" y="992"/>
      <point x="648" y="992" type="curve" smooth="yes"/>
      <point x="780" y="992"/>
      <point x="856" y="940"/>
      <point x="992" y="816" type="curve" smooth="yes"/>
      <point x="1140" y="684"/>
      <point x="1236" y="608"/>
      <point x="1400" y="608" type="curve" smooth="yes"/>
      <point x="1652" y="608"/>
      <point x="1772" y="812"/>
      <point x="1772" y="1036" type="curve"/>
    </contour>
  </outline>
</glyph>
<glyph name="exclamdown" format="1">
  <advance width="512"/>
  <unicode hex="00A1"/>
  <outline>
    <contour>
      <point x="232" y="-496" type="line"/>
      <point x="304" y="-496" type="line"/>
      <point x="304" y="956" type="line"/>
      <point x="232" y="956" type="line"/>
    </contour>
    <contour>
      <point x="332" y="1440" type="curve" smooth="yes"/>
      <point x="332" y="1484"/>
      <point x="300" y="1516"/>
      <point x="256" y="1516" type="curve" smooth="yes"/>
      <point x="216" y="1516"/>
      <point x="180" y="1484"/>
      <point x="180" y="1440" type="curve" smooth="yes"/>
      <point x="180" y="1400"/>
      <point x="216" y="1364"/>
      <point x="256" y="1364" type="curve" smooth="yes"/>
      <point x="300" y="1364"/>
      <point x="332" y="1400"/>
    </contour>
  </outline>
</glyph>
<glyph name="cent" format="1">
  <advance width="1536"/>
  <unicode hex="00A2"/>
  <outline>
    <contour>
      <point x="780" y="1812" type="line"/>
      <point x="704" y="1812" type="line"/>
      <point x="704" y="1472" type="line"/>
      <point x="780" y="1472" type="line"/>
    </contour>
    <contour>
      <point x="780" y="4" type="line"/>
      <point x="704" y="4" type="line"/>
      <point x="704" y="-336" type="line"/>
      <point x="780" y="-336" type="line"/>
    </contour>
    <component base="c"/>
  </outline>
</glyph>
<glyph name="sterling" format="1">
  <advance width="1792"/>
  <unicode hex="00A3"/>
  <outline>
    <contour>
      <point x="1560" y="0" type="line"/>
      <point x="1560" y="76" type="line"/>
      <point x="236" y="76" type="line"/>
      <point x="236" y="0" type="line"/>
    </contour>
    <contour>
      <point x="1104" y="916" type="line"/>
      <point x="1104" y="992" type="line"/>
      <point x="232" y="992" type="line"/>
      <point x="232" y="916" type="line"/>
    </contour>
    <contour>
      <point x="580" y="1428" type="line"/>
      <point x="580" y="1772"/>
      <point x="748" y="1956"/>
      <point x="1012" y="1956" type="curve" smooth="yes"/>
      <point x="1252" y="1956"/>
      <point x="1452" y="1824"/>
      <point x="1452" y="1496" type="curve"/>
      <point x="1524" y="1496" type="line"/>
      <point x="1524" y="1812"/>
      <point x="1340" y="2032"/>
      <point x="1012" y="2032" type="curve" smooth="yes"/>
      <point x="704" y="2032"/>
      <point x="508" y="1808"/>
      <point x="508" y="1428" type="curve" smooth="yes"/>
      <point x="536" y="464" type="line" smooth="yes"/>
      <point x="540" y="296"/>
      <point x="500" y="104"/>
      <point x="404" y="76" type="curve"/>
      <point x="488" y="40" type="line"/>
      <point x="572" y="116"/>
      <point x="616" y="256"/>
      <point x="612" y="464" type="curve" smooth="yes"/>
    </contour>
  </outline>
</glyph>
<glyph name="currency" format="1">
  <advance width="2048"/>
  <unicode hex="00A4"/>
  <outline>
    <contour>
      <point x="280" y="836" type="curve"/>
      <point x="280" y="1272"/>
      <point x="616" y="1624"/>
      <point x="1020" y="1624" type="curve" smooth="yes"/>
      <point x="1428" y="1624"/>
      <point x="1764" y="1272"/>
      <point x="1764" y="836" type="curve" smooth="yes"/>
      <point x="1764" y="400"/>
      <point x="1428" y="44"/>
      <point x="1020" y="44" type="curve" smooth="yes"/>
      <point x="616" y="44"/>
      <point x="280" y="400"/>
    </contour>
    <contour>
      <point x="204" y="836" type="curve"/>
      <point x="204" y="348"/>
      <point x="568" y="-28"/>
      <point x="1020" y="-28" type="curve" smooth="yes"/>
      <point x="1472" y="-28"/>
      <point x="1840" y="348"/>
      <point x="1840" y="836" type="curve" smooth="yes"/>
      <point x="1840" y="1324"/>
      <point x="1472" y="1696"/>
      <point x="1020" y="1696" type="curve" smooth="yes"/>
      <point x="568" y="1696"/>
      <point x="204" y="1324"/>
    </contour>
    <contour>
      <point x="1896" y="1684" type="line"/>
      <point x="1840" y="1740" type="line"/>
      <point x="1560" y="1456" type="line"/>
      <point x="1616" y="1400" type="line"/>
    </contour>
    <contour>
      <point x="488" y="248" type="line"/>
      <point x="432" y="300" type="line"/>
      <point x="156" y="20" type="line"/>
      <point x="208" y="-36" type="line"/>
    </contour>
    <contour>
      <point x="1840" y="-36" type="line"/>
      <point x="1896" y="20" type="line"/>
      <point x="1616" y="300" type="line"/>
      <point x="1560" y="248" type="line"/>
    </contour>
    <contour>
      <point x="432" y="1400" type="line"/>
      <point x="488" y="1456" type="line"/>
      <point x="208" y="1740" type="line"/>
      <point x="156" y="1684" type="line"/>
    </contour>
  </outline>
</glyph>
<glyph name="yen" format="1">
  <advance width="1536"/>
  <unicode hex="00A5"/>
  <outline>
    <contour>
      <point x="1344" y="932" type="line"/>
      <point x="196" y="932" type="line"/>
      <point x="196" y="856" type="line"/>
      <point x="1344" y="856" type="line"/>
    </contour>
    <contour>
      <point x="1344" y="524" type="line"/>
      <point x="196" y="524" type="line"/>
      <point x="196" y="448" type="line"/>
      <point x="1344" y="448" type="line"/>
    </contour>
    <contour>
      <point x="812" y="1016" type="line"/>
      <point x="736" y="864" type="line"/>
      <point x="804" y="864" type="line"/>
      <point x="1432" y="2004" type="line"/>
      <point x="1348" y="2004" type="line"/>
    </contour>
    <contour>
      <point x="188" y="2004" type="line"/>
      <point x="104" y="2004" type="line"/>
      <point x="732" y="864" type="line"/>
      <point x="804" y="864" type="line"/>
      <point x="728" y="1016" type="line"/>
    </contour>
    <contour>
      <point x="804" y="944" type="line"/>
      <point x="732" y="944" type="line"/>
      <point x="732" y="0" type="line"/>
      <point x="804" y="0" type="line"/>
    </contour>
  </outline>
</glyph>
<glyph name="brokenbar" format="1">
  <advance width="512"/>
  <unicode hex="00A6"/>
  <outline>
    <contour>
      <point x="292" y="-372" type="line"/>
      <point x="292" y="664" type="line"/>
      <point x="220" y="664" type="line"/>
      <point x="220" y="-372" type="line"/>
    </contour>
    <contour>
      <point x="292" y="2004" type="line"/>
      <point x="220" y="2004" type="line"/>
      <point x="220" y="960" type="line"/>
      <point x="292" y="960" type="line"/>
    </contour>
  </outline>
</glyph>
<glyph name="section" format="1">
  <advance width="1792"/>
  <unicode hex="00A7"/>
  <outline>
    <contour>
      <point x="1008" y="216" type="line"/>
      <point x="1348" y="216"/>
      <point x="1568" y="368"/>
      <point x="1568" y="592" type="curve"/>
      <point x="1568" y="904"/>
      <point x="1324" y="1004"/>
      <point x="912" y="1108" type="curve" smooth="yes"/>
      <point x="472" y="1232"/>
      <point x="368" y="1332"/>
      <point x="368" y="1556" type="curve"/>
      <point x="368" y="1776"/>
      <point x="536" y="1956"/>
      <point x="916" y="1956" type="curve" smooth="yes"/>
      <point x="1272" y="1956"/>
      <point x="1464" y="1724"/>
      <point x="1464" y="1436" type="curve"/>
      <point x="1540" y="1436" type="line"/>
      <point x="1540" y="1820"/>
      <point x="1304" y="2032"/>
      <point x="916" y="2032" type="curve" smooth="yes"/>
      <point x="536" y="2032"/>
      <point x="292" y="1840"/>
      <point x="292" y="1552" type="curve"/>
      <point x="292" y="1260"/>
      <point x="512" y="1144"/>
      <point x="876" y="1052" type="curve" smooth="yes"/>
      <point x="1352" y="924"/>
      <point x="1496" y="816"/>
      <point x="1496" y="588" type="curve"/>
      <point x="1496" y="416"/>
      <point x="1320" y="272"/>
      <point x="1008" y="272" type="curve"/>
    </contour>
    <contour>
      <point x="768" y="1140" type="line"/>
      <point x="440" y="1140"/>
      <point x="232" y="996"/>
      <point x="232" y="760" type="curve" smooth="yes"/>
      <point x="232" y="448"/>
      <point x="500" y="324"/>
      <point x="900" y="228" type="curve"/>
      <point x="1332" y="116"/>
      <point x="1432" y="4"/>
      <point x="1432" y="-208" type="curve" smooth="yes"/>
      <point x="1432" y="-440"/>
      <point x="1240" y="-608"/>
      <point x="892" y="-608" type="curve" smooth="yes"/>
      <point x="616" y="-608"/>
      <point x="296" y="-484"/>
      <point x="296" y="-84" type="curve"/>
      <point x="224" y="-88" type="line"/>
      <point x="224" y="-536"/>
      <point x="560" y="-680"/>
      <point x="892" y="-680" type="curve" smooth="yes"/>
      <point x="1264" y="-680"/>
      <point x="1508" y="-504"/>
      <point x="1508" y="-204" type="curve" smooth="yes"/>
      <point x="1508" y="88"/>
      <point x="1296" y="200"/>
      <point x="924" y="296" type="curve" smooth="yes"/>
      <point x="428" y="436"/>
      <point x="308" y="520"/>
      <point x="308" y="760" type="curve" smooth="yes"/>
      <point x="308" y="948"/>
      <point x="452" y="1096"/>
      <point x="768" y="1096" type="curve"/>
    </contour>
  </outline>
</glyph>
<glyph name="dieresis" format="1">
  <advance width="1280"/>
  <unicode hex="00A8"/>
  <outline>
    <contour>
      <point x="640" y="1780" type="move" name="_top"/>
    </contour>
    <contour>
      <point x="640" y="2120" type="move" name="mkmktop_acc"/>
    </contour>
    <contour>
      <point x="260" y="1956" type="curve" smooth="yes"/>
      <point x="260" y="1912"/>
      <point x="292" y="1880"/>
      <point x="336" y="1880" type="curve" smooth="yes"/>
      <point x="376" y="1880"/>
      <point x="412" y="1912"/>
      <point x="412" y="1956" type="curve" smooth="yes"/>
      <point x="412" y="1996"/>
      <point x="376" y="2032"/>
      <point x="336" y="2032" type="curve" smooth="yes"/>
      <point x="292" y="2032"/>
      <point x="260" y="1996"/>
    </contour>
    <contour>
      <point x="872" y="1956" type="curve" smooth="yes"/>
      <point x="872" y="1912"/>
      <point x="904" y="1880"/>
      <point x="948" y="1880" type="curve" smooth="yes"/>
      <point x="988" y="1880"/>
      <point x="1024" y="1912"/>
      <point x="1024" y="1956" type="curve" smooth="yes"/>
      <point x="1024" y="1996"/>
      <point x="988" y="2032"/>
      <point x="948" y="2032" type="curve" smooth="yes"/>
      <point x="904" y="2032"/>
      <point x="872" y="1996"/>
    </contour>
  </outline>
</glyph>
<glyph name="copyright" format="1">
  <advance width="2304"/>
  <unicode hex="00A9"/>
  <outline>
    <contour>
      <point x="1480" y="848" type="line"/>
      <point x="1480" y="600"/>
      <point x="1360" y="492"/>
      <point x="1144" y="492" type="curve" smooth="yes"/>
      <point x="912" y="492"/>
      <point x="780" y="692"/>
      <point x="780" y="948" type="curve" smooth="yes"/>
      <point x="780" y="1056" type="line" smooth="yes"/>
      <point x="780" y="1312"/>
      <point x="912" y="1516"/>
      <point x="1144" y="1516" type="curve" smooth="yes"/>
      <point x="1360" y="1516"/>
      <point x="1484" y="1396"/>
      <point x="1484" y="1160" type="curve"/>
      <point x="1556" y="1160" type="line"/>
      <point x="1556" y="1444"/>
      <point x="1392" y="1588"/>
      <point x="1144" y="1588" type="curve" smooth="yes"/>
      <point x="880" y="1588"/>
      <point x="704" y="1372"/>
      <point x="704" y="1056" type="curve"/>
      <point x="704" y="948" type="line"/>
      <point x="704" y="632"/>
      <point x="880" y="416"/>
      <point x="1144" y="416" type="curve" smooth="yes"/>
      <point x="1392" y="416"/>
      <point x="1552" y="560"/>
      <point x="1552" y="848" type="curve"/>
    </contour>
    <contour>
      <point x="252" y="1004" type="curve"/>
      <point x="252" y="1536"/>
      <point x="660" y="1956"/>
      <point x="1152" y="1956" type="curve" smooth="yes"/>
      <point x="1644" y="1956"/>
      <point x="2052" y="1536"/>
      <point x="2052" y="1004" type="curve" smooth="yes"/>
      <point x="2052" y="468"/>
      <point x="1644" y="48"/>
      <point x="1152" y="48" type="curve" smooth="yes"/>
      <point x="660" y="48"/>
      <point x="252" y="468"/>
    </contour>
    <contour>
      <point x="176" y="1004" type="curve"/>
      <point x="176" y="420"/>
      <point x="616" y="-28"/>
      <point x="1152" y="-28" type="curve" smooth="yes"/>
      <point x="1692" y="-28"/>
      <point x="2128" y="420"/>
      <point x="2128" y="1004" type="curve" smooth="yes"/>
      <point x="2128" y="1584"/>
      <point x="1692" y="2032"/>
      <point x="1152" y="2032" type="curve" smooth="yes"/>
      <point x="616" y="2032"/>
      <point x="176" y="1584"/>
    </contour>
  </outline>
</glyph>
<glyph name="ordfeminine" format="1">
  <advance width="1280"/>
  <unicode hex="00AA"/>
  <outline>
    <contour>
      <point x="920" y="1184" type="line"/>
      <point x="920" y="1108"/>
      <point x="932" y="1036"/>
      <point x="952" y="968" type="curve"/>
      <point x="1032" y="968" type="line"/>
      <point x="1008" y="1048"/>
      <point x="996" y="1128"/>
      <point x="996" y="1220" type="curve" smooth="yes"/>
      <point x="996" y="1652" type="line"/>
      <point x="996" y="1904"/>
      <point x="852" y="2032"/>
      <point x="648" y="2032" type="curve" smooth="yes"/>
      <point x="408" y="2032"/>
      <point x="248" y="1896"/>
      <point x="248" y="1708" type="curve"/>
      <point x="324" y="1708" type="line"/>
      <point x="324" y="1876"/>
      <point x="448" y="1956"/>
      <point x="648" y="1956" type="curve" smooth="yes"/>
      <point x="828" y="1956"/>
      <point x="920" y="1840"/>
      <point x="920" y="1652" type="curve"/>
    </contour>
    <contour>
      <point x="944" y="1556" type="line"/>
      <point x="688" y="1556" type="line"/>
      <point x="412" y="1556"/>
      <point x="248" y="1436"/>
      <point x="248" y="1240" type="curve" smooth="yes"/>
      <point x="248" y="1064"/>
      <point x="372" y="952"/>
      <point x="592" y="952" type="curve" smooth="yes"/>
      <point x="780" y="952"/>
      <point x="920" y="1088"/>
      <point x="960" y="1208" type="curve"/>
      <point x="928" y="1276" type="line"/>
      <point x="928" y="1168"/>
      <point x="756" y="1028"/>
      <point x="592" y="1028" type="curve" smooth="yes"/>
      <point x="400" y="1028"/>
      <point x="324" y="1116"/>
      <point x="324" y="1244" type="curve" smooth="yes"/>
      <point x="324" y="1408"/>
      <point x="456" y="1484"/>
      <point x="688" y="1484" type="curve"/>
      <point x="948" y="1484" type="line"/>
    </contour>
  </outline>
</glyph>
<glyph name="logicalnot" format="1">
  <advance width="1536"/>
  <unicode hex="00AC"/>
  <outline>
    <contour>
      <point x="1312" y="1036" type="line"/>
      <point x="224" y="1036" type="line"/>
      <point x="224" y="964" type="line"/>
      <point x="1312" y="964" type="line"/>
    </contour>
    <contour>
      <point x="1312" y="972" type="line"/>
      <point x="1240" y="972" type="line"/>
      <point x="1240" y="544" type="line"/>
      <point x="1312" y="544" type="line"/>
    </contour>
  </outline>
</glyph>
<glyph name="registered" format="1">
  <advance width="2304"/>
  <unicode hex="00AE"/>
  <outline>
    <contour>
      <point x="1216" y="932" type="line"/>
      <point x="1268" y="932"/>
      <point x="1244" y="932"/>
      <point x="1292" y="960" type="curve" smooth="yes"/>
      <point x="1296" y="960"/>
      <point x="1304" y="960"/>
      <point x="1308" y="964" type="curve" smooth="yes"/>
      <point x="1464" y="1012"/>
      <point x="1560" y="1112"/>
      <point x="1560" y="1260" type="curve"/>
      <point x="1560" y="1476"/>
      <point x="1428" y="1592"/>
      <point x="1164" y="1592" type="curve"/>
      <point x="832" y="1592" type="line"/>
      <point x="832" y="448" type="line"/>
      <point x="908" y="448" type="line"/>
      <point x="908" y="1516" type="line"/>
      <point x="1164" y="1516" type="line"/>
      <point x="1404" y="1516"/>
      <point x="1484" y="1432"/>
      <point x="1484" y="1260" type="curve"/>
      <point x="1484" y="1096"/>
      <point x="1352" y="1008"/>
      <point x="1192" y="1008" type="curve"/>
      <point x="860" y="1008" type="line"/>
      <point x="864" y="932" type="line"/>
    </contour>
    <contour>
      <point x="1200" y="932" type="line"/>
      <point x="1388" y="932"/>
      <point x="1456" y="864"/>
      <point x="1456" y="692" type="curve"/>
      <point x="1456" y="648" type="line"/>
      <point x="1456" y="608"/>
      <point x="1456" y="496"/>
      <point x="1472" y="448" type="curve"/>
      <point x="1556" y="448" type="line"/>
      <point x="1556" y="472" type="line"/>
      <point x="1540" y="512"/>
      <point x="1532" y="576"/>
      <point x="1532" y="644" type="curve"/>
      <point x="1532" y="696" type="line"/>
      <point x="1532" y="860"/>
      <point x="1460" y="996"/>
      <point x="1216" y="996" type="curve"/>
    </contour>
    <contour>
      <point x="252" y="1004" type="curve" smooth="yes"/>
      <point x="252" y="1536"/>
      <point x="660" y="1956"/>
      <point x="1152" y="1956" type="curve" smooth="yes"/>
      <point x="1644" y="1956"/>
      <point x="2052" y="1536"/>
      <point x="2052" y="1004" type="curve" smooth="yes"/>
      <point x="2052" y="468"/>
      <point x="1644" y="48"/>
      <point x="1152" y="48" type="curve" smooth="yes"/>
      <point x="660" y="48"/>
      <point x="252" y="468"/>
    </contour>
    <contour>
      <point x="176" y="1004" type="curve" smooth="yes"/>
      <point x="176" y="420"/>
      <point x="612" y="-28"/>
      <point x="1152" y="-28" type="curve" smooth="yes"/>
      <point x="1692" y="-28"/>
      <point x="2128" y="420"/>
      <point x="2128" y="1004" type="curve" smooth="yes"/>
      <point x="2128" y="1584"/>
      <point x="1692" y="2032"/>
      <point x="1152" y="2032" type="curve" smooth="yes"/>
      <point x="612" y="2032"/>
      <point x="176" y="1584"/>
    </contour>
  </outline>
</glyph>
<glyph name="macron" format="1">
  <advance width="1024"/>
  <unicode hex="00AF"/>
  <outline>
    <contour>
      <point x="508" y="1764" type="move" name="_top"/>
    </contour>
    <contour>
      <point x="508" y="2120" type="move" name="mkmktop_acc"/>
    </contour>
    <contour>
      <point x="904" y="1976" type="line"/>
      <point x="124" y="1976" type="line"/>
      <point x="124" y="1904" type="line"/>
      <point x="904" y="1904" type="line"/>
    </contour>
  </outline>
</glyph>
<glyph name="degree" format="1">
  <advance width="1024"/>
  <unicode hex="00B0"/>
  <outline>
    <contour>
      <point x="192" y="1700" type="curve"/>
      <point x="192" y="1516"/>
      <point x="336" y="1376"/>
      <point x="516" y="1376" type="curve" smooth="yes"/>
      <point x="692" y="1376"/>
      <point x="836" y="1516"/>
      <point x="836" y="1700" type="curve" smooth="yes"/>
      <point x="836" y="1880"/>
      <point x="692" y="2032"/>
      <point x="516" y="2032" type="curve" smooth="yes"/>
      <point x="336" y="2032"/>
      <point x="192" y="1880"/>
    </contour>
    <contour>
      <point x="268" y="1700" type="curve"/>
      <point x="268" y="1848"/>
      <point x="372" y="1956"/>
      <point x="516" y="1956" type="curve" smooth="yes"/>
      <point x="656" y="1956"/>
      <point x="756" y="1848"/>
      <point x="756" y="1700" type="curve" smooth="yes"/>
      <point x="756" y="1556"/>
      <point x="656" y="1452"/>
      <point x="516" y="1452" type="curve" smooth="yes"/>
      <point x="372" y="1452"/>
      <point x="268" y="1556"/>
    </contour>
  </outline>
</glyph>
<glyph name="plusminus" format="1">
  <advance width="1536"/>
  <unicode hex="00B1"/>
  <outline>
    <contour>
      <point x="1400" y="1108" type="line"/>
      <point x="140" y="1108" type="line"/>
      <point x="140" y="1032" type="line"/>
      <point x="1400" y="1032" type="line"/>
    </contour>
    <contour>
      <point x="820" y="1744" type="line"/>
      <point x="748" y="1744" type="line"/>
      <point x="748" y="396" type="line"/>
      <point x="820" y="396" type="line"/>
    </contour>
    <component base="minus" xOffset="-16" yOffset="-992"/>
  </outline>
</glyph>
<glyph name="acute" format="1">
  <advance width="768"/>
  <unicode hex="00B4"/>
  <outline>
    <contour>
      <point x="264" y="1780" type="move" name="_top"/>
    </contour>
    <contour>
      <point x="264" y="2124" type="move" name="mkmktop_acc"/>
    </contour>
    <contour>
      <point x="208" y="1748" type="line"/>
      <point x="292" y="1748" type="line"/>
      <point x="560" y="2112" type="line"/>
      <point x="468" y="2112" type="line"/>
    </contour>
  </outline>
</glyph>
<glyph name="mu" format="1">
  <advance width="1536"/>
  <unicode hex="00B5"/>
  <outline>
    <contour>
      <point x="1232" y="1488" type="line"/>
      <point x="1232" y="344" type="line"/>
      <point x="1236" y="0" type="line"/>
      <point x="1308" y="0" type="line"/>
      <point x="1308" y="1488" type="line"/>
    </contour>
    <contour>
      <point x="1236" y="692" type="line"/>
      <point x="1236" y="332"/>
      <point x="1148" y="48"/>
      <point x="724" y="48" type="curve" smooth="yes"/>
      <point x="508" y="48"/>
      <point x="304" y="164"/>
      <point x="304" y="604" type="curve"/>
      <point x="248" y="604" type="line"/>
      <point x="236" y="512" type="line"/>
      <point x="272" y="96"/>
      <point x="504" y="-28"/>
      <point x="736" y="-28" type="curve" smooth="yes"/>
      <point x="1148" y="-28"/>
      <point x="1308" y="280"/>
      <point x="1308" y="696" type="curve"/>
    </contour>
    <contour>
      <point x="232" y="1488" type="line"/>
      <point x="232" y="-572" type="line"/>
      <point x="304" y="-572" type="line"/>
      <point x="304" y="1488" type="line"/>
    </contour>
  </outline>
</glyph>
<glyph name="paragraph" format="1">
  <advance width="1280"/>
  <unicode hex="00B6"/>
  <outline>
    <contour>
      <point x="1104" y="0" type="line"/>
      <point x="1104" y="2004" type="line"/>
      <point x="856" y="2004" type="line" smooth="yes"/>
      <point x="416" y="2004"/>
      <point x="180" y="1728"/>
      <point x="180" y="1360" type="curve" smooth="yes"/>
      <point x="180" y="988"/>
      <point x="416" y="716"/>
      <point x="856" y="716" type="curve" smooth="yes"/>
      <point x="1028" y="716" type="line"/>
      <point x="1028" y="0" type="line"/>
    </contour>
  </outline>
</glyph>
<glyph name="periodcentered" format="1">
  <advance width="768"/>
  <unicode hex="00B7"/>
  <outline>
    <contour>
      <point x="308" y="972" type="curve" smooth="yes"/>
      <point x="308" y="928"/>
      <point x="340" y="896"/>
      <point x="384" y="896" type="curve" smooth="yes"/>
      <point x="428" y="896"/>
      <point x="460" y="928"/>
      <point x="460" y="972" type="curve" smooth="yes"/>
      <point x="460" y="1012"/>
      <point x="428" y="1048"/>
      <point x="384" y="1048" type="curve" smooth="yes"/>
      <point x="340" y="1048"/>
      <point x="308" y="1012"/>
    </contour>
  </outline>
</glyph>
<glyph name="cedilla" format="1">
  <advance width="768"/>
  <unicode hex="00B8"/>
  <outline>
    <contour>
      <point x="320" y="0" type="move" name="_bottom"/>
    </contour>
    <contour>
      <point x="320" y="-600" type="move" name="mkmkbottom_acc"/>
    </contour>
    <contour>
      <point x="284" y="0" type="line"/>
      <point x="248" y="-168" type="line"/>
      <point x="420" y="-184"/>
      <point x="508" y="-216"/>
      <point x="508" y="-336" type="curve" smooth="yes"/>
      <point x="508" y="-472"/>
      <point x="332" y="-532"/>
      <point x="184" y="-532" type="curve"/>
      <point x="192" y="-600" type="line"/>
      <point x="436" y="-600"/>
      <point x="584" y="-496"/>
      <point x="584" y="-336" type="curve" smooth="yes"/>
      <point x="584" y="-172"/>
      <point x="464" y="-116"/>
      <point x="344" y="-104" type="curve"/>
      <point x="356" y="0" type="line"/>
    </contour>
  </outline>
</glyph>
<glyph name="ordmasculine" format="1">
  <advance width="1280"/>
  <unicode hex="00BA"/>
  <outline>
    <contour>
      <point x="224" y="1408" type="line"/>
      <point x="224" y="1140"/>
      <point x="380" y="948"/>
      <point x="644" y="948" type="curve" smooth="yes"/>
      <point x="900" y="948"/>
      <point x="1060" y="1140"/>
      <point x="1060" y="1408" type="curve"/>
      <point x="1060" y="1568" type="line"/>
      <point x="1060" y="1836"/>
      <point x="900" y="2032"/>
      <point x="640" y="2032" type="curve" smooth="yes"/>
      <point x="380" y="2032"/>
      <point x="224" y="1836"/>
      <point x="224" y="1568" type="curve"/>
    </contour>
    <contour>
      <point x="296" y="1568" type="line"/>
      <point x="296" y="1780"/>
      <point x="408" y="1956"/>
      <point x="640" y="1956" type="curve" smooth="yes"/>
      <point x="872" y="1956"/>
      <point x="988" y="1780"/>
      <point x="988" y="1568" type="curve"/>
      <point x="988" y="1408" type="line"/>
      <point x="988" y="1196"/>
      <point x="872" y="1024"/>
      <point x="644" y="1024" type="curve" smooth="yes"/>
      <point x="400" y="1024"/>
      <point x="296" y="1196"/>
      <point x="296" y="1408" type="curve"/>
    </contour>
  </outline>
</glyph>
<glyph name="questiondown" format="1">
  <advance width="1280"/>
  <unicode hex="00BF"/>
  <outline>
    <contour>
      <point x="640" y="956" type="line"/>
      <point x="640" y="800"/>
      <point x="640" y="720"/>
      <point x="500" y="612" type="curve" smooth="yes"/>
      <point x="296" y="428"/>
      <point x="156" y="260"/>
      <point x="156" y="-20" type="curve" smooth="yes"/>
      <point x="156" y="-320"/>
      <point x="332" y="-524"/>
      <point x="640" y="-524" type="curve" smooth="yes"/>
      <point x="908" y="-524"/>
      <point x="1124" y="-364"/>
      <point x="1128" y="-28" type="curve"/>
      <point x="1052" y="-28" type="line"/>
      <point x="1048" y="-276"/>
      <point x="904" y="-452"/>
      <point x="640" y="-452" type="curve" smooth="yes"/>
      <point x="376" y="-452"/>
      <point x="228" y="-292"/>
      <point x="228" y="-24" type="curve" smooth="yes"/>
      <point x="228" y="264"/>
      <point x="372" y="392"/>
      <point x="540" y="556" type="curve" smooth="yes"/>
      <point x="704" y="704"/>
      <point x="708" y="752"/>
      <point x="712" y="956" type="curve"/>
    </contour>
    <contour>
      <point x="744" y="1440" type="curve" smooth="yes"/>
      <point x="744" y="1480"/>
      <point x="712" y="1516"/>
      <point x="668" y="1516" type="curve" smooth="yes"/>
      <point x="628" y="1516"/>
      <point x="592" y="1480"/>
      <point x="592" y="1440" type="curve" smooth="yes"/>
      <point x="592" y="1396"/>
      <point x="628" y="1360"/>
      <point x="668" y="1360" type="curve" smooth="yes"/>
      <point x="712" y="1360"/>
      <point x="744" y="1396"/>
    </contour>
  </outline>
</glyph>
<glyph name="AE" format="1">
  <advance width="2560"/>
  <unicode hex="00C6"/>
  <outline>
    <contour>
      <point x="1364" y="2216" type="move" name="top"/>
    </contour>
    <contour>
      <point x="2528" y="2200" type="move" name="top_dd"/>
    </contour>
    <contour>
      <point x="2528" y="2216" type="move" name="top0315"/>
    </contour>
    <contour>
      <point x="1356" y="1936" type="line"/>
      <point x="1380" y="2004" type="line"/>
      <point x="1312" y="2004" type="line"/>
      <point x="100" y="0" type="line"/>
      <point x="188" y="0" type="line"/>
    </contour>
    <contour>
      <point x="1408" y="656" type="line"/>
      <point x="516" y="656" type="line"/>
      <point x="516" y="584" type="line"/>
      <point x="1408" y="584" type="line"/>
    </contour>
    <contour>
      <point x="2460" y="76" type="line"/>
      <point x="1452" y="76" type="line"/>
      <point x="1452" y="0" type="line"/>
      <point x="2460" y="0" type="line"/>
    </contour>
    <contour>
      <point x="1416" y="2004" type="line"/>
      <point x="1344" y="2004" type="line"/>
      <point x="1428" y="0" type="line"/>
      <point x="1500" y="0" type="line"/>
    </contour>
    <contour>
      <point x="2264" y="1080" type="line"/>
      <point x="1400" y="1080" type="line"/>
      <point x="1400" y="1008" type="line"/>
      <point x="2264" y="1008" type="line"/>
    </contour>
    <contour>
      <point x="2376" y="2004" type="line"/>
      <point x="1368" y="2004" type="line"/>
      <point x="1368" y="1928" type="line"/>
      <point x="2376" y="1928" type="line"/>
    </contour>
  </outline>
</glyph>
<glyph name="multiply" format="1">
  <advance width="1536"/>
  <unicode hex="00D7"/>
  <outline>
    <contour>
      <point x="240" y="0" type="line"/>
      <point x="1312" y="1092" type="line"/>
      <point x="1260" y="1144" type="line"/>
      <point x="188" y="52" type="line"/>
    </contour>
    <contour>
      <point x="1296" y="0" type="line"/>
      <point x="1352" y="52" type="line"/>
      <point x="280" y="1144" type="line"/>
      <point x="224" y="1092" type="line"/>
    </contour>
  </outline>
</glyph>
<glyph name="Oslash" format="1">
  <advance width="1792"/>
  <unicode hex="00D8"/>
  <outline>
    <contour>
      <point x="952" y="2304" type="move" name="top"/>
    </contour>
    <contour>
      <point x="1852" y="2200" type="move" name="top_dd"/>
    </contour>
    <contour>
      <point x="1852" y="2304" type="move" name="top0315"/>
    </contour>
    <contour>
      <point x="1680" y="2056" type="line"/>
      <point x="1588" y="2056" type="line"/>
      <point x="216" y="-104" type="line"/>
      <point x="308" y="-104" type="line"/>
    </contour>
    <component base="O" xOffset="-28"/>
  </outline>
</glyph>
<glyph name="Thorn" format="1">
  <advance width="1792"/>
  <unicode hex="00DE"/>
  <outline>
    <contour>
      <point x="296" y="2004" type="line"/>
      <point x="296" y="0" type="line"/>
      <point x="368" y="0" type="line"/>
      <point x="368" y="2004" type="line"/>
    </contour>
    <contour>
      <point x="320" y="1572" type="line"/>
      <point x="340" y="1496" type="line"/>
      <point x="880" y="1496" type="line" smooth="yes"/>
      <point x="1268" y="1496"/>
      <point x="1424" y="1252"/>
      <point x="1424" y="1012" type="curve" smooth="yes"/>
      <point x="1424" y="784"/>
      <point x="1268" y="536"/>
      <point x="880" y="536" type="curve" smooth="yes"/>
      <point x="312" y="536" type="line"/>
      <point x="312" y="460" type="line"/>
      <point x="880" y="460" type="line" smooth="yes"/>
      <point x="1280" y="460"/>
      <point x="1500" y="696"/>
      <point x="1500" y="1016" type="curve" smooth="yes"/>
      <point x="1500" y="1336"/>
      <point x="1280" y="1572"/>
      <point x="880" y="1572" type="curve" smooth="yes"/>
    </contour>
  </outline>
</glyph>
<glyph name="germandbls" format="1">
  <advance width="1536"/>
  <unicode hex="00DF"/>
  <outline>
    <contour>
      <point x="224" y="1572" type="line"/>
      <point x="224" y="1912"/>
      <point x="380" y="2036"/>
      <point x="616" y="2036" type="curve" smooth="yes"/>
      <point x="784" y="2036"/>
      <point x="948" y="1904"/>
      <point x="948" y="1732" type="curve" smooth="yes"/>
      <point x="948" y="1484"/>
      <point x="792" y="1424"/>
      <point x="792" y="1144" type="curve" smooth="yes"/>
      <point x="792" y="804"/>
      <point x="1312" y="736"/>
      <point x="1312" y="420" type="curve" smooth="yes"/>
      <point x="1312" y="220"/>
      <point x="1128" y="44"/>
      <point x="872" y="44" type="curve" smooth="yes"/>
      <point x="724" y="44"/>
      <point x="560" y="104"/>
      <point x="488" y="160" type="curve"/>
      <point x="452" y="96" type="line"/>
      <point x="528" y="28"/>
      <point x="720" y="-28"/>
      <point x="880" y="-28" type="curve" smooth="yes"/>
      <point x="1108" y="-28"/>
      <point x="1384" y="132"/>
      <point x="1384" y="408" type="curve" smooth="yes"/>
      <point x="1384" y="784"/>
      <point x="868" y="856"/>
      <point x="868" y="1140" type="curve" smooth="yes"/>
      <point x="868" y="1428"/>
      <point x="1032" y="1468"/>
      <point x="1032" y="1728" type="curve" smooth="yes"/>
      <point x="1032" y="1960"/>
      <point x="820" y="2112"/>
      <point x="604" y="2112" type="curve" smooth="yes"/>
      <point x="312" y="2112"/>
      <point x="152" y="1920"/>
      <point x="152" y="1572" type="curve" smooth="yes"/>
      <point x="152" y="0" type="line"/>
      <point x="224" y="0" type="line"/>
    </contour>
  </outline>
</glyph>
<glyph name="ae" format="1">
  <advance width="2560"/>
  <unicode hex="00E6"/>
  <outline>
    <contour>
      <point x="1260" y="1776" type="move" name="top"/>
    </contour>
    <contour>
      <point x="2464" y="2200" type="move" name="top_dd"/>
    </contour>
    <contour>
      <point x="2464" y="1776" type="move" name="top0315"/>
    </contour>
    <contour>
      <point x="1196" y="252" type="line"/>
      <point x="1272" y="300" type="line"/>
      <point x="1272" y="988" type="line"/>
      <point x="1272" y="1340"/>
      <point x="1084" y="1516"/>
      <point x="792" y="1516" type="curve" smooth="yes"/>
      <point x="456" y="1516"/>
      <point x="244" y="1328"/>
      <point x="244" y="1072" type="curve"/>
      <point x="316" y="1060" type="line"/>
      <point x="316" y="1276"/>
      <point x="492" y="1440"/>
      <point x="792" y="1440" type="curve" smooth="yes"/>
      <point x="1068" y="1440"/>
      <point x="1196" y="1276"/>
      <point x="1196" y="992" type="curve"/>
    </contour>
    <contour>
      <point x="1228" y="868" type="line"/>
      <point x="796" y="868" type="line"/>
      <point x="408" y="868"/>
      <point x="204" y="672"/>
      <point x="204" y="392" type="curve" smooth="yes"/>
      <point x="204" y="140"/>
      <point x="380" y="-28"/>
      <point x="692" y="-28" type="curve" smooth="yes"/>
      <point x="1012" y="-28"/>
      <point x="1204" y="152"/>
      <point x="1272" y="300" type="curve"/>
      <point x="1196" y="316" type="line"/>
      <point x="1168" y="216"/>
      <point x="956" y="44"/>
      <point x="692" y="44" type="curve" smooth="yes"/>
      <point x="428" y="44"/>
      <point x="280" y="172"/>
      <point x="280" y="384" type="curve" smooth="yes"/>
      <point x="280" y="604"/>
      <point x="444" y="792"/>
      <point x="800" y="792" type="curve"/>
      <point x="1228" y="792" type="line"/>
    </contour>
    <contour>
      <point x="1820" y="-28" type="curve"/>
      <point x="2084" y="-28"/>
      <point x="2220" y="68"/>
      <point x="2320" y="168" type="curve"/>
      <point x="2276" y="228" type="line"/>
      <point x="2172" y="120"/>
      <point x="2016" y="48"/>
      <point x="1820" y="48" type="curve" smooth="yes"/>
      <point x="1436" y="48"/>
      <point x="1272" y="332"/>
      <point x="1272" y="688" type="curve" smooth="yes"/>
      <point x="1272" y="776" type="line" smooth="yes"/>
      <point x="1272" y="1144"/>
      <point x="1472" y="1440"/>
      <point x="1800" y="1440" type="curve"/>
      <point x="2120" y="1440"/>
      <point x="2280" y="1212"/>
      <point x="2280" y="912" type="curve"/>
      <point x="2280" y="868" type="line"/>
      <point x="1248" y="868" type="line"/>
      <point x="1248" y="792" type="line"/>
      <point x="2356" y="792" type="line"/>
      <point x="2356" y="908" type="line" smooth="yes"/>
      <point x="2356" y="1284"/>
      <point x="2148" y="1516"/>
      <point x="1800" y="1516" type="curve" smooth="yes"/>
      <point x="1456" y="1516"/>
      <point x="1200" y="1212"/>
      <point x="1200" y="776" type="curve" smooth="yes"/>
      <point x="1200" y="688" type="line" smooth="yes"/>
      <point x="1200" y="272"/>
      <point x="1420" y="-28"/>
    </contour>
  </outline>
</glyph>
<glyph name="eth" format="1">
  <advance width="1536"/>
  <unicode hex="00F0"/>
  <outline>
    <contour>
      <point x="400" y="2100" type="line"/>
      <point x="904" y="1912"/>
      <point x="1292" y="1604"/>
      <point x="1292" y="848" type="curve" smooth="yes"/>
      <point x="1292" y="736" type="line" smooth="yes"/>
      <point x="1292" y="340"/>
      <point x="1104" y="52"/>
      <point x="804" y="52" type="curve" smooth="yes"/>
      <point x="448" y="52"/>
      <point x="248" y="344"/>
      <point x="248" y="640" type="curve"/>
      <point x="248" y="968"/>
      <point x="400" y="1232"/>
      <point x="760" y="1232" type="curve"/>
      <point x="1148" y="1232"/>
      <point x="1320" y="960"/>
      <point x="1320" y="788" type="curve"/>
      <point x="1364" y="804" type="line"/>
      <point x="1364" y="1128"/>
      <point x="1068" y="1312"/>
      <point x="760" y="1312" type="curve"/>
      <point x="392" y="1312"/>
      <point x="172" y="1068"/>
      <point x="172" y="640" type="curve"/>
      <point x="172" y="268"/>
      <point x="432" y="-28"/>
      <point x="800" y="-28" type="curve" smooth="yes"/>
      <point x="1128" y="-28"/>
      <point x="1364" y="284"/>
      <point x="1364" y="736" type="curve"/>
      <point x="1364" y="848" type="line"/>
      <point x="1364" y="1552"/>
      <point x="1056" y="1936"/>
      <point x="428" y="2168" type="curve"/>
    </contour>
    <contour>
      <point x="1296" y="1944" type="line"/>
      <point x="1256" y="2008" type="line"/>
      <point x="608" y="1648" type="line"/>
      <point x="644" y="1580" type="line"/>
    </contour>
  </outline>
</glyph>
<glyph name="divide" format="1">
  <advance width="1792"/>
  <unicode hex="00F7"/>
  <outline>
    <contour>
      <point x="1584" y="1016" type="line"/>
      <point x="212" y="1016" type="line"/>
      <point x="212" y="944" type="line"/>
      <point x="1584" y="944" type="line"/>
    </contour>
    <contour>
      <point x="836" y="1484" type="curve" smooth="yes"/>
      <point x="836" y="1440"/>
      <point x="872" y="1408"/>
      <point x="912" y="1408" type="curve" smooth="yes"/>
      <point x="956" y="1408"/>
      <point x="992" y="1440"/>
      <point x="992" y="1484" type="curve" smooth="yes"/>
      <point x="992" y="1528"/>
      <point x="956" y="1560"/>
      <point x="912" y="1560" type="curve" smooth="yes"/>
      <point x="872" y="1560"/>
      <point x="836" y="1528"/>
    </contour>
    <contour>
      <point x="836" y="416" type="curve" smooth="yes"/>
      <point x="836" y="372"/>
      <point x="872" y="340"/>
      <point x="912" y="340" type="curve" smooth="yes"/>
      <point x="956" y="340"/>
      <point x="992" y="372"/>
      <point x="992" y="416" type="curve" smooth="yes"/>
      <point x="992" y="456"/>
      <point x="956" y="492"/>
      <point x="912" y="492" type="curve" smooth="yes"/>
      <point x="872" y="492"/>
      <point x="836" y="456"/>
    </contour>
  </outline>
</glyph>
<glyph name="oslash" format="1">
  <advance width="1792"/>
  <unicode hex="00F8"/>
  <outline>
    <contour>
      <point x="704" y="1772" type="move" name="top"/>
    </contour>
    <contour>
      <point x="1544" y="2200" type="move" name="top_dd"/>
    </contour>
    <contour>
      <point x="1544" y="1772" type="move" name="top0315"/>
    </contour>
    <contour>
      <point x="1284" y="1676" type="line"/>
      <point x="1200" y="1676" type="line"/>
      <point x="288" y="-200" type="line"/>
      <point x="372" y="-200" type="line"/>
    </contour>
    <component base="o"/>
  </outline>
</glyph>
<glyph name="dcroat" format="1">
  <advance width="1792"/>
  <unicode hex="0111"/>
  <outline>
    <contour>
      <point x="1564" y="2112" type="move" name="caron"/>
    </contour>
    <contour>
      <point x="868" y="0" type="move" name="bottom"/>
    </contour>
    <contour>
      <point x="784" y="2216" type="move" name="top"/>
    </contour>
    <contour>
      <point x="1588" y="2200" type="move" name="top_dd"/>
    </contour>
    <contour>
      <point x="1588" y="-560" type="move" name="bottom_dd"/>
    </contour>
    <contour>
      <point x="868" y="0" type="move" name="markbottom"/>
    </contour>
    <contour>
      <point x="1588" y="2216" type="move" name="top0315"/>
    </contour>
    <contour>
      <point x="1172" y="1796" type="move" name="parenthesses.w2"/>
    </contour>
    <contour>
      <point x="1280" y="288" type="line"/>
      <point x="1280" y="0" type="line"/>
      <point x="1356" y="0" type="line"/>
      <point x="1356" y="2112" type="line"/>
      <point x="1280" y="2112" type="line"/>
    </contour>
    <contour>
      <point x="216" y="732" type="line"/>
      <point x="216" y="276"/>
      <point x="424" y="-28"/>
      <point x="776" y="-28" type="curve" smooth="yes"/>
      <point x="1112" y="-28"/>
      <point x="1304" y="184"/>
      <point x="1352" y="420" type="curve"/>
      <point x="1352" y="1024" type="line"/>
      <point x="1288" y="1304"/>
      <point x="1100" y="1516"/>
      <point x="776" y="1516" type="curve" smooth="yes"/>
      <point x="424" y="1516"/>
      <point x="216" y="1228"/>
      <point x="216" y="760" type="curve" smooth="yes"/>
    </contour>
    <contour>
      <point x="292" y="760" type="line"/>
      <point x="292" y="1156"/>
      <point x="448" y="1440"/>
      <point x="776" y="1440" type="curve" smooth="yes"/>
      <point x="1148" y="1440"/>
      <point x="1268" y="1160"/>
      <point x="1308" y="976" type="curve"/>
      <point x="1308" y="452" type="line"/>
      <point x="1256" y="228"/>
      <point x="1084" y="48"/>
      <point x="772" y="48" type="curve" smooth="yes"/>
      <point x="448" y="48"/>
      <point x="292" y="336"/>
      <point x="292" y="732" type="curve" smooth="yes"/>
    </contour>
    <contour>
      <point x="1576" y="1836" type="line"/>
      <point x="768" y="1836" type="line"/>
      <point x="768" y="1760" type="line"/>
      <point x="1576" y="1760" type="line"/>
    </contour>
  </outline>
</glyph>
<glyph name="Hbar" format="1">
  <advance width="2048"/>
  <unicode hex="0126"/>
  <outline>
    <contour>
      <point x="1024" y="2216" type="move" name="top"/>
    </contour>
    <contour>
      <point x="1024" y="16" type="move" name="bottom"/>
    </contour>
    <contour>
      <point x="1992" y="2216" type="move" name="top0315"/>
    </contour>
    <contour>
      <point x="1940" y="1488" type="line"/>
      <point x="108" y="1488" type="line"/>
      <point x="108" y="1416" type="line"/>
      <point x="1940" y="1416" type="line"/>
    </contour>
    <component base="H" xOffset="24"/>
  </outline>
</glyph>
<glyph name="dotlessi" format="1">
  <advance width="512"/>
  <unicode hex="0131"/>
  <outline>
    <contour>
      <point x="256" y="1744" type="move" name="top"/>
    </contour>
    <contour>
      <point x="260" y="16" type="move" name="bottom"/>
    </contour>
    <contour>
      <point x="264" y="900" type="move" name="rhotichook"/>
    </contour>
    <contour>
      <point x="528" y="1744" type="move" name="top0315"/>
    </contour>
    <contour>
      <point x="292" y="1488" type="line"/>
      <point x="220" y="1488" type="line"/>
      <point x="220" y="0" type="line"/>
      <point x="292" y="0" type="line"/>
    </contour>
  </outline>
</glyph>
<glyph name="kgreenlandic" format="1">
  <advance width="1536"/>
  <unicode hex="0138"/>
  <outline>
    <contour>
      <point x="712" y="1776" type="move" name="top"/>
    </contour>
    <contour>
      <point x="712" y="16" type="move" name="bottom"/>
    </contour>
    <contour>
      <point x="1436" y="1776" type="move" name="top0315"/>
    </contour>
    <contour>
      <point x="256" y="1488" type="line"/>
      <point x="180" y="1488" type="line"/>
      <point x="180" y="0" type="line"/>
      <point x="256" y="0" type="line"/>
    </contour>
    <contour>
      <point x="1268" y="1488" type="line"/>
      <point x="1176" y="1488" type="line"/>
      <point x="504" y="800" type="line"/>
      <point x="232" y="800" type="line"/>
      <point x="228" y="728" type="line"/>
      <point x="540" y="728" type="line"/>
    </contour>
    <contour>
      <point x="1260" y="0" type="line"/>
      <point x="1356" y="0" type="line"/>
      <point x="528" y="804" type="line"/>
      <point x="484" y="732" type="line"/>
    </contour>
  </outline>
</glyph>
<glyph name="Lslash" format="1">
  <advance width="1536"/>
  <unicode hex="0141"/>
  <outline>
    <contour>
      <point x="376" y="2132" type="move" name="top"/>
    </contour>
    <contour>
      <point x="916" y="16" type="move" name="bottom"/>
    </contour>
    <contour>
      <point x="1540" y="2132" type="move" name="top0315"/>
    </contour>
    <contour>
      <point x="900" y="1240" type="line"/>
      <point x="92" y="984" type="line"/>
      <point x="92" y="904" type="line"/>
      <point x="900" y="1164" type="line"/>
    </contour>
    <component base="L" xOffset="68"/>
  </outline>
</glyph>
<glyph name="lslash" format="1">
  <advance width="768"/>
  <unicode hex="0142"/>
  <outline>
    <contour>
      <point x="392" y="2300" type="move" name="top"/>
    </contour>
    <contour>
      <point x="392" y="16" type="move" name="bottom"/>
    </contour>
    <contour>
      <point x="732" y="2300" type="move" name="top0315"/>
    </contour>
    <contour>
      <point x="708" y="1280" type="line"/>
      <point x="60" y="1024" type="line"/>
      <point x="60" y="940" type="line"/>
      <point x="708" y="1200" type="line"/>
    </contour>
    <component base="l" xOffset="104"/>
  </outline>
</glyph>
<glyph name="Eng" format="1">
  <advance width="2048"/>
  <unicode hex="014A"/>
  <outline>
    <contour>
      <point x="1024" y="2216" type="move" name="top"/>
    </contour>
    <contour>
      <point x="1024" y="16" type="move" name="bottom"/>
    </contour>
    <contour>
      <point x="2020" y="2216" type="move" name="top0315"/>
    </contour>
    <contour>
      <point x="304" y="2004" type="line"/>
      <point x="304" y="0" type="line"/>
      <point x="376" y="0" type="line"/>
      <point x="376" y="2004" type="line"/>
    </contour>
    <contour>
      <point x="320" y="1956" type="line"/>
      <point x="1672" y="0" type="line"/>
      <point x="1728" y="48" type="line"/>
      <point x="376" y="2004" type="line"/>
    </contour>
    <contour>
      <point x="1672" y="2004" type="line"/>
      <point x="1672" y="-124" type="line" smooth="yes"/>
      <point x="1672" y="-380"/>
      <point x="1556" y="-528"/>
      <point x="1356" y="-528" type="curve" smooth="yes"/>
      <point x="1304" y="-528"/>
      <point x="1248" y="-512"/>
      <point x="1220" y="-504" type="curve"/>
      <point x="1200" y="-572" type="line"/>
      <point x="1256" y="-592"/>
      <point x="1300" y="-600"/>
      <point x="1356" y="-600" type="curve" smooth="yes"/>
      <point x="1600" y="-600"/>
      <point x="1748" y="-432"/>
      <point x="1748" y="-124" type="curve" smooth="yes"/>
      <point x="1748" y="2004" type="line"/>
    </contour>
  </outline>
</glyph>
<glyph name="eng" format="1">
  <advance width="1536"/>
  <unicode hex="014B"/>
  <outline>
    <contour>
      <point x="792" y="1776" type="move" name="top"/>
    </contour>
    <contour>
      <point x="792" y="16" type="move" name="bottom"/>
    </contour>
    <contour>
      <point x="1016" y="-424" type="move" name="parenthesses.w1"/>
    </contour>
    <contour>
      <point x="792" y="16" type="move" name="markbottom"/>
    </contour>
    <contour>
      <point x="1536" y="1776" type="move" name="top0315"/>
    </contour>
    <contour>
      <point x="304" y="1172" type="line"/>
      <point x="296" y="1488" type="line"/>
      <point x="228" y="1488" type="line"/>
      <point x="228" y="0" type="line"/>
      <point x="304" y="0" type="line"/>
    </contour>
    <contour>
      <point x="292" y="764" type="line"/>
      <point x="292" y="1080"/>
      <point x="404" y="1440"/>
      <point x="820" y="1440" type="curve" smooth="yes"/>
      <point x="1052" y="1440"/>
      <point x="1232" y="1324"/>
      <point x="1232" y="880" type="curve" smooth="yes"/>
      <point x="1232" y="-124" type="line" smooth="yes"/>
      <point x="1232" y="-380"/>
      <point x="1116" y="-528"/>
      <point x="916" y="-528" type="curve" smooth="yes"/>
      <point x="852" y="-528"/>
      <point x="784" y="-512"/>
      <point x="752" y="-504" type="curve"/>
      <point x="732" y="-572" type="line"/>
      <point x="796" y="-592"/>
      <point x="848" y="-600"/>
      <point x="916" y="-600" type="curve" smooth="yes"/>
      <point x="1160" y="-600"/>
      <point x="1308" y="-432"/>
      <point x="1308" y="-124" type="curve" smooth="yes"/>
      <point x="1308" y="876" type="line" smooth="yes"/>
      <point x="1308" y="1328"/>
      <point x="1140" y="1516"/>
      <point x="820" y="1516" type="curve" smooth="yes"/>
      <point x="412" y="1516"/>
      <point x="228" y="1204"/>
      <point x="228" y="764" type="curve"/>
    </contour>
  </outline>
</glyph>
<glyph name="OE" format="1">
  <advance width="2816"/>
  <unicode hex="0152"/>
  <outline>
    <contour>
      <point x="1404" y="2244" type="move" name="top"/>
    </contour>
    <contour>
      <point x="1404" y="-4" type="move" name="bottom"/>
    </contour>
    <contour>
      <point x="2664" y="2200" type="move" name="top_dd"/>
    </contour>
    <contour>
      <point x="2664" y="-560" type="move" name="bottom_dd"/>
    </contour>
    <contour>
      <point x="2664" y="2244" type="move" name="top0315"/>
    </contour>
    <contour>
      <point x="952" y="2032" type="curve" smooth="yes"/>
      <point x="532" y="2032"/>
      <point x="244" y="1696"/>
      <point x="244" y="1212" type="curve"/>
      <point x="244" y="792" type="line"/>
      <point x="244" y="308"/>
      <point x="536" y="-28"/>
      <point x="956" y="-28" type="curve" smooth="yes"/>
      <point x="1116" y="-28"/>
      <point x="1272" y="-16"/>
      <point x="1408" y="0" type="curve"/>
      <point x="1408" y="72" type="line"/>
      <point x="1284" y="52"/>
      <point x="1112" y="44"/>
      <point x="956" y="44" type="curve" smooth="yes"/>
      <point x="568" y="44"/>
      <point x="316" y="360"/>
      <point x="316" y="792" type="curve"/>
      <point x="316" y="1212" type="line"/>
      <point x="316" y="1656"/>
      <point x="564" y="1956"/>
      <point x="952" y="1956" type="curve" smooth="yes"/>
      <point x="1120" y="1956"/>
      <point x="1272" y="1952"/>
      <point x="1408" y="1928" type="curve"/>
      <point x="1408" y="2004" type="line"/>
      <point x="1272" y="2016"/>
      <point x="1116" y="2032"/>
    </contour>
    <component base="E" xOffset="1072"/>
  </outline>
</glyph>
<glyph name="oe" format="1">
  <advance width="2816"/>
  <unicode hex="0153"/>
  <outline>
    <contour>
      <point x="1408" y="1776" type="move" name="top"/>
    </contour>
    <contour>
      <point x="1408" y="-16" type="move" name="bottom"/>
    </contour>
    <contour>
      <point x="2716" y="2200" type="move" name="top_dd"/>
    </contour>
    <contour>
      <point x="2716" y="-560" type="move" name="bottom_dd"/>
    </contour>
    <contour>
      <point x="2716" y="1776" type="move" name="top0315"/>
    </contour>
    <contour>
      <point x="2056" y="-28" type="curve"/>
      <point x="2292" y="-28"/>
      <point x="2452" y="44"/>
      <point x="2564" y="168" type="curve"/>
      <point x="2524" y="228" type="line"/>
      <point x="2424" y="112"/>
      <point x="2288" y="48"/>
      <point x="2056" y="48" type="curve" smooth="yes"/>
      <point x="1744" y="48"/>
      <point x="1504" y="332"/>
      <point x="1504" y="688" type="curve" smooth="yes"/>
      <point x="1504" y="776" type="line" smooth="yes"/>
      <point x="1504" y="1144"/>
      <point x="1724" y="1440"/>
      <point x="2052" y="1440" type="curve"/>
      <point x="2348" y="1440"/>
      <point x="2544" y="1212"/>
      <point x="2544" y="912" type="curve"/>
      <point x="2544" y="868" type="line"/>
      <point x="1480" y="868" type="line"/>
      <point x="1480" y="792" type="line"/>
      <point x="2620" y="792" type="line"/>
      <point x="2620" y="908" type="line" smooth="yes"/>
      <point x="2620" y="1288"/>
      <point x="2380" y="1516"/>
      <point x="2052" y="1516" type="curve" smooth="yes"/>
      <point x="1708" y="1516"/>
      <point x="1432" y="1212"/>
      <point x="1432" y="776" type="curve" smooth="yes"/>
      <point x="1432" y="688" type="line" smooth="yes"/>
      <point x="1432" y="272"/>
      <point x="1724" y="-28"/>
    </contour>
    <contour>
      <point x="196" y="716" type="line"/>
      <point x="196" y="280"/>
      <point x="460" y="-28"/>
      <point x="848" y="-28" type="curve" smooth="yes"/>
      <point x="1236" y="-28"/>
      <point x="1500" y="280"/>
      <point x="1500" y="716" type="curve"/>
      <point x="1500" y="772" type="line"/>
      <point x="1500" y="1208"/>
      <point x="1236" y="1516"/>
      <point x="848" y="1516" type="curve" smooth="yes"/>
      <point x="460" y="1516"/>
      <point x="196" y="1208"/>
      <point x="196" y="772" type="curve"/>
    </contour>
    <contour>
      <point x="272" y="772" type="line"/>
      <point x="272" y="1120"/>
      <point x="484" y="1440"/>
      <point x="848" y="1440" type="curve" smooth="yes"/>
      <point x="1212" y="1440"/>
      <point x="1424" y="1120"/>
      <point x="1424" y="772" type="curve"/>
      <point x="1424" y="716" type="line"/>
      <point x="1424" y="360"/>
      <point x="1212" y="48"/>
      <point x="848" y="48" type="curve" smooth="yes"/>
      <point x="484" y="48"/>
      <point x="272" y="360"/>
      <point x="272" y="716" type="curve"/>
    </contour>
  </outline>
</glyph>
<glyph name="longs" format="1">
  <advance width="768"/>
  <unicode hex="017F"/>
  <outline>
    <contour>
      <point x="380" y="2312" type="move" name="top"/>
    </contour>
    <contour>
      <point x="136" y="16" type="move" name="bottom"/>
    </contour>
    <contour>
      <point x="444" y="2312" type="move" name="top0315"/>
    </contour>
    <contour>
      <point x="176" y="0" type="line"/>
      <point x="176" y="1700" type="line" smooth="yes"/>
      <point x="176" y="1932"/>
      <point x="296" y="2068"/>
      <point x="492" y="2068" type="curve" smooth="yes"/>
      <point x="568" y="2068"/>
      <point x="604" y="2060"/>
      <point x="656" y="2048" type="curve"/>
      <point x="668" y="2120" type="line"/>
      <point x="612" y="2136"/>
      <point x="548" y="2140"/>
      <point x="492" y="2140" type="curve" smooth="yes"/>
      <point x="248" y="2140"/>
      <point x="104" y="1984"/>
      <point x="104" y="1700" type="curve" smooth="yes"/>
      <point x="104" y="0" type="line"/>
    </contour>
  </outline>
</glyph>
<glyph name="bbar" format="1">
  <advance width="1536"/>
  <unicode hex="0180"/>
  <outline>
    <contour>
      <point x="880" y="-16" type="move" name="markbottom"/>
    </contour>
    <contour>
      <point x="868" y="2216" type="move" name="top"/>
    </contour>
    <contour>
      <point x="544" y="1796" type="move" name="parenthesses.w2"/>
    </contour>
    <contour>
      <point x="1636" y="2216" type="move" name="top0315"/>
    </contour>
    <contour>
      <point x="880" y="-16" type="move" name="bottom"/>
    </contour>
    <component base="b" xOffset="92"/>
    <component base="crossbar" xOffset="-4" yOffset="768"/>
  </outline>
</glyph>
<glyph name="Bhook" format="1">
  <advance width="2048"/>
  <unicode hex="0181"/>
  <outline>
    <contour>
      <point x="680" y="1928" type="line"/>
      <point x="680" y="2004" type="line"/>
      <point x="636" y="2004" type="line" smooth="yes"/>
      <point x="328" y="2004"/>
      <point x="156" y="1856"/>
      <point x="156" y="1612" type="curve" smooth="yes"/>
      <point x="156" y="1556"/>
      <point x="168" y="1512"/>
      <point x="184" y="1456" type="curve"/>
      <point x="256" y="1476" type="line"/>
      <point x="244" y="1504"/>
      <point x="232" y="1560"/>
      <point x="232" y="1612" type="curve" smooth="yes"/>
      <point x="232" y="1816"/>
      <point x="380" y="1928"/>
      <point x="636" y="1928" type="curve" smooth="yes"/>
    </contour>
    <component base="B" xOffset="360"/>
  </outline>
</glyph>
<glyph name="btopbar" format="1">
  <advance width="1536"/>
  <unicode hex="0183"/>
  <outline>
    <contour>
      <point x="1232" y="2112" type="line" name="hr00"/>
      <point x="260" y="2112" type="line"/>
      <point x="260" y="2040" type="line"/>
      <point x="1232" y="2040" type="line"/>
    </contour>
    <component base="b" xOffset="-4"/>
  </outline>
</glyph>
<glyph name="Tonesix" format="1">
  <advance width="1536"/>
  <unicode hex="0184"/>
  <outline>
    <contour>
      <point x="232" y="2004" type="line"/>
      <point x="76" y="1692" type="line"/>
      <point x="76" y="1640" type="line"/>
      <point x="232" y="1332" type="line"/>
      <point x="272" y="1332" type="line"/>
      <point x="272" y="2004" type="line"/>
    </contour>
    <component base="uni042C" xOffset="-36"/>
  </outline>
</glyph>
<glyph name="tonesix" format="1">
  <advance width="1536"/>
  <unicode hex="0185"/>
  <outline>
    <contour>
      <point x="276" y="2112" type="line"/>
      <point x="120" y="1804" type="line"/>
      <point x="120" y="1748" type="line"/>
      <point x="276" y="1440" type="line"/>
      <point x="316" y="1440" type="line"/>
      <point x="316" y="2112" type="line"/>
    </contour>
    <component base="b" xOffset="44"/>
  </outline>
</glyph>
<glyph name="Chook" format="1">
  <advance width="2048"/>
  <unicode hex="0187"/>
  <outline>
    <contour>
      <point x="1548" y="1392" type="line"/>
      <point x="1548" y="1640" type="line" smooth="yes"/>
      <point x="1548" y="1900"/>
      <point x="1604" y="2044"/>
      <point x="1808" y="2044" type="curve" smooth="yes"/>
      <point x="1860" y="2044"/>
      <point x="1916" y="2032"/>
      <point x="1944" y="2020" type="curve"/>
      <point x="1964" y="2092" type="line"/>
      <point x="1908" y="2108"/>
      <point x="1864" y="2120"/>
      <point x="1808" y="2120" type="curve" smooth="yes"/>
      <point x="1564" y="2120"/>
      <point x="1472" y="1952"/>
      <point x="1472" y="1640" type="curve" smooth="yes"/>
      <point x="1472" y="1392" type="line"/>
    </contour>
    <component base="C" xOffset="-92"/>
  </outline>
</glyph>
<glyph name="chook" format="1">
  <advance width="1792"/>
  <unicode hex="0188"/>
  <outline>
    <contour>
      <point x="1240" y="996" type="line"/>
      <point x="1240" y="1080" type="line" smooth="yes"/>
      <point x="1240" y="1340"/>
      <point x="1300" y="1484"/>
      <point x="1504" y="1484" type="curve" smooth="yes"/>
      <point x="1556" y="1484"/>
      <point x="1612" y="1472"/>
      <point x="1640" y="1460" type="curve"/>
      <point x="1656" y="1532" type="line"/>
      <point x="1604" y="1552"/>
      <point x="1560" y="1560"/>
      <point x="1504" y="1560" type="curve" smooth="yes"/>
      <point x="1256" y="1560"/>
      <point x="1168" y="1392"/>
      <point x="1168" y="1080" type="curve" smooth="yes"/>
      <point x="1168" y="996" type="line"/>
    </contour>
    <component base="c" xOffset="-52"/>
  </outline>
</glyph>
<glyph name="Dhook" format="1">
  <advance width="2048"/>
  <unicode hex="018A"/>
  <outline>
    <contour>
      <point x="652" y="1928" type="line"/>
      <point x="652" y="2004" type="line"/>
      <point x="608" y="2004" type="line" smooth="yes"/>
      <point x="300" y="2004"/>
      <point x="128" y="1856"/>
      <point x="128" y="1612" type="curve" smooth="yes"/>
      <point x="128" y="1556"/>
      <point x="140" y="1512"/>
      <point x="156" y="1456" type="curve"/>
      <point x="228" y="1476" type="line"/>
      <point x="216" y="1504"/>
      <point x="204" y="1560"/>
      <point x="204" y="1612" type="curve" smooth="yes"/>
      <point x="204" y="1816"/>
      <point x="352" y="1928"/>
      <point x="608" y="1928" type="curve" smooth="yes"/>
    </contour>
    <component base="D" xOffset="332"/>
  </outline>
</glyph>
<glyph name="Dtopbar" format="1">
  <advance width="1536"/>
  <unicode hex="018B"/>
  <outline>
    <contour>
      <point x="1384" y="0" type="line"/>
      <point x="1384" y="2004" type="line"/>
      <point x="196" y="2004" type="line"/>
      <point x="196" y="1928" type="line"/>
      <point x="1308" y="1928" type="line"/>
      <point x="1308" y="1084" type="line"/>
      <point x="800" y="1084" type="line" smooth="yes"/>
      <point x="372" y="1084"/>
      <point x="152" y="860"/>
      <point x="152" y="544" type="curve" smooth="yes"/>
      <point x="152" y="224"/>
      <point x="372" y="0"/>
      <point x="800" y="0" type="curve" smooth="yes"/>
    </contour>
    <contour>
      <point x="1308" y="76" type="line"/>
      <point x="800" y="76" type="line" smooth="yes"/>
      <point x="396" y="76"/>
      <point x="228" y="292"/>
      <point x="228" y="544" type="curve" smooth="yes"/>
      <point x="228" y="788"/>
      <point x="396" y="1008"/>
      <point x="800" y="1008" type="curve" smooth="yes"/>
      <point x="1308" y="1008" type="line"/>
    </contour>
  </outline>
</glyph>
<glyph name="dtopbar" format="1">
  <advance width="1536"/>
  <unicode hex="018C"/>
  <outline>
    <contour>
      <point x="1312" y="2112" type="line"/>
      <point x="340" y="2112" type="line"/>
      <point x="340" y="2040" type="line"/>
      <point x="1312" y="2040" type="line"/>
    </contour>
    <component base="d" xOffset="32"/>
  </outline>
</glyph>
<glyph name="deltaturn" format="1">
  <advance width="1792"/>
  <unicode hex="018D"/>
  <outline>
    <contour>
      <point x="1304" y="-516" type="line"/>
      <point x="1304" y="-440" type="line"/>
      <point x="1188" y="-344"/>
      <point x="836" y="-144"/>
      <point x="620" y="72" type="curve"/>
      <point x="704" y="44"/>
      <point x="804" y="48"/>
      <point x="832" y="48" type="curve" smooth="yes"/>
      <point x="1252" y="48"/>
      <point x="1548" y="340"/>
      <point x="1548" y="740" type="curve" smooth="yes"/>
      <point x="1548" y="800" type="line" smooth="yes"/>
      <point x="1548" y="1220"/>
      <point x="1280" y="1516"/>
      <point x="896" y="1516" type="curve" smooth="yes"/>
      <point x="508" y="1516"/>
      <point x="244" y="1220"/>
      <point x="244" y="800" type="curve" smooth="yes"/>
      <point x="244" y="740" type="line" smooth="yes"/>
      <point x="244" y="468"/>
      <point x="372" y="200"/>
      <point x="592" y="-8" type="curve" smooth="yes"/>
      <point x="840" y="-240"/>
      <point x="1036" y="-328"/>
      <point x="1188" y="-444" type="curve"/>
      <point x="364" y="-444" type="line"/>
      <point x="364" y="-516" type="line"/>
    </contour>
    <contour>
      <point x="1472" y="740" type="line"/>
      <point x="1472" y="420"/>
      <point x="1232" y="120"/>
      <point x="832" y="120" type="curve" smooth="yes"/>
      <point x="760" y="120"/>
      <point x="632" y="140"/>
      <point x="564" y="156" type="curve"/>
      <point x="484" y="224"/>
      <point x="320" y="436"/>
      <point x="320" y="740" type="curve" smooth="yes"/>
      <point x="320" y="800" type="line" smooth="yes"/>
      <point x="320" y="1140"/>
      <point x="532" y="1440"/>
      <point x="896" y="1440" type="curve" smooth="yes"/>
      <point x="1260" y="1440"/>
      <point x="1472" y="1140"/>
      <point x="1472" y="800" type="curve" smooth="yes"/>
    </contour>
  </outline>
</glyph>
<glyph name="Eturn" format="1">
  <advance width="1536"/>
  <unicode hex="018E"/>
  <outline>
    <contour>
      <point x="160" y="1928" type="line"/>
      <point x="1352" y="1928" type="line"/>
      <point x="1352" y="2004" type="line"/>
      <point x="160" y="2004" type="line"/>
    </contour>
    <contour>
      <point x="1304" y="0" type="line"/>
      <point x="1376" y="0" type="line"/>
      <point x="1376" y="2004" type="line"/>
      <point x="1304" y="2004" type="line"/>
    </contour>
    <contour>
      <point x="300" y="1008" type="line"/>
      <point x="1352" y="1008" type="line"/>
      <point x="1352" y="1080" type="line"/>
      <point x="300" y="1080" type="line"/>
    </contour>
    <contour>
      <point x="160" y="0" type="line"/>
      <point x="1352" y="0" type="line"/>
      <point x="1352" y="76" type="line"/>
      <point x="160" y="76" type="line"/>
    </contour>
  </outline>
</glyph>
<glyph name="Schwa" format="1">
  <advance width="2048"/>
  <unicode hex="018F"/>
  <outline>
    <contour>
      <point x="1024" y="2244" type="move" name="top"/>
    </contour>
    <contour>
      <point x="1024" y="-4" type="move" name="bottom"/>
    </contour>
    <contour>
      <point x="2000" y="2244" type="move" name="top0315"/>
    </contour>
    <contour>
      <point x="1040" y="-28" type="curve" smooth="yes"/>
      <point x="1496" y="-28"/>
      <point x="1828" y="360"/>
      <point x="1828" y="912" type="curve" smooth="yes"/>
      <point x="1828" y="1148" type="line" smooth="yes"/>
      <point x="1828" y="1664"/>
      <point x="1540" y="2032"/>
      <point x="1004" y="2032" type="curve" smooth="yes"/>
      <point x="648" y="2032"/>
      <point x="472" y="1916"/>
      <point x="340" y="1804" type="curve"/>
      <point x="380" y="1744" type="line"/>
      <point x="528" y="1868"/>
      <point x="736" y="1956"/>
      <point x="1004" y="1956" type="curve" smooth="yes"/>
      <point x="1532" y="1956"/>
      <point x="1756" y="1596"/>
      <point x="1756" y="1148" type="curve" smooth="yes"/>
      <point x="1756" y="912" type="line" smooth="yes"/>
      <point x="1756" y="432"/>
      <point x="1488" y="48"/>
      <point x="1040" y="48" type="curve" smooth="yes"/>
      <point x="560" y="48"/>
      <point x="292" y="380"/>
      <point x="292" y="804" type="curve" smooth="yes"/>
      <point x="292" y="904" type="line"/>
      <point x="1780" y="904" type="line"/>
      <point x="1780" y="980" type="line"/>
      <point x="220" y="980" type="line"/>
      <point x="220" y="808" type="line" smooth="yes"/>
      <point x="220" y="296"/>
      <point x="544" y="-28"/>
    </contour>
  </outline>
</glyph>
<glyph name="Epsilon1" format="1">
  <advance width="1792"/>
  <unicode hex="0190"/>
  <outline>
    <contour>
      <point x="900" y="2244" type="move" name="top"/>
    </contour>
    <contour>
      <point x="900" y="-4" type="move" name="bottom"/>
    </contour>
    <contour>
      <point x="1872" y="2244" type="move" name="top0315"/>
    </contour>
    <contour>
      <point x="1168" y="988" type="line"/>
      <point x="1168" y="1060" type="line"/>
      <point x="912" y="1060" type="line" smooth="yes"/>
      <point x="480" y="1060"/>
      <point x="304" y="1228"/>
      <point x="304" y="1496" type="curve" smooth="yes"/>
      <point x="304" y="1764"/>
      <point x="488" y="1956"/>
      <point x="908" y="1956" type="curve" smooth="yes"/>
      <point x="1228" y="1956"/>
      <point x="1496" y="1776"/>
      <point x="1496" y="1480" type="curve"/>
      <point x="1568" y="1480" type="line"/>
      <point x="1568" y="1820"/>
      <point x="1260" y="2032"/>
      <point x="908" y="2032" type="curve" smooth="yes"/>
      <point x="492" y="2032"/>
      <point x="228" y="1844"/>
      <point x="228" y="1488" type="curve" smooth="yes"/>
      <point x="228" y="1200"/>
      <point x="464" y="988"/>
      <point x="908" y="988" type="curve"/>
    </contour>
    <contour>
      <point x="908" y="1052" type="line"/>
      <point x="424" y="1052"/>
      <point x="196" y="864"/>
      <point x="196" y="532" type="curve" smooth="yes"/>
      <point x="196" y="156"/>
      <point x="512" y="-28"/>
      <point x="908" y="-28" type="curve" smooth="yes"/>
      <point x="1236" y="-28"/>
      <point x="1596" y="156"/>
      <point x="1596" y="556" type="curve"/>
      <point x="1524" y="556" type="line"/>
      <point x="1524" y="260"/>
      <point x="1268" y="44"/>
      <point x="908" y="44" type="curve" smooth="yes"/>
      <point x="500" y="44"/>
      <point x="272" y="228"/>
      <point x="272" y="524" type="curve" smooth="yes"/>
      <point x="272" y="852"/>
      <point x="496" y="984"/>
      <point x="912" y="984" type="curve" smooth="yes"/>
      <point x="1168" y="984" type="line"/>
      <point x="1168" y="1052" type="line"/>
    </contour>
  </outline>
</glyph>
<glyph name="Fhook" format="1">
  <advance width="1792"/>
  <unicode hex="0191"/>
  <outline>
    <contour>
      <point x="512" y="1412" type="line"/>
      <point x="512" y="-124" type="line" smooth="yes"/>
      <point x="512" y="-380"/>
      <point x="400" y="-528"/>
      <point x="196" y="-528" type="curve" smooth="yes"/>
      <point x="144" y="-528"/>
      <point x="88" y="-512"/>
      <point x="60" y="-504" type="curve"/>
      <point x="40" y="-572" type="line"/>
      <point x="96" y="-592"/>
      <point x="140" y="-600"/>
      <point x="196" y="-600" type="curve" smooth="yes"/>
      <point x="440" y="-600"/>
      <point x="588" y="-432"/>
      <point x="588" y="-124" type="curve" smooth="yes"/>
      <point x="588" y="1412" type="line"/>
    </contour>
    <component base="F" xOffset="236"/>
  </outline>
</glyph>
<glyph name="florin" format="1">
  <advance width="1024"/>
  <unicode hex="0192"/>
  <outline>
    <contour>
      <point x="932" y="1488" type="line"/>
      <point x="540" y="1488" type="line"/>
      <point x="540" y="1700" type="line" smooth="yes"/>
      <point x="540" y="1932"/>
      <point x="660" y="2068"/>
      <point x="856" y="2068" type="curve" smooth="yes"/>
      <point x="932" y="2068"/>
      <point x="968" y="2060"/>
      <point x="1020" y="2048" type="curve"/>
      <point x="1032" y="2120" type="line"/>
      <point x="972" y="2136"/>
      <point x="912" y="2140"/>
      <point x="856" y="2140" type="curve" smooth="yes"/>
      <point x="612" y="2140"/>
      <point x="464" y="1984"/>
      <point x="464" y="1700" type="curve" smooth="yes"/>
      <point x="464" y="1488" type="line"/>
      <point x="208" y="1488" type="line"/>
      <point x="208" y="1412" type="line"/>
      <point x="464" y="1412" type="line"/>
      <point x="464" y="-124" type="line" smooth="yes"/>
      <point x="464" y="-380"/>
      <point x="352" y="-528"/>
      <point x="148" y="-528" type="curve" smooth="yes"/>
      <point x="96" y="-528"/>
      <point x="40" y="-512"/>
      <point x="12" y="-504" type="curve"/>
      <point x="-8" y="-572" type="line"/>
      <point x="48" y="-592"/>
      <point x="92" y="-600"/>
      <point x="148" y="-600" type="curve" smooth="yes"/>
      <point x="392" y="-600"/>
      <point x="540" y="-432"/>
      <point x="540" y="-124" type="curve" smooth="yes"/>
      <point x="540" y="1412" type="line"/>
      <point x="932" y="1412" type="line"/>
    </contour>
  </outline>
</glyph>
<glyph name="Ghook" format="1">
  <advance width="2048"/>
  <unicode hex="0193"/>
  <outline>
    <contour>
      <point x="1512" y="1460" type="line"/>
      <point x="1512" y="1640" type="line" smooth="yes"/>
      <point x="1512" y="1900"/>
      <point x="1572" y="2044"/>
      <point x="1772" y="2044" type="curve" smooth="yes"/>
      <point x="1824" y="2044"/>
      <point x="1880" y="2032"/>
      <point x="1908" y="2020" type="curve"/>
      <point x="1928" y="2092" type="line"/>
      <point x="1872" y="2108"/>
      <point x="1828" y="2120"/>
      <point x="1772" y="2120" type="curve" smooth="yes"/>
      <point x="1528" y="2120"/>
      <point x="1436" y="1952"/>
      <point x="1436" y="1640" type="curve" smooth="yes"/>
      <point x="1436" y="1460" type="line"/>
    </contour>
    <component base="G" xOffset="-176"/>
  </outline>
</glyph>
<glyph name="Gamma1" format="1">
  <advance width="1792"/>
  <unicode hex="0194"/>
  <outline>
    <contour>
      <point x="100" y="2004" type="line"/>
      <point x="924" y="72" type="line" smooth="yes"/>
      <point x="980" y="-64"/>
      <point x="1008" y="-164"/>
      <point x="1008" y="-244" type="curve" smooth="yes"/>
      <point x="1008" y="-340"/>
      <point x="968" y="-388"/>
      <point x="896" y="-388" type="curve" smooth="yes"/>
      <point x="828" y="-388"/>
      <point x="788" y="-340"/>
      <point x="788" y="-244" type="curve" smooth="yes"/>
      <point x="788" y="-164"/>
      <point x="816" y="-64"/>
      <point x="872" y="72" type="curve" smooth="yes"/>
      <point x="1692" y="2004" type="line"/>
      <point x="1612" y="2004" type="line"/>
      <point x="832" y="144" type="line" smooth="yes"/>
      <point x="768" y="-8"/>
      <point x="716" y="-124"/>
      <point x="716" y="-244" type="curve" smooth="yes"/>
      <point x="716" y="-384"/>
      <point x="788" y="-464"/>
      <point x="896" y="-464" type="curve" smooth="yes"/>
      <point x="1008" y="-464"/>
      <point x="1080" y="-384"/>
      <point x="1080" y="-244" type="curve" smooth="yes"/>
      <point x="1080" y="-124"/>
      <point x="1024" y="-12"/>
      <point x="960" y="144" type="curve" smooth="yes"/>
      <point x="184" y="2004" type="line"/>
    </contour>
  </outline>
</glyph>
<glyph name="hv" format="1">
  <advance width="2560"/>
  <unicode hex="0195"/>
  <outline>
    <contour>
      <point x="368" y="2112" type="line"/>
      <point x="292" y="2112" type="line"/>
      <point x="292" y="0" type="line"/>
      <point x="368" y="0" type="line"/>
    </contour>
    <contour>
      <point x="356" y="872" type="line"/>
      <point x="368" y="1048"/>
      <point x="516" y="1444"/>
      <point x="892" y="1444" type="curve" smooth="yes"/>
      <point x="1192" y="1444"/>
      <point x="1296" y="1272"/>
      <point x="1296" y="948" type="curve" smooth="yes"/>
      <point x="1296" y="688" type="line"/>
      <point x="1368" y="688" type="line"/>
      <point x="1368" y="952" type="line" smooth="yes"/>
      <point x="1368" y="1284"/>
      <point x="1260" y="1516"/>
      <point x="896" y="1516" type="curve" smooth="yes"/>
      <point x="572" y="1516"/>
      <point x="352" y="1244"/>
      <point x="316" y="952" type="curve"/>
    </contour>
    <contour>
      <point x="1780" y="-28" type="curve" smooth="yes"/>
      <point x="2072" y="-28"/>
      <point x="2268" y="168"/>
      <point x="2268" y="640" type="curve" smooth="yes"/>
      <point x="2268" y="1488" type="line"/>
      <point x="2192" y="1488" type="line"/>
      <point x="2192" y="636" type="line" smooth="yes"/>
      <point x="2192" y="216"/>
      <point x="2020" y="44"/>
      <point x="1780" y="44" type="curve" smooth="yes"/>
      <point x="1544" y="44"/>
      <point x="1368" y="216"/>
      <point x="1368" y="636" type="curve" smooth="yes"/>
      <point x="1368" y="800" type="line"/>
      <point x="1296" y="800" type="line"/>
      <point x="1296" y="640" type="line" smooth="yes"/>
      <point x="1296" y="168"/>
      <point x="1488" y="-28"/>
    </contour>
  </outline>
</glyph>
<glyph name="Iota1" format="1">
  <advance width="1024"/>
  <unicode hex="0196"/>
  <outline>
    <contour>
      <point x="304" y="2112" type="line"/>
      <point x="232" y="2112" type="line"/>
      <point x="232" y="416" type="line" smooth="yes"/>
      <point x="232" y="128"/>
      <point x="376" y="-28"/>
      <point x="620" y="-28" type="curve" smooth="yes"/>
      <point x="676" y="-28"/>
      <point x="740" y="-24"/>
      <point x="796" y="-4" type="curve"/>
      <point x="784" y="68" type="line"/>
      <point x="732" y="56"/>
      <point x="696" y="48"/>
      <point x="620" y="48" type="curve" smooth="yes"/>
      <point x="424" y="48"/>
      <point x="304" y="184"/>
      <point x="304" y="416" type="curve" smooth="yes"/>
    </contour>
  </outline>
</glyph>
<glyph name="Ibar" format="1">
  <advance width="1024"/>
  <unicode hex="0197"/>
  <outline>
    <contour>
      <point x="552" y="2216" type="move" name="top"/>
    </contour>
    <contour>
      <point x="984" y="2216" type="move" name="top0315"/>
    </contour>
    <contour>
      <point x="552" y="0" type="move" name="bottom"/>
    </contour>
    <component base="I" xOffset="184"/>
    <component base="crossbar"/>
  </outline>
</glyph>
<glyph name="Khook" format="1">
  <advance width="1792"/>
  <unicode hex="0198"/>
  <outline>
    <contour>
      <point x="204" y="2004" type="line"/>
      <point x="128" y="2004" type="line"/>
      <point x="128" y="0" type="line"/>
      <point x="204" y="0" type="line"/>
    </contour>
    <contour>
      <point x="1444" y="0" type="line"/>
      <point x="1540" y="0" type="line"/>
      <point x="548" y="1144" type="line"/>
      <point x="500" y="1080" type="line"/>
    </contour>
    <contour>
      <point x="996" y="1772" type="curve" smooth="yes"/>
      <point x="532" y="1164" type="line"/>
      <point x="184" y="712" type="line"/>
      <point x="172" y="588" type="line"/>
      <point x="572" y="1100" type="line"/>
      <point x="1060" y="1740" type="line" smooth="yes"/>
      <point x="1140" y="1848"/>
      <point x="1220" y="1952"/>
      <point x="1368" y="1952" type="curve" smooth="yes"/>
      <point x="1480" y="1952"/>
      <point x="1560" y="1880"/>
      <point x="1612" y="1824" type="curve"/>
      <point x="1664" y="1876" type="line"/>
      <point x="1600" y="1952"/>
      <point x="1488" y="2032"/>
      <point x="1372" y="2032" type="curve" smooth="yes"/>
      <point x="1180" y="2032"/>
      <point x="1092" y="1896"/>
    </contour>
  </outline>
</glyph>
<glyph name="khook" format="1">
  <advance width="1536"/>
  <unicode hex="0199"/>
  <outline>
    <contour>
      <point x="308" y="1652" type="line"/>
      <point x="232" y="1652" type="line"/>
      <point x="232" y="0" type="line"/>
      <point x="308" y="0" type="line"/>
    </contour>
    <contour>
      <point x="1264" y="1488" type="line"/>
      <point x="1156" y="1488" type="line"/>
      <point x="480" y="864" type="line"/>
      <point x="264" y="660" type="line"/>
      <point x="292" y="604" type="line"/>
      <point x="524" y="804" type="line"/>
    </contour>
    <contour>
      <point x="1208" y="0" type="line"/>
      <point x="1304" y="0" type="line"/>
      <point x="548" y="896" type="line"/>
      <point x="500" y="836" type="line"/>
    </contour>
    <contour>
      <point x="308" y="1580" type="line"/>
      <point x="308" y="1664" type="line" smooth="yes"/>
      <point x="308" y="1920"/>
      <point x="364" y="2068"/>
      <point x="568" y="2068" type="curve" smooth="yes"/>
      <point x="620" y="2068"/>
      <point x="676" y="2052"/>
      <point x="704" y="2044" type="curve"/>
      <point x="724" y="2112" type="line"/>
      <point x="668" y="2132"/>
      <point x="624" y="2140"/>
      <point x="568" y="2140" type="curve" smooth="yes"/>
      <point x="324" y="2140"/>
      <point x="232" y="1972"/>
      <point x="232" y="1664" type="curve" smooth="yes"/>
      <point x="232" y="1580" type="line"/>
    </contour>
  </outline>
</glyph>
<glyph name="lbar" format="1">
  <advance width="1024"/>
  <unicode hex="019A"/>
  <outline>
    <contour>
      <point x="552" y="2300" type="move" name="top"/>
    </contour>
    <contour>
      <point x="984" y="2300" type="move" name="top0315"/>
    </contour>
    <contour>
      <point x="552" y="16" type="move" name="bottom"/>
    </contour>
    <component base="l" xOffset="260"/>
    <component base="crossbar" yOffset="84"/>
  </outline>
</glyph>
<glyph name="lambdabar" format="1">
  <advance width="1792"/>
  <unicode hex="019B"/>
  <outline>
    <contour>
      <point x="1304" y="2216" type="move" name="top0315"/>
    </contour>
    <contour>
      <point x="960" y="1900" type="line"/>
      <point x="312" y="1640" type="line"/>
      <point x="312" y="1560" type="line"/>
      <point x="960" y="1816" type="line"/>
    </contour>
    <component base="lambda"/>
  </outline>
</glyph>
